<svg id="Layer_1" data-name="Layer 1" xmlns="http://www.w3.org/2000/svg" viewBox="0 0 90 84.62"><defs><style>.cls-1{fill:#fff;}.cls-2{fill:#37b375;}</style></defs><title>icon-contactus</title><polygon points="27.28 53.71 45.4 68.76 45.36 68.79 27.28 53.71"/><polygon points="45.38 65.2 29.02 51.61 45.34 65.23 45.38 65.2"/><polygon points="90 29.69 90 84.62 0 84.62 0 29.68 9.62 23.38 9.62 8.32 32.59 8.32 45.28 0 57.81 8.32 80.37 8.32 80.37 23.3 90 29.69"/><polygon class="cls-1" points="80.37 35.63 86.37 30.55 80.37 26.57 80.37 35.63"/><polygon class="cls-1" points="37.57 8.32 52.88 8.32 45.27 3.27 37.57 8.32"/><polygon class="cls-1" points="12.35 37.71 29.02 51.61 45.34 65.23 45.38 65.2 77.65 37.72 77.65 24.76 77.65 21.48 77.65 11.05 61.92 11.05 56.99 11.05 33.41 11.05 28.43 11.05 12.35 11.05 12.35 21.59 12.35 24.85 12.35 37.71"/><polygon class="cls-1" points="3.65 30.55 9.62 35.51 9.62 26.64 3.65 30.55"/><polygon class="cls-1" points="87.27 33.36 45.43 68.79 45.4 68.76 27.28 53.71 2.73 33.32 2.73 81.89 87.27 81.89 87.27 33.36 87.27 33.36"/><path class="cls-2" d="M44.8,50.74c-7.07,0-13.06-5.17-13.06-13.45,0-8.88,6.16-16.55,15.73-16.55C55,20.75,60,26,60,33.2c0,6.47-3.62,10.26-7.67,10.26-1.72,0-3.32-1.16-3.19-3.79H49c-1.51,2.54-3.49,3.79-6.08,3.79s-4.65-2-4.65-5.43A10.18,10.18,0,0,1,48.46,27.81a11.36,11.36,0,0,1,4.61.9l-1.46,7.8c-.65,3.28-.13,4.78,1.29,4.83,2.2,0,4.65-2.89,4.65-7.89,0-6.25-3.75-10.73-10.43-10.73-7,0-12.93,5.56-12.93,14.31,0,7.2,4.7,11.64,11.08,11.64a13.44,13.44,0,0,0,6.51-1.51L52.47,49A15.71,15.71,0,0,1,44.8,50.74Z"/><path class="cls-1" d="M50.1,30.4a7.49,7.49,0,0,0-2.15-.3c-3.79,0-6.85,3.58-6.85,7.76,0,1.9.95,3.28,2.85,3.28,2.5,0,4.78-3.19,5.26-5.86Z"/></svg>