<svg id="Layer_2" data-name="Layer 2" xmlns="http://www.w3.org/2000/svg" xmlns:xlink="http://www.w3.org/1999/xlink" viewBox="0 0 128.87 106.04"><defs><style>.cls-1{fill:none;}.cls-2{clip-path:url(#clip-path);}.cls-3{fill:#ffd213;}.cls-4{fill:#22b573;}.cls-5{fill:#ed1c24;}.cls-6{fill:#0071bc;}</style><clipPath id="clip-path" transform="translate(1.31 8.6)"><path class="cls-1" d="M5.23,0H112a5.13,5.13,0,0,1,5.07,5.23V69A5.1,5.1,0,0,1,112,74.1H74.92L77.7,90.78H86.2c2.94,0,2.78,5.4,0,5.4H30.91c-2.78,0-2.78-5.4,0-5.4h8.51L42.2,74.1h-37A5.13,5.13,0,0,1,0,69V5.23A5.17,5.17,0,0,1,5.23,0Z"/></clipPath></defs><title>icon-bioinformatics</title><g class="cls-2"><path d="M2.62-.88A3.35,3.35,0,0,1-.72-4.23V-8.31A.3.3,0,0,0-1-8.6a.3.3,0,0,0-.3.3v4.08A3.94,3.94,0,0,0,2.62-.29,3.35,3.35,0,0,1,6,3.05V7.14a.3.3,0,0,0,.59,0V3.05A3.94,3.94,0,0,0,2.62-.88Z" transform="translate(1.31 8.6)"/><path d="M.82.24A.3.3,0,0,0,.91-.17.3.3,0,0,0,.5-.26,3.92,3.92,0,0,0-1.31,3.05V7.14a.3.3,0,0,0,.3.3.3.3,0,0,0,.3-.3V3.05A3.33,3.33,0,0,1,.82.24Z" transform="translate(1.31 8.6)"/><path d="M6.26-8.6a.3.3,0,0,0-.3.3v4.08A3.33,3.33,0,0,1,4.43-1.41.3.3,0,0,0,4.34-1a.3.3,0,0,0,.25.14.29.29,0,0,0,.16,0A3.92,3.92,0,0,0,6.56-4.23V-8.31A.3.3,0,0,0,6.26-8.6Z" transform="translate(1.31 8.6)"/><path class="cls-3" d="M1.57-3.38a.3.3,0,0,0-.3.3.3.3,0,0,0,.3.3h2.1a.3.3,0,0,0,.3-.3.3.3,0,0,0-.3-.3Z" transform="translate(1.31 8.6)"/><path class="cls-3" d="M.29-4.78H5a.3.3,0,0,0,.3-.3.3.3,0,0,0-.3-.3H.29a.3.3,0,0,0-.3.3A.3.3,0,0,0,.29-4.78Z" transform="translate(1.31 8.6)"/><path class="cls-3" d="M.29-6.78H5a.3.3,0,0,0,.3-.3.3.3,0,0,0-.3-.3H.29a.3.3,0,0,0-.3.3A.3.3,0,0,0,.29-6.78Z" transform="translate(1.31 8.6)"/><path class="cls-3" d="M3.67,2.2a.3.3,0,1,0,0-.59H1.57a.3.3,0,1,0,0,.59Z" transform="translate(1.31 8.6)"/><path class="cls-3" d="M.16,3.91a.3.3,0,0,0,.3.3H4.79a.3.3,0,1,0,0-.59H.45A.3.3,0,0,0,.16,3.91Z" transform="translate(1.31 8.6)"/><path class="cls-3" d="M5,5.61H.29a.3.3,0,0,0,0,.59H5a.3.3,0,0,0,0-.59Z" transform="translate(1.31 8.6)"/><path d="M13.62-.88a3.35,3.35,0,0,1-3.34-3.34V-8.31a.3.3,0,0,0-.3-.3.3.3,0,0,0-.3.3v4.08A3.94,3.94,0,0,0,13.62-.29,3.35,3.35,0,0,1,17,3.05V7.14a.3.3,0,0,0,.59,0V3.05A3.94,3.94,0,0,0,13.62-.88Z" transform="translate(1.31 8.6)"/><path d="M11.82.24a.3.3,0,0,0,.09-.41.3.3,0,0,0-.41-.09A3.92,3.92,0,0,0,9.69,3.05V7.14a.3.3,0,0,0,.59,0V3.05A3.33,3.33,0,0,1,11.82.24Z" transform="translate(1.31 8.6)"/><path d="M17.26-8.6a.3.3,0,0,0-.3.3v4.08a3.33,3.33,0,0,1-1.54,2.81.3.3,0,0,0-.09.41.3.3,0,0,0,.25.14.29.29,0,0,0,.16,0,3.92,3.92,0,0,0,1.81-3.31V-8.31A.3.3,0,0,0,17.26-8.6Z" transform="translate(1.31 8.6)"/><path class="cls-3" d="M12.57-3.38a.3.3,0,0,0-.3.3.3.3,0,0,0,.3.3h2.1a.3.3,0,0,0,.3-.3.3.3,0,0,0-.3-.3Z" transform="translate(1.31 8.6)"/><path class="cls-3" d="M11.29-4.78H16a.3.3,0,0,0,.3-.3.3.3,0,0,0-.3-.3H11.29a.3.3,0,0,0-.3.3A.3.3,0,0,0,11.29-4.78Z" transform="translate(1.31 8.6)"/><path class="cls-3" d="M11.29-6.78H16a.3.3,0,0,0,.3-.3.3.3,0,0,0-.3-.3H11.29a.3.3,0,0,0-.3.3A.3.3,0,0,0,11.29-6.78Z" transform="translate(1.31 8.6)"/><path class="cls-3" d="M14.67,2.2a.3.3,0,1,0,0-.59h-2.1a.3.3,0,1,0,0,.59Z" transform="translate(1.31 8.6)"/><path class="cls-3" d="M11.16,3.91a.3.3,0,0,0,.3.3h4.34a.3.3,0,1,0,0-.59H11.45A.3.3,0,0,0,11.16,3.91Z" transform="translate(1.31 8.6)"/><path class="cls-3" d="M16,5.61H11.29a.3.3,0,0,0,0,.59H16a.3.3,0,0,0,0-.59Z" transform="translate(1.31 8.6)"/><path d="M24.62-.88a3.35,3.35,0,0,1-3.34-3.34V-8.31a.3.3,0,0,0-.3-.3.3.3,0,0,0-.3.3v4.08A3.94,3.94,0,0,0,24.62-.29,3.35,3.35,0,0,1,28,3.05V7.14a.3.3,0,0,0,.59,0V3.05A3.94,3.94,0,0,0,24.62-.88Z" transform="translate(1.31 8.6)"/><path d="M22.82.24a.3.3,0,0,0,.09-.41.3.3,0,0,0-.41-.09,3.92,3.92,0,0,0-1.81,3.31V7.14a.3.3,0,0,0,.59,0V3.05A3.33,3.33,0,0,1,22.82.24Z" transform="translate(1.31 8.6)"/><path d="M28.26-8.6a.3.3,0,0,0-.3.3v4.08a3.33,3.33,0,0,1-1.54,2.81.3.3,0,0,0-.09.41.3.3,0,0,0,.25.14.29.29,0,0,0,.16,0,3.92,3.92,0,0,0,1.81-3.31V-8.31A.3.3,0,0,0,28.26-8.6Z" transform="translate(1.31 8.6)"/><path class="cls-3" d="M23.57-3.38a.3.3,0,0,0-.3.3.3.3,0,0,0,.3.3h2.1a.3.3,0,0,0,.3-.3.3.3,0,0,0-.3-.3Z" transform="translate(1.31 8.6)"/><path class="cls-3" d="M22.29-4.78H27a.3.3,0,0,0,.3-.3.3.3,0,0,0-.3-.3H22.29a.3.3,0,0,0-.3.3A.3.3,0,0,0,22.29-4.78Z" transform="translate(1.31 8.6)"/><path class="cls-3" d="M22.29-6.78H27a.3.3,0,0,0,.3-.3.3.3,0,0,0-.3-.3H22.29a.3.3,0,0,0-.3.3A.3.3,0,0,0,22.29-6.78Z" transform="translate(1.31 8.6)"/><path class="cls-3" d="M25.67,2.2a.3.3,0,1,0,0-.59h-2.1a.3.3,0,1,0,0,.59Z" transform="translate(1.31 8.6)"/><path class="cls-3" d="M22.16,3.91a.3.3,0,0,0,.3.3h4.34a.3.3,0,1,0,0-.59H22.45A.3.3,0,0,0,22.16,3.91Z" transform="translate(1.31 8.6)"/><path class="cls-3" d="M27,5.61H22.29a.3.3,0,0,0,0,.59H27a.3.3,0,0,0,0-.59Z" transform="translate(1.31 8.6)"/><path d="M35.62-.88a3.35,3.35,0,0,1-3.34-3.34V-8.31a.3.3,0,0,0-.3-.3.3.3,0,0,0-.3.3v4.08A3.94,3.94,0,0,0,35.62-.29,3.35,3.35,0,0,1,39,3.05V7.14a.3.3,0,0,0,.59,0V3.05A3.94,3.94,0,0,0,35.62-.88Z" transform="translate(1.31 8.6)"/><path d="M33.82.24a.3.3,0,0,0,.09-.41.3.3,0,0,0-.41-.09,3.92,3.92,0,0,0-1.81,3.31V7.14a.3.3,0,0,0,.59,0V3.05A3.33,3.33,0,0,1,33.82.24Z" transform="translate(1.31 8.6)"/><path d="M39.26-8.6a.3.3,0,0,0-.3.3v4.08a3.33,3.33,0,0,1-1.54,2.81.3.3,0,0,0-.09.41.3.3,0,0,0,.25.14.29.29,0,0,0,.16,0,3.92,3.92,0,0,0,1.81-3.31V-8.31A.3.3,0,0,0,39.26-8.6Z" transform="translate(1.31 8.6)"/><path class="cls-3" d="M34.57-3.38a.3.3,0,0,0-.3.3.3.3,0,0,0,.3.3h2.1a.3.3,0,0,0,.3-.3.3.3,0,0,0-.3-.3Z" transform="translate(1.31 8.6)"/><path class="cls-3" d="M33.29-4.78H38a.3.3,0,0,0,.3-.3.3.3,0,0,0-.3-.3H33.29a.3.3,0,0,0-.3.3A.3.3,0,0,0,33.29-4.78Z" transform="translate(1.31 8.6)"/><path class="cls-3" d="M33.29-6.78H38a.3.3,0,0,0,.3-.3.3.3,0,0,0-.3-.3H33.29a.3.3,0,0,0-.3.3A.3.3,0,0,0,33.29-6.78Z" transform="translate(1.31 8.6)"/><path class="cls-3" d="M36.67,2.2a.3.3,0,1,0,0-.59h-2.1a.3.3,0,1,0,0,.59Z" transform="translate(1.31 8.6)"/><path class="cls-3" d="M33.16,3.91a.3.3,0,0,0,.3.3h4.34a.3.3,0,1,0,0-.59H33.45A.3.3,0,0,0,33.16,3.91Z" transform="translate(1.31 8.6)"/><path class="cls-3" d="M38,5.61H33.29a.3.3,0,0,0,0,.59H38a.3.3,0,0,0,0-.59Z" transform="translate(1.31 8.6)"/><path d="M46.62-.88a3.35,3.35,0,0,1-3.34-3.34V-8.31a.3.3,0,0,0-.3-.3.3.3,0,0,0-.3.3v4.08A3.94,3.94,0,0,0,46.62-.29,3.35,3.35,0,0,1,50,3.05V7.14a.3.3,0,0,0,.59,0V3.05A3.94,3.94,0,0,0,46.62-.88Z" transform="translate(1.31 8.6)"/><path d="M44.82.24a.3.3,0,0,0,.09-.41.3.3,0,0,0-.41-.09,3.92,3.92,0,0,0-1.81,3.31V7.14a.3.3,0,0,0,.59,0V3.05A3.33,3.33,0,0,1,44.82.24Z" transform="translate(1.31 8.6)"/><path d="M50.26-8.6a.3.3,0,0,0-.3.3v4.08a3.33,3.33,0,0,1-1.54,2.81.3.3,0,0,0-.09.41.3.3,0,0,0,.25.14.29.29,0,0,0,.16,0,3.92,3.92,0,0,0,1.81-3.31V-8.31A.3.3,0,0,0,50.26-8.6Z" transform="translate(1.31 8.6)"/><path class="cls-3" d="M45.57-3.38a.3.3,0,0,0-.3.3.3.3,0,0,0,.3.3h2.1a.3.3,0,0,0,.3-.3.3.3,0,0,0-.3-.3Z" transform="translate(1.31 8.6)"/><path class="cls-3" d="M44.29-4.78H49a.3.3,0,0,0,.3-.3.3.3,0,0,0-.3-.3H44.29a.3.3,0,0,0-.3.3A.3.3,0,0,0,44.29-4.78Z" transform="translate(1.31 8.6)"/><path class="cls-3" d="M44.29-6.78H49a.3.3,0,0,0,.3-.3.3.3,0,0,0-.3-.3H44.29a.3.3,0,0,0-.3.3A.3.3,0,0,0,44.29-6.78Z" transform="translate(1.31 8.6)"/><path class="cls-3" d="M47.67,2.2a.3.3,0,1,0,0-.59h-2.1a.3.3,0,1,0,0,.59Z" transform="translate(1.31 8.6)"/><path class="cls-3" d="M44.16,3.91a.3.3,0,0,0,.3.3h4.34a.3.3,0,1,0,0-.59H44.45A.3.3,0,0,0,44.16,3.91Z" transform="translate(1.31 8.6)"/><path class="cls-3" d="M49,5.61H44.29a.3.3,0,0,0,0,.59H49a.3.3,0,0,0,0-.59Z" transform="translate(1.31 8.6)"/><path d="M57.62-.88a3.35,3.35,0,0,1-3.34-3.34V-8.31a.3.3,0,0,0-.3-.3.3.3,0,0,0-.3.3v4.08A3.94,3.94,0,0,0,57.62-.29,3.35,3.35,0,0,1,61,3.05V7.14a.3.3,0,0,0,.59,0V3.05A3.94,3.94,0,0,0,57.62-.88Z" transform="translate(1.31 8.6)"/><path d="M55.82.24a.3.3,0,0,0,.09-.41.3.3,0,0,0-.41-.09,3.92,3.92,0,0,0-1.81,3.31V7.14a.3.3,0,0,0,.59,0V3.05A3.33,3.33,0,0,1,55.82.24Z" transform="translate(1.31 8.6)"/><path d="M61.26-8.6a.3.3,0,0,0-.3.3v4.08a3.33,3.33,0,0,1-1.54,2.81.3.3,0,0,0-.09.41.3.3,0,0,0,.25.14.29.29,0,0,0,.16,0,3.92,3.92,0,0,0,1.81-3.31V-8.31A.3.3,0,0,0,61.26-8.6Z" transform="translate(1.31 8.6)"/><path class="cls-3" d="M56.57-3.38a.3.3,0,0,0-.3.3.3.3,0,0,0,.3.3h2.1a.3.3,0,0,0,.3-.3.3.3,0,0,0-.3-.3Z" transform="translate(1.31 8.6)"/><path class="cls-3" d="M55.29-4.78H60a.3.3,0,0,0,.3-.3.3.3,0,0,0-.3-.3H55.29a.3.3,0,0,0-.3.3A.3.3,0,0,0,55.29-4.78Z" transform="translate(1.31 8.6)"/><path class="cls-3" d="M55.29-6.78H60a.3.3,0,0,0,.3-.3.3.3,0,0,0-.3-.3H55.29a.3.3,0,0,0-.3.3A.3.3,0,0,0,55.29-6.78Z" transform="translate(1.31 8.6)"/><path class="cls-3" d="M58.67,2.2a.3.3,0,1,0,0-.59h-2.1a.3.3,0,1,0,0,.59Z" transform="translate(1.31 8.6)"/><path class="cls-3" d="M55.16,3.91a.3.3,0,0,0,.3.3h4.34a.3.3,0,1,0,0-.59H55.45A.3.3,0,0,0,55.16,3.91Z" transform="translate(1.31 8.6)"/><path class="cls-3" d="M60,5.61H55.29a.3.3,0,0,0,0,.59H60a.3.3,0,0,0,0-.59Z" transform="translate(1.31 8.6)"/><path d="M68.62-.88a3.35,3.35,0,0,1-3.34-3.34V-8.31a.3.3,0,0,0-.3-.3.3.3,0,0,0-.3.3v4.08A3.94,3.94,0,0,0,68.62-.29,3.35,3.35,0,0,1,72,3.05V7.14a.3.3,0,0,0,.59,0V3.05A3.94,3.94,0,0,0,68.62-.88Z" transform="translate(1.31 8.6)"/><path d="M66.82.24a.3.3,0,0,0,.09-.41.3.3,0,0,0-.41-.09,3.92,3.92,0,0,0-1.81,3.31V7.14a.3.3,0,0,0,.59,0V3.05A3.33,3.33,0,0,1,66.82.24Z" transform="translate(1.31 8.6)"/><path d="M72.26-8.6a.3.3,0,0,0-.3.3v4.08a3.33,3.33,0,0,1-1.54,2.81.3.3,0,0,0-.09.41.3.3,0,0,0,.25.14.29.29,0,0,0,.16,0,3.92,3.92,0,0,0,1.81-3.31V-8.31A.3.3,0,0,0,72.26-8.6Z" transform="translate(1.31 8.6)"/><path class="cls-3" d="M67.57-3.38a.3.3,0,0,0-.3.3.3.3,0,0,0,.3.3h2.1a.3.3,0,0,0,.3-.3.3.3,0,0,0-.3-.3Z" transform="translate(1.31 8.6)"/><path class="cls-3" d="M66.29-4.78H71a.3.3,0,0,0,.3-.3.3.3,0,0,0-.3-.3H66.29a.3.3,0,0,0-.3.3A.3.3,0,0,0,66.29-4.78Z" transform="translate(1.31 8.6)"/><path class="cls-3" d="M66.29-6.78H71a.3.3,0,0,0,.3-.3.3.3,0,0,0-.3-.3H66.29a.3.3,0,0,0-.3.3A.3.3,0,0,0,66.29-6.78Z" transform="translate(1.31 8.6)"/><path class="cls-3" d="M69.67,2.2a.3.3,0,1,0,0-.59h-2.1a.3.3,0,1,0,0,.59Z" transform="translate(1.31 8.6)"/><path class="cls-3" d="M66.16,3.91a.3.3,0,0,0,.3.3h4.34a.3.3,0,1,0,0-.59H66.45A.3.3,0,0,0,66.16,3.91Z" transform="translate(1.31 8.6)"/><path class="cls-3" d="M71,5.61H66.29a.3.3,0,0,0,0,.59H71a.3.3,0,0,0,0-.59Z" transform="translate(1.31 8.6)"/><path d="M79.62-.88a3.35,3.35,0,0,1-3.34-3.34V-8.31a.3.3,0,0,0-.3-.3.3.3,0,0,0-.3.3v4.08A3.94,3.94,0,0,0,79.62-.29,3.35,3.35,0,0,1,83,3.05V7.14a.3.3,0,0,0,.59,0V3.05A3.94,3.94,0,0,0,79.62-.88Z" transform="translate(1.31 8.6)"/><path d="M77.82.24a.3.3,0,0,0,.09-.41.3.3,0,0,0-.41-.09,3.92,3.92,0,0,0-1.81,3.31V7.14a.3.3,0,0,0,.59,0V3.05A3.33,3.33,0,0,1,77.82.24Z" transform="translate(1.31 8.6)"/><path d="M83.26-8.6a.3.3,0,0,0-.3.3v4.08a3.33,3.33,0,0,1-1.54,2.81.3.3,0,0,0-.09.41.3.3,0,0,0,.25.14.29.29,0,0,0,.16,0,3.92,3.92,0,0,0,1.81-3.31V-8.31A.3.3,0,0,0,83.26-8.6Z" transform="translate(1.31 8.6)"/><path class="cls-3" d="M78.57-3.38a.3.3,0,0,0-.3.3.3.3,0,0,0,.3.3h2.1a.3.3,0,0,0,.3-.3.3.3,0,0,0-.3-.3Z" transform="translate(1.31 8.6)"/><path class="cls-3" d="M77.29-4.78H82a.3.3,0,0,0,.3-.3.3.3,0,0,0-.3-.3H77.29a.3.3,0,0,0-.3.3A.3.3,0,0,0,77.29-4.78Z" transform="translate(1.31 8.6)"/><path class="cls-3" d="M77.29-6.78H82a.3.3,0,0,0,.3-.3.3.3,0,0,0-.3-.3H77.29a.3.3,0,0,0-.3.3A.3.3,0,0,0,77.29-6.78Z" transform="translate(1.31 8.6)"/><path class="cls-3" d="M80.67,2.2a.3.3,0,1,0,0-.59h-2.1a.3.3,0,1,0,0,.59Z" transform="translate(1.31 8.6)"/><path class="cls-3" d="M77.16,3.91a.3.3,0,0,0,.3.3h4.34a.3.3,0,1,0,0-.59H77.45A.3.3,0,0,0,77.16,3.91Z" transform="translate(1.31 8.6)"/><path class="cls-3" d="M82,5.61H77.29a.3.3,0,0,0,0,.59H82a.3.3,0,0,0,0-.59Z" transform="translate(1.31 8.6)"/><path d="M90.62-.88a3.35,3.35,0,0,1-3.34-3.34V-8.31a.3.3,0,0,0-.3-.3.3.3,0,0,0-.3.3v4.08A3.94,3.94,0,0,0,90.62-.29,3.35,3.35,0,0,1,94,3.05V7.14a.3.3,0,0,0,.59,0V3.05A3.94,3.94,0,0,0,90.62-.88Z" transform="translate(1.31 8.6)"/><path d="M88.82.24a.3.3,0,0,0,.09-.41.3.3,0,0,0-.41-.09,3.92,3.92,0,0,0-1.81,3.31V7.14a.3.3,0,0,0,.59,0V3.05A3.33,3.33,0,0,1,88.82.24Z" transform="translate(1.31 8.6)"/><path d="M94.26-8.6a.3.3,0,0,0-.3.3v4.08a3.33,3.33,0,0,1-1.54,2.81.3.3,0,0,0-.09.41.3.3,0,0,0,.25.14.29.29,0,0,0,.16,0,3.92,3.92,0,0,0,1.81-3.31V-8.31A.3.3,0,0,0,94.26-8.6Z" transform="translate(1.31 8.6)"/><path class="cls-3" d="M89.57-3.38a.3.3,0,0,0-.3.3.3.3,0,0,0,.3.3h2.1a.3.3,0,0,0,.3-.3.3.3,0,0,0-.3-.3Z" transform="translate(1.31 8.6)"/><path class="cls-3" d="M88.29-4.78H93a.3.3,0,0,0,.3-.3.3.3,0,0,0-.3-.3H88.29a.3.3,0,0,0-.3.3A.3.3,0,0,0,88.29-4.78Z" transform="translate(1.31 8.6)"/><path class="cls-3" d="M88.29-6.78H93a.3.3,0,0,0,.3-.3.3.3,0,0,0-.3-.3H88.29a.3.3,0,0,0-.3.3A.3.3,0,0,0,88.29-6.78Z" transform="translate(1.31 8.6)"/><path class="cls-3" d="M91.67,2.2a.3.3,0,1,0,0-.59h-2.1a.3.3,0,1,0,0,.59Z" transform="translate(1.31 8.6)"/><path class="cls-3" d="M88.16,3.91a.3.3,0,0,0,.3.3h4.34a.3.3,0,1,0,0-.59H88.45A.3.3,0,0,0,88.16,3.91Z" transform="translate(1.31 8.6)"/><path class="cls-3" d="M93,5.61H88.29a.3.3,0,0,0,0,.59H93a.3.3,0,0,0,0-.59Z" transform="translate(1.31 8.6)"/><path d="M101.62-.88a3.35,3.35,0,0,1-3.34-3.34V-8.31a.3.3,0,0,0-.3-.3.3.3,0,0,0-.3.3v4.08a3.94,3.94,0,0,0,3.94,3.94A3.35,3.35,0,0,1,105,3.05V7.14a.3.3,0,0,0,.59,0V3.05A3.94,3.94,0,0,0,101.62-.88Z" transform="translate(1.31 8.6)"/><path d="M99.82.24a.3.3,0,0,0,.09-.41.3.3,0,0,0-.41-.09,3.92,3.92,0,0,0-1.81,3.31V7.14a.3.3,0,0,0,.59,0V3.05A3.33,3.33,0,0,1,99.82.24Z" transform="translate(1.31 8.6)"/><path d="M105.26-8.6a.3.3,0,0,0-.3.3v4.08a3.33,3.33,0,0,1-1.54,2.81.3.3,0,0,0-.09.41.3.3,0,0,0,.25.14.29.29,0,0,0,.16,0,3.92,3.92,0,0,0,1.81-3.31V-8.31A.3.3,0,0,0,105.26-8.6Z" transform="translate(1.31 8.6)"/><path class="cls-3" d="M100.57-3.38a.3.3,0,0,0-.3.3.3.3,0,0,0,.3.3h2.1a.3.3,0,0,0,.3-.3.3.3,0,0,0-.3-.3Z" transform="translate(1.31 8.6)"/><path class="cls-3" d="M99.29-4.78H104a.3.3,0,0,0,.3-.3.3.3,0,0,0-.3-.3H99.29a.3.3,0,0,0-.3.3A.3.3,0,0,0,99.29-4.78Z" transform="translate(1.31 8.6)"/><path class="cls-3" d="M99.29-6.78H104a.3.3,0,0,0,.3-.3.3.3,0,0,0-.3-.3H99.29a.3.3,0,0,0-.3.3A.3.3,0,0,0,99.29-6.78Z" transform="translate(1.31 8.6)"/><path class="cls-3" d="M102.67,2.2a.3.3,0,1,0,0-.59h-2.1a.3.3,0,1,0,0,.59Z" transform="translate(1.31 8.6)"/><path class="cls-3" d="M99.16,3.91a.3.3,0,0,0,.3.3h4.34a.3.3,0,1,0,0-.59H99.45A.3.3,0,0,0,99.16,3.91Z" transform="translate(1.31 8.6)"/><path class="cls-3" d="M104,5.61H99.29a.3.3,0,0,0,0,.59H104a.3.3,0,0,0,0-.59Z" transform="translate(1.31 8.6)"/><path d="M112.62-.88a3.35,3.35,0,0,1-3.34-3.34V-8.31a.3.3,0,0,0-.3-.3.3.3,0,0,0-.3.3v4.08a3.94,3.94,0,0,0,3.94,3.94A3.35,3.35,0,0,1,116,3.05V7.14a.3.3,0,0,0,.59,0V3.05A3.94,3.94,0,0,0,112.62-.88Z" transform="translate(1.31 8.6)"/><path d="M110.82.24a.3.3,0,0,0,.09-.41.3.3,0,0,0-.41-.09,3.92,3.92,0,0,0-1.81,3.31V7.14a.3.3,0,0,0,.59,0V3.05A3.33,3.33,0,0,1,110.82.24Z" transform="translate(1.31 8.6)"/><path d="M116.26-8.6a.3.3,0,0,0-.3.3v4.08a3.33,3.33,0,0,1-1.54,2.81.3.3,0,0,0-.09.41.3.3,0,0,0,.25.14.29.29,0,0,0,.16,0,3.92,3.92,0,0,0,1.81-3.31V-8.31A.3.3,0,0,0,116.26-8.6Z" transform="translate(1.31 8.6)"/><path class="cls-3" d="M111.57-3.38a.3.3,0,0,0-.3.3.3.3,0,0,0,.3.3h2.1a.3.3,0,0,0,.3-.3.3.3,0,0,0-.3-.3Z" transform="translate(1.31 8.6)"/><path class="cls-3" d="M110.29-4.78H115a.3.3,0,0,0,.3-.3.3.3,0,0,0-.3-.3h-4.67a.3.3,0,0,0-.3.3A.3.3,0,0,0,110.29-4.78Z" transform="translate(1.31 8.6)"/><path class="cls-3" d="M110.29-6.78H115a.3.3,0,0,0,.3-.3.3.3,0,0,0-.3-.3h-4.67a.3.3,0,0,0-.3.3A.3.3,0,0,0,110.29-6.78Z" transform="translate(1.31 8.6)"/><path class="cls-3" d="M113.67,2.2a.3.3,0,1,0,0-.59h-2.1a.3.3,0,1,0,0,.59Z" transform="translate(1.31 8.6)"/><path class="cls-3" d="M110.16,3.91a.3.3,0,0,0,.3.3h4.34a.3.3,0,1,0,0-.59h-4.34A.3.3,0,0,0,110.16,3.91Z" transform="translate(1.31 8.6)"/><path class="cls-3" d="M115,5.61h-4.67a.3.3,0,0,0,0,.59H115a.3.3,0,0,0,0-.59Z" transform="translate(1.31 8.6)"/><path d="M123.62-.88a3.35,3.35,0,0,1-3.34-3.34V-8.31a.3.3,0,0,0-.3-.3.3.3,0,0,0-.3.3v4.08a3.94,3.94,0,0,0,3.94,3.94A3.35,3.35,0,0,1,127,3.05V7.14a.3.3,0,0,0,.59,0V3.05A3.94,3.94,0,0,0,123.62-.88Z" transform="translate(1.31 8.6)"/><path d="M121.82.24a.3.3,0,0,0,.09-.41.3.3,0,0,0-.41-.09,3.92,3.92,0,0,0-1.81,3.31V7.14a.3.3,0,0,0,.59,0V3.05A3.33,3.33,0,0,1,121.82.24Z" transform="translate(1.31 8.6)"/><path d="M127.26-8.6a.3.3,0,0,0-.3.3v4.08a3.33,3.33,0,0,1-1.54,2.81.3.3,0,0,0-.09.41.3.3,0,0,0,.25.14.29.29,0,0,0,.16,0,3.92,3.92,0,0,0,1.81-3.31V-8.31A.3.3,0,0,0,127.26-8.6Z" transform="translate(1.31 8.6)"/><path class="cls-3" d="M122.57-3.38a.3.3,0,0,0-.3.3.3.3,0,0,0,.3.3h2.1a.3.3,0,0,0,.3-.3.3.3,0,0,0-.3-.3Z" transform="translate(1.31 8.6)"/><path class="cls-3" d="M121.29-4.78H126a.3.3,0,0,0,.3-.3.3.3,0,0,0-.3-.3h-4.67a.3.3,0,0,0-.3.3A.3.3,0,0,0,121.29-4.78Z" transform="translate(1.31 8.6)"/><path class="cls-3" d="M121.29-6.78H126a.3.3,0,0,0,.3-.3.3.3,0,0,0-.3-.3h-4.67a.3.3,0,0,0-.3.3A.3.3,0,0,0,121.29-6.78Z" transform="translate(1.31 8.6)"/><path class="cls-3" d="M124.67,2.2a.3.3,0,1,0,0-.59h-2.1a.3.3,0,1,0,0,.59Z" transform="translate(1.31 8.6)"/><path class="cls-3" d="M121.16,3.91a.3.3,0,0,0,.3.3h4.34a.3.3,0,1,0,0-.59h-4.34A.3.3,0,0,0,121.16,3.91Z" transform="translate(1.31 8.6)"/><path class="cls-3" d="M126,5.61h-4.67a.3.3,0,0,0,0,.59H126a.3.3,0,0,0,0-.59Z" transform="translate(1.31 8.6)"/><path d="M2.62,89.12A3.35,3.35,0,0,1-.72,85.77V81.69a.3.3,0,0,0-.3-.3.3.3,0,0,0-.3.3v4.08a3.94,3.94,0,0,0,3.94,3.94A3.35,3.35,0,0,1,6,93.05v4.09a.3.3,0,0,0,.59,0V93.05A3.94,3.94,0,0,0,2.62,89.12Z" transform="translate(1.31 8.6)"/><path d="M.82,90.24a.3.3,0,0,0-.32-.5,3.92,3.92,0,0,0-1.81,3.31v4.09a.3.3,0,0,0,.3.3.3.3,0,0,0,.3-.3V93.05A3.33,3.33,0,0,1,.82,90.24Z" transform="translate(1.31 8.6)"/><path d="M6.26,81.4a.3.3,0,0,0-.3.3v4.08a3.33,3.33,0,0,1-1.54,2.81.3.3,0,1,0,.32.5,3.92,3.92,0,0,0,1.81-3.31V81.69A.3.3,0,0,0,6.26,81.4Z" transform="translate(1.31 8.6)"/><path class="cls-4" d="M1.57,86.62a.3.3,0,1,0,0,.59h2.1a.3.3,0,0,0,0-.59Z" transform="translate(1.31 8.6)"/><path class="cls-4" d="M.29,85.22H5a.3.3,0,0,0,0-.59H.29a.3.3,0,0,0,0,.59Z" transform="translate(1.31 8.6)"/><path class="cls-4" d="M.29,83.22H5a.3.3,0,0,0,0-.59H.29a.3.3,0,0,0,0,.59Z" transform="translate(1.31 8.6)"/><path class="cls-4" d="M3.67,92.2a.3.3,0,1,0,0-.59H1.57a.3.3,0,1,0,0,.59Z" transform="translate(1.31 8.6)"/><path class="cls-4" d="M.16,93.91a.3.3,0,0,0,.3.3H4.79a.3.3,0,1,0,0-.59H.45A.3.3,0,0,0,.16,93.91Z" transform="translate(1.31 8.6)"/><path class="cls-4" d="M5,95.61H.29a.3.3,0,0,0,0,.59H5a.3.3,0,0,0,0-.59Z" transform="translate(1.31 8.6)"/><path d="M13.62,89.12a3.35,3.35,0,0,1-3.34-3.34V81.69a.3.3,0,1,0-.59,0v4.08a3.94,3.94,0,0,0,3.94,3.94A3.35,3.35,0,0,1,17,93.05v4.09a.3.3,0,0,0,.59,0V93.05A3.94,3.94,0,0,0,13.62,89.12Z" transform="translate(1.31 8.6)"/><path d="M11.82,90.24a.3.3,0,1,0-.32-.5,3.92,3.92,0,0,0-1.81,3.31v4.09a.3.3,0,0,0,.59,0V93.05A3.33,3.33,0,0,1,11.82,90.24Z" transform="translate(1.31 8.6)"/><path d="M17.26,81.4a.3.3,0,0,0-.3.3v4.08a3.33,3.33,0,0,1-1.54,2.81.3.3,0,1,0,.32.5,3.92,3.92,0,0,0,1.81-3.31V81.69A.3.3,0,0,0,17.26,81.4Z" transform="translate(1.31 8.6)"/><path class="cls-4" d="M12.57,86.62a.3.3,0,0,0,0,.59h2.1a.3.3,0,1,0,0-.59Z" transform="translate(1.31 8.6)"/><path class="cls-4" d="M11.29,85.22H16a.3.3,0,0,0,0-.59H11.29a.3.3,0,0,0,0,.59Z" transform="translate(1.31 8.6)"/><path class="cls-4" d="M11.29,83.22H16a.3.3,0,0,0,0-.59H11.29a.3.3,0,0,0,0,.59Z" transform="translate(1.31 8.6)"/><path class="cls-4" d="M14.67,92.2a.3.3,0,1,0,0-.59h-2.1a.3.3,0,1,0,0,.59Z" transform="translate(1.31 8.6)"/><path class="cls-4" d="M11.16,93.91a.3.3,0,0,0,.3.3h4.34a.3.3,0,1,0,0-.59H11.45A.3.3,0,0,0,11.16,93.91Z" transform="translate(1.31 8.6)"/><path class="cls-4" d="M16,95.61H11.29a.3.3,0,0,0,0,.59H16a.3.3,0,0,0,0-.59Z" transform="translate(1.31 8.6)"/><path d="M24.62,89.12a3.35,3.35,0,0,1-3.34-3.34V81.69a.3.3,0,1,0-.59,0v4.08a3.94,3.94,0,0,0,3.94,3.94A3.35,3.35,0,0,1,28,93.05v4.09a.3.3,0,0,0,.59,0V93.05A3.94,3.94,0,0,0,24.62,89.12Z" transform="translate(1.31 8.6)"/><path d="M22.82,90.24a.3.3,0,1,0-.32-.5,3.92,3.92,0,0,0-1.81,3.31v4.09a.3.3,0,0,0,.59,0V93.05A3.33,3.33,0,0,1,22.82,90.24Z" transform="translate(1.31 8.6)"/><path d="M28.26,81.4a.3.3,0,0,0-.3.3v4.08a3.33,3.33,0,0,1-1.54,2.81.3.3,0,1,0,.32.5,3.92,3.92,0,0,0,1.81-3.31V81.69A.3.3,0,0,0,28.26,81.4Z" transform="translate(1.31 8.6)"/><path class="cls-4" d="M23.57,86.62a.3.3,0,0,0,0,.59h2.1a.3.3,0,0,0,0-.59Z" transform="translate(1.31 8.6)"/><path class="cls-4" d="M22.29,85.22H27a.3.3,0,0,0,0-.59H22.29a.3.3,0,0,0,0,.59Z" transform="translate(1.31 8.6)"/><path class="cls-4" d="M22.29,83.22H27a.3.3,0,0,0,0-.59H22.29a.3.3,0,0,0,0,.59Z" transform="translate(1.31 8.6)"/><path class="cls-4" d="M25.67,92.2a.3.3,0,1,0,0-.59h-2.1a.3.3,0,1,0,0,.59Z" transform="translate(1.31 8.6)"/><path class="cls-4" d="M22.16,93.91a.3.3,0,0,0,.3.3h4.34a.3.3,0,1,0,0-.59H22.45A.3.3,0,0,0,22.16,93.91Z" transform="translate(1.31 8.6)"/><path class="cls-4" d="M27,95.61H22.29a.3.3,0,0,0,0,.59H27a.3.3,0,0,0,0-.59Z" transform="translate(1.31 8.6)"/><path d="M35.62,89.12a3.35,3.35,0,0,1-3.34-3.34V81.69a.3.3,0,1,0-.59,0v4.08a3.94,3.94,0,0,0,3.94,3.94A3.35,3.35,0,0,1,39,93.05v4.09a.3.3,0,0,0,.59,0V93.05A3.94,3.94,0,0,0,35.62,89.12Z" transform="translate(1.31 8.6)"/><path d="M33.82,90.24a.3.3,0,1,0-.32-.5,3.92,3.92,0,0,0-1.81,3.31v4.09a.3.3,0,0,0,.59,0V93.05A3.33,3.33,0,0,1,33.82,90.24Z" transform="translate(1.31 8.6)"/><path d="M39.26,81.4a.3.3,0,0,0-.3.3v4.08a3.33,3.33,0,0,1-1.54,2.81.3.3,0,1,0,.32.5,3.92,3.92,0,0,0,1.81-3.31V81.69A.3.3,0,0,0,39.26,81.4Z" transform="translate(1.31 8.6)"/><path class="cls-4" d="M34.57,86.62a.3.3,0,0,0,0,.59h2.1a.3.3,0,1,0,0-.59Z" transform="translate(1.31 8.6)"/><path class="cls-4" d="M33.29,85.22H38a.3.3,0,0,0,0-.59H33.29a.3.3,0,0,0,0,.59Z" transform="translate(1.31 8.6)"/><path class="cls-4" d="M33.29,83.22H38a.3.3,0,0,0,0-.59H33.29a.3.3,0,0,0,0,.59Z" transform="translate(1.31 8.6)"/><path class="cls-4" d="M36.67,92.2a.3.3,0,1,0,0-.59h-2.1a.3.3,0,1,0,0,.59Z" transform="translate(1.31 8.6)"/><path class="cls-4" d="M33.16,93.91a.3.3,0,0,0,.3.3h4.34a.3.3,0,1,0,0-.59H33.45A.3.3,0,0,0,33.16,93.91Z" transform="translate(1.31 8.6)"/><path class="cls-4" d="M38,95.61H33.29a.3.3,0,0,0,0,.59H38a.3.3,0,0,0,0-.59Z" transform="translate(1.31 8.6)"/><path d="M46.62,89.12a3.35,3.35,0,0,1-3.34-3.34V81.69a.3.3,0,1,0-.59,0v4.08a3.94,3.94,0,0,0,3.94,3.94A3.35,3.35,0,0,1,50,93.05v4.09a.3.3,0,0,0,.59,0V93.05A3.94,3.94,0,0,0,46.62,89.12Z" transform="translate(1.31 8.6)"/><path d="M44.82,90.24a.3.3,0,1,0-.32-.5,3.92,3.92,0,0,0-1.81,3.31v4.09a.3.3,0,0,0,.59,0V93.05A3.33,3.33,0,0,1,44.82,90.24Z" transform="translate(1.31 8.6)"/><path d="M50.26,81.4a.3.3,0,0,0-.3.3v4.08a3.33,3.33,0,0,1-1.54,2.81.3.3,0,1,0,.32.5,3.92,3.92,0,0,0,1.81-3.31V81.69A.3.3,0,0,0,50.26,81.4Z" transform="translate(1.31 8.6)"/><path class="cls-4" d="M45.57,86.62a.3.3,0,0,0,0,.59h2.1a.3.3,0,1,0,0-.59Z" transform="translate(1.31 8.6)"/><path class="cls-4" d="M44.29,85.22H49a.3.3,0,0,0,0-.59H44.29a.3.3,0,0,0,0,.59Z" transform="translate(1.31 8.6)"/><path class="cls-4" d="M44.29,83.22H49a.3.3,0,0,0,0-.59H44.29a.3.3,0,0,0,0,.59Z" transform="translate(1.31 8.6)"/><path class="cls-4" d="M47.67,92.2a.3.3,0,1,0,0-.59h-2.1a.3.3,0,1,0,0,.59Z" transform="translate(1.31 8.6)"/><path class="cls-4" d="M44.16,93.91a.3.3,0,0,0,.3.3h4.34a.3.3,0,1,0,0-.59H44.45A.3.3,0,0,0,44.16,93.91Z" transform="translate(1.31 8.6)"/><path class="cls-4" d="M49,95.61H44.29a.3.3,0,0,0,0,.59H49a.3.3,0,0,0,0-.59Z" transform="translate(1.31 8.6)"/><path d="M57.62,89.12a3.35,3.35,0,0,1-3.34-3.34V81.69a.3.3,0,1,0-.59,0v4.08a3.94,3.94,0,0,0,3.94,3.94A3.35,3.35,0,0,1,61,93.05v4.09a.3.3,0,0,0,.59,0V93.05A3.94,3.94,0,0,0,57.62,89.12Z" transform="translate(1.31 8.6)"/><path d="M55.82,90.24a.3.3,0,1,0-.32-.5,3.92,3.92,0,0,0-1.81,3.31v4.09a.3.3,0,0,0,.59,0V93.05A3.33,3.33,0,0,1,55.82,90.24Z" transform="translate(1.31 8.6)"/><path d="M61.26,81.4a.3.3,0,0,0-.3.3v4.08a3.33,3.33,0,0,1-1.54,2.81.3.3,0,1,0,.32.5,3.92,3.92,0,0,0,1.81-3.31V81.69A.3.3,0,0,0,61.26,81.4Z" transform="translate(1.31 8.6)"/><path class="cls-4" d="M56.57,86.62a.3.3,0,0,0,0,.59h2.1a.3.3,0,0,0,0-.59Z" transform="translate(1.31 8.6)"/><path class="cls-4" d="M55.29,85.22H60a.3.3,0,0,0,0-.59H55.29a.3.3,0,0,0,0,.59Z" transform="translate(1.31 8.6)"/><path class="cls-4" d="M55.29,83.22H60a.3.3,0,0,0,0-.59H55.29a.3.3,0,0,0,0,.59Z" transform="translate(1.31 8.6)"/><path class="cls-4" d="M58.67,92.2a.3.3,0,1,0,0-.59h-2.1a.3.3,0,1,0,0,.59Z" transform="translate(1.31 8.6)"/><path class="cls-4" d="M55.16,93.91a.3.3,0,0,0,.3.3h4.34a.3.3,0,1,0,0-.59H55.45A.3.3,0,0,0,55.16,93.91Z" transform="translate(1.31 8.6)"/><path class="cls-4" d="M60,95.61H55.29a.3.3,0,0,0,0,.59H60a.3.3,0,0,0,0-.59Z" transform="translate(1.31 8.6)"/><path d="M68.62,89.12a3.35,3.35,0,0,1-3.34-3.34V81.69a.3.3,0,1,0-.59,0v4.08a3.94,3.94,0,0,0,3.94,3.94A3.35,3.35,0,0,1,72,93.05v4.09a.3.3,0,0,0,.59,0V93.05A3.94,3.94,0,0,0,68.62,89.12Z" transform="translate(1.31 8.6)"/><path d="M66.82,90.24a.3.3,0,1,0-.32-.5,3.92,3.92,0,0,0-1.81,3.31v4.09a.3.3,0,0,0,.59,0V93.05A3.33,3.33,0,0,1,66.82,90.24Z" transform="translate(1.31 8.6)"/><path d="M72.26,81.4a.3.3,0,0,0-.3.3v4.08a3.33,3.33,0,0,1-1.54,2.81.3.3,0,1,0,.32.5,3.92,3.92,0,0,0,1.81-3.31V81.69A.3.3,0,0,0,72.26,81.4Z" transform="translate(1.31 8.6)"/><path class="cls-4" d="M67.57,86.62a.3.3,0,1,0,0,.59h2.1a.3.3,0,0,0,0-.59Z" transform="translate(1.31 8.6)"/><path class="cls-4" d="M66.29,85.22H71a.3.3,0,0,0,0-.59H66.29a.3.3,0,0,0,0,.59Z" transform="translate(1.31 8.6)"/><path class="cls-4" d="M66.29,83.22H71a.3.3,0,0,0,0-.59H66.29a.3.3,0,0,0,0,.59Z" transform="translate(1.31 8.6)"/><path class="cls-4" d="M69.67,92.2a.3.3,0,1,0,0-.59h-2.1a.3.3,0,1,0,0,.59Z" transform="translate(1.31 8.6)"/><path class="cls-4" d="M66.16,93.91a.3.3,0,0,0,.3.3h4.34a.3.3,0,1,0,0-.59H66.45A.3.3,0,0,0,66.16,93.91Z" transform="translate(1.31 8.6)"/><path class="cls-4" d="M71,95.61H66.29a.3.3,0,0,0,0,.59H71a.3.3,0,0,0,0-.59Z" transform="translate(1.31 8.6)"/><path d="M79.62,89.12a3.35,3.35,0,0,1-3.34-3.34V81.69a.3.3,0,1,0-.59,0v4.08a3.94,3.94,0,0,0,3.94,3.94A3.35,3.35,0,0,1,83,93.05v4.09a.3.3,0,0,0,.59,0V93.05A3.94,3.94,0,0,0,79.62,89.12Z" transform="translate(1.31 8.6)"/><path d="M77.82,90.24a.3.3,0,1,0-.32-.5,3.92,3.92,0,0,0-1.81,3.31v4.09a.3.3,0,0,0,.59,0V93.05A3.33,3.33,0,0,1,77.82,90.24Z" transform="translate(1.31 8.6)"/><path d="M83.26,81.4a.3.3,0,0,0-.3.3v4.08a3.33,3.33,0,0,1-1.54,2.81.3.3,0,1,0,.32.5,3.92,3.92,0,0,0,1.81-3.31V81.69A.3.3,0,0,0,83.26,81.4Z" transform="translate(1.31 8.6)"/><path class="cls-4" d="M78.57,86.62a.3.3,0,1,0,0,.59h2.1a.3.3,0,0,0,0-.59Z" transform="translate(1.31 8.6)"/><path class="cls-4" d="M77.29,85.22H82a.3.3,0,0,0,0-.59H77.29a.3.3,0,0,0,0,.59Z" transform="translate(1.31 8.6)"/><path class="cls-4" d="M77.29,83.22H82a.3.3,0,0,0,0-.59H77.29a.3.3,0,0,0,0,.59Z" transform="translate(1.31 8.6)"/><path class="cls-4" d="M80.67,92.2a.3.3,0,1,0,0-.59h-2.1a.3.3,0,1,0,0,.59Z" transform="translate(1.31 8.6)"/><path class="cls-4" d="M77.16,93.91a.3.3,0,0,0,.3.3h4.34a.3.3,0,1,0,0-.59H77.45A.3.3,0,0,0,77.16,93.91Z" transform="translate(1.31 8.6)"/><path class="cls-4" d="M82,95.61H77.29a.3.3,0,0,0,0,.59H82a.3.3,0,0,0,0-.59Z" transform="translate(1.31 8.6)"/><path d="M90.62,89.12a3.35,3.35,0,0,1-3.34-3.34V81.69a.3.3,0,1,0-.59,0v4.08a3.94,3.94,0,0,0,3.94,3.94A3.35,3.35,0,0,1,94,93.05v4.09a.3.3,0,0,0,.59,0V93.05A3.94,3.94,0,0,0,90.62,89.12Z" transform="translate(1.31 8.6)"/><path d="M88.82,90.24a.3.3,0,1,0-.32-.5,3.92,3.92,0,0,0-1.81,3.31v4.09a.3.3,0,0,0,.59,0V93.05A3.33,3.33,0,0,1,88.82,90.24Z" transform="translate(1.31 8.6)"/><path d="M94.26,81.4a.3.3,0,0,0-.3.3v4.08a3.33,3.33,0,0,1-1.54,2.81.3.3,0,1,0,.32.5,3.92,3.92,0,0,0,1.81-3.31V81.69A.3.3,0,0,0,94.26,81.4Z" transform="translate(1.31 8.6)"/><path class="cls-4" d="M89.57,86.62a.3.3,0,0,0,0,.59h2.1a.3.3,0,0,0,0-.59Z" transform="translate(1.31 8.6)"/><path class="cls-4" d="M88.29,85.22H93a.3.3,0,0,0,0-.59H88.29a.3.3,0,0,0,0,.59Z" transform="translate(1.31 8.6)"/><path class="cls-4" d="M88.29,83.22H93a.3.3,0,0,0,0-.59H88.29a.3.3,0,0,0,0,.59Z" transform="translate(1.31 8.6)"/><path class="cls-4" d="M91.67,92.2a.3.3,0,1,0,0-.59h-2.1a.3.3,0,1,0,0,.59Z" transform="translate(1.31 8.6)"/><path class="cls-4" d="M88.16,93.91a.3.3,0,0,0,.3.3h4.34a.3.3,0,1,0,0-.59H88.45A.3.3,0,0,0,88.16,93.91Z" transform="translate(1.31 8.6)"/><path class="cls-4" d="M93,95.61H88.29a.3.3,0,0,0,0,.59H93a.3.3,0,0,0,0-.59Z" transform="translate(1.31 8.6)"/><path d="M101.62,89.12a3.35,3.35,0,0,1-3.34-3.34V81.69a.3.3,0,1,0-.59,0v4.08a3.94,3.94,0,0,0,3.94,3.94A3.35,3.35,0,0,1,105,93.05v4.09a.3.3,0,0,0,.59,0V93.05A3.94,3.94,0,0,0,101.62,89.12Z" transform="translate(1.31 8.6)"/><path d="M99.82,90.24a.3.3,0,1,0-.32-.5,3.92,3.92,0,0,0-1.81,3.31v4.09a.3.3,0,0,0,.59,0V93.05A3.33,3.33,0,0,1,99.82,90.24Z" transform="translate(1.31 8.6)"/><path d="M105.26,81.4a.3.3,0,0,0-.3.3v4.08a3.33,3.33,0,0,1-1.54,2.81.3.3,0,1,0,.32.5,3.92,3.92,0,0,0,1.81-3.31V81.69A.3.3,0,0,0,105.26,81.4Z" transform="translate(1.31 8.6)"/><path class="cls-4" d="M100.57,86.62a.3.3,0,0,0,0,.59h2.1a.3.3,0,0,0,0-.59Z" transform="translate(1.31 8.6)"/><path class="cls-4" d="M99.29,85.22H104a.3.3,0,0,0,0-.59H99.29a.3.3,0,0,0,0,.59Z" transform="translate(1.31 8.6)"/><path class="cls-4" d="M99.29,83.22H104a.3.3,0,0,0,0-.59H99.29a.3.3,0,0,0,0,.59Z" transform="translate(1.31 8.6)"/><path class="cls-4" d="M102.67,92.2a.3.3,0,1,0,0-.59h-2.1a.3.3,0,1,0,0,.59Z" transform="translate(1.31 8.6)"/><path class="cls-4" d="M99.16,93.91a.3.3,0,0,0,.3.3h4.34a.3.3,0,1,0,0-.59H99.45A.3.3,0,0,0,99.16,93.91Z" transform="translate(1.31 8.6)"/><path class="cls-4" d="M104,95.61H99.29a.3.3,0,0,0,0,.59H104a.3.3,0,0,0,0-.59Z" transform="translate(1.31 8.6)"/><path d="M112.62,89.12a3.35,3.35,0,0,1-3.34-3.34V81.69a.3.3,0,1,0-.59,0v4.08a3.94,3.94,0,0,0,3.94,3.94A3.35,3.35,0,0,1,116,93.05v4.09a.3.3,0,0,0,.59,0V93.05A3.94,3.94,0,0,0,112.62,89.12Z" transform="translate(1.31 8.6)"/><path d="M110.82,90.24a.3.3,0,0,0-.32-.5,3.92,3.92,0,0,0-1.81,3.31v4.09a.3.3,0,0,0,.59,0V93.05A3.33,3.33,0,0,1,110.82,90.24Z" transform="translate(1.31 8.6)"/><path d="M116.26,81.4a.3.3,0,0,0-.3.3v4.08a3.33,3.33,0,0,1-1.54,2.81.3.3,0,1,0,.32.5,3.92,3.92,0,0,0,1.81-3.31V81.69A.3.3,0,0,0,116.26,81.4Z" transform="translate(1.31 8.6)"/><path class="cls-4" d="M111.57,86.62a.3.3,0,0,0,0,.59h2.1a.3.3,0,0,0,0-.59Z" transform="translate(1.31 8.6)"/><path class="cls-4" d="M110.29,85.22H115a.3.3,0,0,0,0-.59h-4.67a.3.3,0,0,0,0,.59Z" transform="translate(1.31 8.6)"/><path class="cls-4" d="M110.29,83.22H115a.3.3,0,0,0,0-.59h-4.67a.3.3,0,0,0,0,.59Z" transform="translate(1.31 8.6)"/><path class="cls-4" d="M113.67,92.2a.3.3,0,1,0,0-.59h-2.1a.3.3,0,1,0,0,.59Z" transform="translate(1.31 8.6)"/><path class="cls-4" d="M110.16,93.91a.3.3,0,0,0,.3.3h4.34a.3.3,0,1,0,0-.59h-4.34A.3.3,0,0,0,110.16,93.91Z" transform="translate(1.31 8.6)"/><path class="cls-4" d="M115,95.61h-4.67a.3.3,0,0,0,0,.59H115a.3.3,0,0,0,0-.59Z" transform="translate(1.31 8.6)"/><path d="M123.62,89.12a3.35,3.35,0,0,1-3.34-3.34V81.69a.3.3,0,1,0-.59,0v4.08a3.94,3.94,0,0,0,3.94,3.94A3.35,3.35,0,0,1,127,93.05v4.09a.3.3,0,0,0,.59,0V93.05A3.94,3.94,0,0,0,123.62,89.12Z" transform="translate(1.31 8.6)"/><path d="M121.82,90.24a.3.3,0,0,0-.32-.5,3.92,3.92,0,0,0-1.81,3.31v4.09a.3.3,0,0,0,.59,0V93.05A3.33,3.33,0,0,1,121.82,90.24Z" transform="translate(1.31 8.6)"/><path d="M127.26,81.4a.3.3,0,0,0-.3.3v4.08a3.33,3.33,0,0,1-1.54,2.81.3.3,0,1,0,.32.5,3.92,3.92,0,0,0,1.81-3.31V81.69A.3.3,0,0,0,127.26,81.4Z" transform="translate(1.31 8.6)"/><path class="cls-4" d="M122.57,86.62a.3.3,0,0,0,0,.59h2.1a.3.3,0,1,0,0-.59Z" transform="translate(1.31 8.6)"/><path class="cls-4" d="M121.29,85.22H126a.3.3,0,0,0,0-.59h-4.67a.3.3,0,0,0,0,.59Z" transform="translate(1.31 8.6)"/><path class="cls-4" d="M121.29,83.22H126a.3.3,0,0,0,0-.59h-4.67a.3.3,0,0,0,0,.59Z" transform="translate(1.31 8.6)"/><path class="cls-4" d="M124.67,92.2a.3.3,0,1,0,0-.59h-2.1a.3.3,0,1,0,0,.59Z" transform="translate(1.31 8.6)"/><path class="cls-4" d="M121.16,93.91a.3.3,0,0,0,.3.3h4.34a.3.3,0,1,0,0-.59h-4.34A.3.3,0,0,0,121.16,93.91Z" transform="translate(1.31 8.6)"/><path class="cls-4" d="M126,95.61h-4.67a.3.3,0,0,0,0,.59H126a.3.3,0,0,0,0-.59Z" transform="translate(1.31 8.6)"/><path d="M2.62,35.12A3.35,3.35,0,0,1-.72,31.77V27.69a.3.3,0,0,0-.3-.3.3.3,0,0,0-.3.3v4.08a3.94,3.94,0,0,0,3.94,3.94A3.35,3.35,0,0,1,6,39.05v4.09a.3.3,0,0,0,.59,0V39.05A3.94,3.94,0,0,0,2.62,35.12Z" transform="translate(1.31 8.6)"/><path d="M.82,36.24a.3.3,0,0,0-.32-.5,3.92,3.92,0,0,0-1.81,3.31v4.09a.3.3,0,0,0,.3.3.3.3,0,0,0,.3-.3V39.05A3.33,3.33,0,0,1,.82,36.24Z" transform="translate(1.31 8.6)"/><path d="M6.26,27.4a.3.3,0,0,0-.3.3v4.08a3.33,3.33,0,0,1-1.54,2.81.3.3,0,1,0,.32.5,3.92,3.92,0,0,0,1.81-3.31V27.69A.3.3,0,0,0,6.26,27.4Z" transform="translate(1.31 8.6)"/><path class="cls-4" d="M1.57,32.62a.3.3,0,1,0,0,.59h2.1a.3.3,0,0,0,0-.59Z" transform="translate(1.31 8.6)"/><path class="cls-4" d="M.29,31.22H5a.3.3,0,0,0,0-.59H.29a.3.3,0,0,0,0,.59Z" transform="translate(1.31 8.6)"/><path class="cls-4" d="M.29,29.22H5a.3.3,0,0,0,0-.59H.29a.3.3,0,0,0,0,.59Z" transform="translate(1.31 8.6)"/><path class="cls-4" d="M3.67,38.2a.3.3,0,1,0,0-.59H1.57a.3.3,0,1,0,0,.59Z" transform="translate(1.31 8.6)"/><path class="cls-4" d="M.16,39.91a.3.3,0,0,0,.3.3H4.79a.3.3,0,1,0,0-.59H.45A.3.3,0,0,0,.16,39.91Z" transform="translate(1.31 8.6)"/><path class="cls-4" d="M5,41.61H.29a.3.3,0,0,0,0,.59H5a.3.3,0,0,0,0-.59Z" transform="translate(1.31 8.6)"/><path d="M13.62,35.12a3.35,3.35,0,0,1-3.34-3.34V27.69a.3.3,0,1,0-.59,0v4.08a3.94,3.94,0,0,0,3.94,3.94A3.35,3.35,0,0,1,17,39.05v4.09a.3.3,0,0,0,.59,0V39.05A3.94,3.94,0,0,0,13.62,35.12Z" transform="translate(1.31 8.6)"/><path d="M11.82,36.24a.3.3,0,1,0-.32-.5,3.92,3.92,0,0,0-1.81,3.31v4.09a.3.3,0,0,0,.59,0V39.05A3.33,3.33,0,0,1,11.82,36.24Z" transform="translate(1.31 8.6)"/><path d="M17.26,27.4a.3.3,0,0,0-.3.3v4.08a3.33,3.33,0,0,1-1.54,2.81.3.3,0,1,0,.32.5,3.92,3.92,0,0,0,1.81-3.31V27.69A.3.3,0,0,0,17.26,27.4Z" transform="translate(1.31 8.6)"/><path class="cls-4" d="M12.57,32.62a.3.3,0,0,0,0,.59h2.1a.3.3,0,1,0,0-.59Z" transform="translate(1.31 8.6)"/><path class="cls-4" d="M11.29,31.22H16a.3.3,0,0,0,0-.59H11.29a.3.3,0,0,0,0,.59Z" transform="translate(1.31 8.6)"/><path class="cls-4" d="M11.29,29.22H16a.3.3,0,0,0,0-.59H11.29a.3.3,0,0,0,0,.59Z" transform="translate(1.31 8.6)"/><path class="cls-4" d="M14.67,38.2a.3.3,0,1,0,0-.59h-2.1a.3.3,0,1,0,0,.59Z" transform="translate(1.31 8.6)"/><path class="cls-4" d="M11.16,39.91a.3.3,0,0,0,.3.3h4.34a.3.3,0,1,0,0-.59H11.45A.3.3,0,0,0,11.16,39.91Z" transform="translate(1.31 8.6)"/><path class="cls-4" d="M16,41.61H11.29a.3.3,0,0,0,0,.59H16a.3.3,0,0,0,0-.59Z" transform="translate(1.31 8.6)"/><path d="M24.62,35.12a3.35,3.35,0,0,1-3.34-3.34V27.69a.3.3,0,1,0-.59,0v4.08a3.94,3.94,0,0,0,3.94,3.94A3.35,3.35,0,0,1,28,39.05v4.09a.3.3,0,0,0,.59,0V39.05A3.94,3.94,0,0,0,24.62,35.12Z" transform="translate(1.31 8.6)"/><path d="M22.82,36.24a.3.3,0,1,0-.32-.5,3.92,3.92,0,0,0-1.81,3.31v4.09a.3.3,0,0,0,.59,0V39.05A3.33,3.33,0,0,1,22.82,36.24Z" transform="translate(1.31 8.6)"/><path d="M28.26,27.4a.3.3,0,0,0-.3.3v4.08a3.33,3.33,0,0,1-1.54,2.81.3.3,0,1,0,.32.5,3.92,3.92,0,0,0,1.81-3.31V27.69A.3.3,0,0,0,28.26,27.4Z" transform="translate(1.31 8.6)"/><path class="cls-4" d="M23.57,32.62a.3.3,0,0,0,0,.59h2.1a.3.3,0,1,0,0-.59Z" transform="translate(1.31 8.6)"/><path class="cls-4" d="M22.29,31.22H27a.3.3,0,0,0,0-.59H22.29a.3.3,0,0,0,0,.59Z" transform="translate(1.31 8.6)"/><path class="cls-4" d="M22.29,29.22H27a.3.3,0,0,0,0-.59H22.29a.3.3,0,0,0,0,.59Z" transform="translate(1.31 8.6)"/><path class="cls-4" d="M25.67,38.2a.3.3,0,1,0,0-.59h-2.1a.3.3,0,1,0,0,.59Z" transform="translate(1.31 8.6)"/><path class="cls-4" d="M22.16,39.91a.3.3,0,0,0,.3.3h4.34a.3.3,0,1,0,0-.59H22.45A.3.3,0,0,0,22.16,39.91Z" transform="translate(1.31 8.6)"/><path class="cls-4" d="M27,41.61H22.29a.3.3,0,0,0,0,.59H27a.3.3,0,0,0,0-.59Z" transform="translate(1.31 8.6)"/><path d="M35.62,35.12a3.35,3.35,0,0,1-3.34-3.34V27.69a.3.3,0,1,0-.59,0v4.08a3.94,3.94,0,0,0,3.94,3.94A3.35,3.35,0,0,1,39,39.05v4.09a.3.3,0,0,0,.59,0V39.05A3.94,3.94,0,0,0,35.62,35.12Z" transform="translate(1.31 8.6)"/><path d="M33.82,36.24a.3.3,0,1,0-.32-.5,3.92,3.92,0,0,0-1.81,3.31v4.09a.3.3,0,0,0,.59,0V39.05A3.33,3.33,0,0,1,33.82,36.24Z" transform="translate(1.31 8.6)"/><path d="M39.26,27.4a.3.3,0,0,0-.3.3v4.08a3.33,3.33,0,0,1-1.54,2.81.3.3,0,1,0,.32.5,3.92,3.92,0,0,0,1.81-3.31V27.69A.3.3,0,0,0,39.26,27.4Z" transform="translate(1.31 8.6)"/><path class="cls-4" d="M34.57,32.62a.3.3,0,0,0,0,.59h2.1a.3.3,0,1,0,0-.59Z" transform="translate(1.31 8.6)"/><path class="cls-4" d="M33.29,31.22H38a.3.3,0,0,0,0-.59H33.29a.3.3,0,0,0,0,.59Z" transform="translate(1.31 8.6)"/><path class="cls-4" d="M33.29,29.22H38a.3.3,0,0,0,0-.59H33.29a.3.3,0,0,0,0,.59Z" transform="translate(1.31 8.6)"/><path class="cls-4" d="M36.67,38.2a.3.3,0,1,0,0-.59h-2.1a.3.3,0,1,0,0,.59Z" transform="translate(1.31 8.6)"/><path class="cls-4" d="M33.16,39.91a.3.3,0,0,0,.3.3h4.34a.3.3,0,1,0,0-.59H33.45A.3.3,0,0,0,33.16,39.91Z" transform="translate(1.31 8.6)"/><path class="cls-4" d="M38,41.61H33.29a.3.3,0,0,0,0,.59H38a.3.3,0,0,0,0-.59Z" transform="translate(1.31 8.6)"/><path d="M46.62,35.12a3.35,3.35,0,0,1-3.34-3.34V27.69a.3.3,0,1,0-.59,0v4.08a3.94,3.94,0,0,0,3.94,3.94A3.35,3.35,0,0,1,50,39.05v4.09a.3.3,0,0,0,.59,0V39.05A3.94,3.94,0,0,0,46.62,35.12Z" transform="translate(1.31 8.6)"/><path d="M44.82,36.24a.3.3,0,1,0-.32-.5,3.92,3.92,0,0,0-1.81,3.31v4.09a.3.3,0,0,0,.59,0V39.05A3.33,3.33,0,0,1,44.82,36.24Z" transform="translate(1.31 8.6)"/><path d="M50.26,27.4a.3.3,0,0,0-.3.3v4.08a3.33,3.33,0,0,1-1.54,2.81.3.3,0,1,0,.32.5,3.92,3.92,0,0,0,1.81-3.31V27.69A.3.3,0,0,0,50.26,27.4Z" transform="translate(1.31 8.6)"/><path class="cls-4" d="M45.57,32.62a.3.3,0,0,0,0,.59h2.1a.3.3,0,1,0,0-.59Z" transform="translate(1.31 8.6)"/><path class="cls-4" d="M44.29,31.22H49a.3.3,0,0,0,0-.59H44.29a.3.3,0,0,0,0,.59Z" transform="translate(1.31 8.6)"/><path class="cls-4" d="M44.29,29.22H49a.3.3,0,0,0,0-.59H44.29a.3.3,0,0,0,0,.59Z" transform="translate(1.31 8.6)"/><path class="cls-4" d="M47.67,38.2a.3.3,0,1,0,0-.59h-2.1a.3.3,0,1,0,0,.59Z" transform="translate(1.31 8.6)"/><path class="cls-4" d="M44.16,39.91a.3.3,0,0,0,.3.3h4.34a.3.3,0,1,0,0-.59H44.45A.3.3,0,0,0,44.16,39.91Z" transform="translate(1.31 8.6)"/><path class="cls-4" d="M49,41.61H44.29a.3.3,0,0,0,0,.59H49a.3.3,0,0,0,0-.59Z" transform="translate(1.31 8.6)"/><path d="M57.62,35.12a3.35,3.35,0,0,1-3.34-3.34V27.69a.3.3,0,1,0-.59,0v4.08a3.94,3.94,0,0,0,3.94,3.94A3.35,3.35,0,0,1,61,39.05v4.09a.3.3,0,0,0,.59,0V39.05A3.94,3.94,0,0,0,57.62,35.12Z" transform="translate(1.31 8.6)"/><path d="M55.82,36.24a.3.3,0,1,0-.32-.5,3.92,3.92,0,0,0-1.81,3.31v4.09a.3.3,0,0,0,.59,0V39.05A3.33,3.33,0,0,1,55.82,36.24Z" transform="translate(1.31 8.6)"/><path d="M61.26,27.4a.3.3,0,0,0-.3.3v4.08a3.33,3.33,0,0,1-1.54,2.81.3.3,0,1,0,.32.5,3.92,3.92,0,0,0,1.81-3.31V27.69A.3.3,0,0,0,61.26,27.4Z" transform="translate(1.31 8.6)"/><path class="cls-4" d="M56.57,32.62a.3.3,0,0,0,0,.59h2.1a.3.3,0,1,0,0-.59Z" transform="translate(1.31 8.6)"/><path class="cls-4" d="M55.29,31.22H60a.3.3,0,0,0,0-.59H55.29a.3.3,0,0,0,0,.59Z" transform="translate(1.31 8.6)"/><path class="cls-4" d="M55.29,29.22H60a.3.3,0,0,0,0-.59H55.29a.3.3,0,0,0,0,.59Z" transform="translate(1.31 8.6)"/><path class="cls-4" d="M58.67,38.2a.3.3,0,1,0,0-.59h-2.1a.3.3,0,1,0,0,.59Z" transform="translate(1.31 8.6)"/><path class="cls-4" d="M55.16,39.91a.3.3,0,0,0,.3.3h4.34a.3.3,0,1,0,0-.59H55.45A.3.3,0,0,0,55.16,39.91Z" transform="translate(1.31 8.6)"/><path class="cls-4" d="M60,41.61H55.29a.3.3,0,0,0,0,.59H60a.3.3,0,0,0,0-.59Z" transform="translate(1.31 8.6)"/><path d="M68.62,35.12a3.35,3.35,0,0,1-3.34-3.34V27.69a.3.3,0,1,0-.59,0v4.08a3.94,3.94,0,0,0,3.94,3.94A3.35,3.35,0,0,1,72,39.05v4.09a.3.3,0,0,0,.59,0V39.05A3.94,3.94,0,0,0,68.62,35.12Z" transform="translate(1.31 8.6)"/><path d="M66.82,36.24a.3.3,0,1,0-.32-.5,3.92,3.92,0,0,0-1.81,3.31v4.09a.3.3,0,0,0,.59,0V39.05A3.33,3.33,0,0,1,66.82,36.24Z" transform="translate(1.31 8.6)"/><path d="M72.26,27.4a.3.3,0,0,0-.3.3v4.08a3.33,3.33,0,0,1-1.54,2.81.3.3,0,1,0,.32.5,3.92,3.92,0,0,0,1.81-3.31V27.69A.3.3,0,0,0,72.26,27.4Z" transform="translate(1.31 8.6)"/><path class="cls-4" d="M67.57,32.62a.3.3,0,1,0,0,.59h2.1a.3.3,0,0,0,0-.59Z" transform="translate(1.31 8.6)"/><path class="cls-4" d="M66.29,31.22H71a.3.3,0,0,0,0-.59H66.29a.3.3,0,0,0,0,.59Z" transform="translate(1.31 8.6)"/><path class="cls-4" d="M66.29,29.22H71a.3.3,0,0,0,0-.59H66.29a.3.3,0,0,0,0,.59Z" transform="translate(1.31 8.6)"/><path class="cls-4" d="M69.67,38.2a.3.3,0,1,0,0-.59h-2.1a.3.3,0,1,0,0,.59Z" transform="translate(1.31 8.6)"/><path class="cls-4" d="M66.16,39.91a.3.3,0,0,0,.3.3h4.34a.3.3,0,1,0,0-.59H66.45A.3.3,0,0,0,66.16,39.91Z" transform="translate(1.31 8.6)"/><path class="cls-4" d="M71,41.61H66.29a.3.3,0,0,0,0,.59H71a.3.3,0,0,0,0-.59Z" transform="translate(1.31 8.6)"/><path d="M79.62,35.12a3.35,3.35,0,0,1-3.34-3.34V27.69a.3.3,0,1,0-.59,0v4.08a3.94,3.94,0,0,0,3.94,3.94A3.35,3.35,0,0,1,83,39.05v4.09a.3.3,0,0,0,.59,0V39.05A3.94,3.94,0,0,0,79.62,35.12Z" transform="translate(1.31 8.6)"/><path d="M77.82,36.24a.3.3,0,1,0-.32-.5,3.92,3.92,0,0,0-1.81,3.31v4.09a.3.3,0,0,0,.59,0V39.05A3.33,3.33,0,0,1,77.82,36.24Z" transform="translate(1.31 8.6)"/><path d="M83.26,27.4a.3.3,0,0,0-.3.3v4.08a3.33,3.33,0,0,1-1.54,2.81.3.3,0,1,0,.32.5,3.92,3.92,0,0,0,1.81-3.31V27.69A.3.3,0,0,0,83.26,27.4Z" transform="translate(1.31 8.6)"/><path class="cls-4" d="M78.57,32.62a.3.3,0,1,0,0,.59h2.1a.3.3,0,0,0,0-.59Z" transform="translate(1.31 8.6)"/><path class="cls-4" d="M77.29,31.22H82a.3.3,0,0,0,0-.59H77.29a.3.3,0,0,0,0,.59Z" transform="translate(1.31 8.6)"/><path class="cls-4" d="M77.29,29.22H82a.3.3,0,0,0,0-.59H77.29a.3.3,0,0,0,0,.59Z" transform="translate(1.31 8.6)"/><path class="cls-4" d="M80.67,38.2a.3.3,0,1,0,0-.59h-2.1a.3.3,0,1,0,0,.59Z" transform="translate(1.31 8.6)"/><path class="cls-4" d="M77.16,39.91a.3.3,0,0,0,.3.3h4.34a.3.3,0,1,0,0-.59H77.45A.3.3,0,0,0,77.16,39.91Z" transform="translate(1.31 8.6)"/><path class="cls-4" d="M82,41.61H77.29a.3.3,0,0,0,0,.59H82a.3.3,0,0,0,0-.59Z" transform="translate(1.31 8.6)"/><path d="M90.62,35.12a3.35,3.35,0,0,1-3.34-3.34V27.69a.3.3,0,1,0-.59,0v4.08a3.94,3.94,0,0,0,3.94,3.94A3.35,3.35,0,0,1,94,39.05v4.09a.3.3,0,0,0,.59,0V39.05A3.94,3.94,0,0,0,90.62,35.12Z" transform="translate(1.31 8.6)"/><path d="M88.82,36.24a.3.3,0,1,0-.32-.5,3.92,3.92,0,0,0-1.81,3.31v4.09a.3.3,0,0,0,.59,0V39.05A3.33,3.33,0,0,1,88.82,36.24Z" transform="translate(1.31 8.6)"/><path d="M94.26,27.4a.3.3,0,0,0-.3.3v4.08a3.33,3.33,0,0,1-1.54,2.81.3.3,0,1,0,.32.5,3.92,3.92,0,0,0,1.81-3.31V27.69A.3.3,0,0,0,94.26,27.4Z" transform="translate(1.31 8.6)"/><path class="cls-4" d="M89.57,32.62a.3.3,0,1,0,0,.59h2.1a.3.3,0,0,0,0-.59Z" transform="translate(1.31 8.6)"/><path class="cls-4" d="M88.29,31.22H93a.3.3,0,0,0,0-.59H88.29a.3.3,0,0,0,0,.59Z" transform="translate(1.31 8.6)"/><path class="cls-4" d="M88.29,29.22H93a.3.3,0,0,0,0-.59H88.29a.3.3,0,0,0,0,.59Z" transform="translate(1.31 8.6)"/><path class="cls-4" d="M91.67,38.2a.3.3,0,1,0,0-.59h-2.1a.3.3,0,1,0,0,.59Z" transform="translate(1.31 8.6)"/><path class="cls-4" d="M88.16,39.91a.3.3,0,0,0,.3.3h4.34a.3.3,0,1,0,0-.59H88.45A.3.3,0,0,0,88.16,39.91Z" transform="translate(1.31 8.6)"/><path class="cls-4" d="M93,41.61H88.29a.3.3,0,0,0,0,.59H93a.3.3,0,0,0,0-.59Z" transform="translate(1.31 8.6)"/><path d="M101.62,35.12a3.35,3.35,0,0,1-3.34-3.34V27.69a.3.3,0,1,0-.59,0v4.08a3.94,3.94,0,0,0,3.94,3.94A3.35,3.35,0,0,1,105,39.05v4.09a.3.3,0,0,0,.59,0V39.05A3.94,3.94,0,0,0,101.62,35.12Z" transform="translate(1.31 8.6)"/><path d="M99.82,36.24a.3.3,0,1,0-.32-.5,3.92,3.92,0,0,0-1.81,3.31v4.09a.3.3,0,0,0,.59,0V39.05A3.33,3.33,0,0,1,99.82,36.24Z" transform="translate(1.31 8.6)"/><path d="M105.26,27.4a.3.3,0,0,0-.3.3v4.08a3.33,3.33,0,0,1-1.54,2.81.3.3,0,1,0,.32.5,3.92,3.92,0,0,0,1.81-3.31V27.69A.3.3,0,0,0,105.26,27.4Z" transform="translate(1.31 8.6)"/><path class="cls-4" d="M100.57,32.62a.3.3,0,0,0,0,.59h2.1a.3.3,0,1,0,0-.59Z" transform="translate(1.31 8.6)"/><path class="cls-4" d="M99.29,31.22H104a.3.3,0,0,0,0-.59H99.29a.3.3,0,0,0,0,.59Z" transform="translate(1.31 8.6)"/><path class="cls-4" d="M99.29,29.22H104a.3.3,0,0,0,0-.59H99.29a.3.3,0,0,0,0,.59Z" transform="translate(1.31 8.6)"/><path class="cls-4" d="M102.67,38.2a.3.3,0,1,0,0-.59h-2.1a.3.3,0,1,0,0,.59Z" transform="translate(1.31 8.6)"/><path class="cls-4" d="M99.16,39.91a.3.3,0,0,0,.3.3h4.34a.3.3,0,1,0,0-.59H99.45A.3.3,0,0,0,99.16,39.91Z" transform="translate(1.31 8.6)"/><path class="cls-4" d="M104,41.61H99.29a.3.3,0,0,0,0,.59H104a.3.3,0,0,0,0-.59Z" transform="translate(1.31 8.6)"/><path d="M112.62,35.12a3.35,3.35,0,0,1-3.34-3.34V27.69a.3.3,0,1,0-.59,0v4.08a3.94,3.94,0,0,0,3.94,3.94A3.35,3.35,0,0,1,116,39.05v4.09a.3.3,0,0,0,.59,0V39.05A3.94,3.94,0,0,0,112.62,35.12Z" transform="translate(1.31 8.6)"/><path d="M110.82,36.24a.3.3,0,0,0-.32-.5,3.92,3.92,0,0,0-1.81,3.31v4.09a.3.3,0,0,0,.59,0V39.05A3.33,3.33,0,0,1,110.82,36.24Z" transform="translate(1.31 8.6)"/><path d="M116.26,27.4a.3.3,0,0,0-.3.3v4.08a3.33,3.33,0,0,1-1.54,2.81.3.3,0,1,0,.32.5,3.92,3.92,0,0,0,1.81-3.31V27.69A.3.3,0,0,0,116.26,27.4Z" transform="translate(1.31 8.6)"/><path class="cls-4" d="M111.57,32.62a.3.3,0,0,0,0,.59h2.1a.3.3,0,1,0,0-.59Z" transform="translate(1.31 8.6)"/><path class="cls-4" d="M110.29,31.22H115a.3.3,0,0,0,0-.59h-4.67a.3.3,0,0,0,0,.59Z" transform="translate(1.31 8.6)"/><path class="cls-4" d="M110.29,29.22H115a.3.3,0,0,0,0-.59h-4.67a.3.3,0,0,0,0,.59Z" transform="translate(1.31 8.6)"/><path class="cls-4" d="M113.67,38.2a.3.3,0,1,0,0-.59h-2.1a.3.3,0,1,0,0,.59Z" transform="translate(1.31 8.6)"/><path class="cls-4" d="M110.16,39.91a.3.3,0,0,0,.3.3h4.34a.3.3,0,1,0,0-.59h-4.34A.3.3,0,0,0,110.16,39.91Z" transform="translate(1.31 8.6)"/><path class="cls-4" d="M115,41.61h-4.67a.3.3,0,0,0,0,.59H115a.3.3,0,0,0,0-.59Z" transform="translate(1.31 8.6)"/><path d="M123.62,35.12a3.35,3.35,0,0,1-3.34-3.34V27.69a.3.3,0,1,0-.59,0v4.08a3.94,3.94,0,0,0,3.94,3.94A3.35,3.35,0,0,1,127,39.05v4.09a.3.3,0,0,0,.59,0V39.05A3.94,3.94,0,0,0,123.62,35.12Z" transform="translate(1.31 8.6)"/><path d="M121.82,36.24a.3.3,0,0,0-.32-.5,3.92,3.92,0,0,0-1.81,3.31v4.09a.3.3,0,0,0,.59,0V39.05A3.33,3.33,0,0,1,121.82,36.24Z" transform="translate(1.31 8.6)"/><path d="M127.26,27.4a.3.3,0,0,0-.3.3v4.08a3.33,3.33,0,0,1-1.54,2.81.3.3,0,1,0,.32.5,3.92,3.92,0,0,0,1.81-3.31V27.69A.3.3,0,0,0,127.26,27.4Z" transform="translate(1.31 8.6)"/><path class="cls-4" d="M122.57,32.62a.3.3,0,0,0,0,.59h2.1a.3.3,0,1,0,0-.59Z" transform="translate(1.31 8.6)"/><path class="cls-4" d="M121.29,31.22H126a.3.3,0,0,0,0-.59h-4.67a.3.3,0,0,0,0,.59Z" transform="translate(1.31 8.6)"/><path class="cls-4" d="M121.29,29.22H126a.3.3,0,0,0,0-.59h-4.67a.3.3,0,0,0,0,.59Z" transform="translate(1.31 8.6)"/><path class="cls-4" d="M124.67,38.2a.3.3,0,1,0,0-.59h-2.1a.3.3,0,1,0,0,.59Z" transform="translate(1.31 8.6)"/><path class="cls-4" d="M121.16,39.91a.3.3,0,0,0,.3.3h4.34a.3.3,0,1,0,0-.59h-4.34A.3.3,0,0,0,121.16,39.91Z" transform="translate(1.31 8.6)"/><path class="cls-4" d="M126,41.61h-4.67a.3.3,0,0,0,0,.59H126a.3.3,0,0,0,0-.59Z" transform="translate(1.31 8.6)"/><path d="M2.62,17.12A3.35,3.35,0,0,1-.72,13.77V9.69A.3.3,0,0,0-1,9.4a.3.3,0,0,0-.3.3v4.08a3.94,3.94,0,0,0,3.94,3.94A3.35,3.35,0,0,1,6,21.05v4.09a.3.3,0,0,0,.59,0V21.05A3.94,3.94,0,0,0,2.62,17.12Z" transform="translate(1.31 8.6)"/><path d="M.82,18.24a.3.3,0,0,0-.32-.5,3.92,3.92,0,0,0-1.81,3.31v4.09a.3.3,0,0,0,.3.3.3.3,0,0,0,.3-.3V21.05A3.33,3.33,0,0,1,.82,18.24Z" transform="translate(1.31 8.6)"/><path d="M6.26,9.4a.3.3,0,0,0-.3.3v4.08a3.33,3.33,0,0,1-1.54,2.81.3.3,0,1,0,.32.5,3.92,3.92,0,0,0,1.81-3.31V9.69A.3.3,0,0,0,6.26,9.4Z" transform="translate(1.31 8.6)"/><path class="cls-5" d="M1.57,14.62a.3.3,0,1,0,0,.59h2.1a.3.3,0,0,0,0-.59Z" transform="translate(1.31 8.6)"/><path class="cls-5" d="M.29,13.22H5a.3.3,0,0,0,0-.59H.29a.3.3,0,0,0,0,.59Z" transform="translate(1.31 8.6)"/><path class="cls-5" d="M.29,11.22H5a.3.3,0,0,0,0-.59H.29a.3.3,0,0,0,0,.59Z" transform="translate(1.31 8.6)"/><path class="cls-5" d="M3.67,20.2a.3.3,0,1,0,0-.59H1.57a.3.3,0,1,0,0,.59Z" transform="translate(1.31 8.6)"/><path class="cls-5" d="M5,21.61H.29a.3.3,0,1,0,0,.59H5a.3.3,0,1,0,0-.59Z" transform="translate(1.31 8.6)"/><path class="cls-5" d="M5,23.72H.29a.3.3,0,0,0,0,.59H5a.3.3,0,0,0,0-.59Z" transform="translate(1.31 8.6)"/><path d="M13.62,17.12a3.35,3.35,0,0,1-3.34-3.34V9.69a.3.3,0,1,0-.59,0v4.08a3.94,3.94,0,0,0,3.94,3.94A3.35,3.35,0,0,1,17,21.05v4.09a.3.3,0,0,0,.59,0V21.05A3.94,3.94,0,0,0,13.62,17.12Z" transform="translate(1.31 8.6)"/><path d="M11.82,18.24a.3.3,0,1,0-.32-.5,3.92,3.92,0,0,0-1.81,3.31v4.09a.3.3,0,0,0,.59,0V21.05A3.33,3.33,0,0,1,11.82,18.24Z" transform="translate(1.31 8.6)"/><path d="M17.26,9.4a.3.3,0,0,0-.3.3v4.08a3.33,3.33,0,0,1-1.54,2.81.3.3,0,1,0,.32.5,3.92,3.92,0,0,0,1.81-3.31V9.69A.3.3,0,0,0,17.26,9.4Z" transform="translate(1.31 8.6)"/><path class="cls-5" d="M12.57,14.62a.3.3,0,0,0,0,.59h2.1a.3.3,0,0,0,0-.59Z" transform="translate(1.31 8.6)"/><path class="cls-5" d="M11.29,13.22H16a.3.3,0,0,0,0-.59H11.29a.3.3,0,0,0,0,.59Z" transform="translate(1.31 8.6)"/><path class="cls-5" d="M11.29,11.22H16a.3.3,0,0,0,0-.59H11.29a.3.3,0,0,0,0,.59Z" transform="translate(1.31 8.6)"/><path class="cls-5" d="M14.67,20.2a.3.3,0,1,0,0-.59h-2.1a.3.3,0,1,0,0,.59Z" transform="translate(1.31 8.6)"/><path class="cls-5" d="M16,21.61H11.29a.3.3,0,1,0,0,.59H16a.3.3,0,1,0,0-.59Z" transform="translate(1.31 8.6)"/><path class="cls-5" d="M16,23.72H11.29a.3.3,0,0,0,0,.59H16a.3.3,0,0,0,0-.59Z" transform="translate(1.31 8.6)"/><path d="M24.62,17.12a3.35,3.35,0,0,1-3.34-3.34V9.69a.3.3,0,1,0-.59,0v4.08a3.94,3.94,0,0,0,3.94,3.94A3.35,3.35,0,0,1,28,21.05v4.09a.3.3,0,0,0,.59,0V21.05A3.94,3.94,0,0,0,24.62,17.12Z" transform="translate(1.31 8.6)"/><path d="M22.82,18.24a.3.3,0,1,0-.32-.5,3.92,3.92,0,0,0-1.81,3.31v4.09a.3.3,0,0,0,.59,0V21.05A3.33,3.33,0,0,1,22.82,18.24Z" transform="translate(1.31 8.6)"/><path d="M28.26,9.4a.3.3,0,0,0-.3.3v4.08a3.33,3.33,0,0,1-1.54,2.81.3.3,0,1,0,.32.5,3.92,3.92,0,0,0,1.81-3.31V9.69A.3.3,0,0,0,28.26,9.4Z" transform="translate(1.31 8.6)"/><path class="cls-5" d="M23.57,14.62a.3.3,0,0,0,0,.59h2.1a.3.3,0,1,0,0-.59Z" transform="translate(1.31 8.6)"/><path class="cls-5" d="M22.29,13.22H27a.3.3,0,0,0,0-.59H22.29a.3.3,0,0,0,0,.59Z" transform="translate(1.31 8.6)"/><path class="cls-5" d="M22.29,11.22H27a.3.3,0,0,0,0-.59H22.29a.3.3,0,0,0,0,.59Z" transform="translate(1.31 8.6)"/><path class="cls-5" d="M25.67,20.2a.3.3,0,1,0,0-.59h-2.1a.3.3,0,1,0,0,.59Z" transform="translate(1.31 8.6)"/><path class="cls-5" d="M27,21.61H22.29a.3.3,0,1,0,0,.59H27a.3.3,0,1,0,0-.59Z" transform="translate(1.31 8.6)"/><path class="cls-5" d="M27,23.72H22.29a.3.3,0,0,0,0,.59H27a.3.3,0,0,0,0-.59Z" transform="translate(1.31 8.6)"/><path d="M35.62,17.12a3.35,3.35,0,0,1-3.34-3.34V9.69a.3.3,0,1,0-.59,0v4.08a3.94,3.94,0,0,0,3.94,3.94A3.35,3.35,0,0,1,39,21.05v4.09a.3.3,0,0,0,.59,0V21.05A3.94,3.94,0,0,0,35.62,17.12Z" transform="translate(1.31 8.6)"/><path d="M33.82,18.24a.3.3,0,1,0-.32-.5,3.92,3.92,0,0,0-1.81,3.31v4.09a.3.3,0,0,0,.59,0V21.05A3.33,3.33,0,0,1,33.82,18.24Z" transform="translate(1.31 8.6)"/><path d="M39.26,9.4a.3.3,0,0,0-.3.3v4.08a3.33,3.33,0,0,1-1.54,2.81.3.3,0,1,0,.32.5,3.92,3.92,0,0,0,1.81-3.31V9.69A.3.3,0,0,0,39.26,9.4Z" transform="translate(1.31 8.6)"/><path class="cls-5" d="M34.57,14.62a.3.3,0,1,0,0,.59h2.1a.3.3,0,1,0,0-.59Z" transform="translate(1.31 8.6)"/><path class="cls-5" d="M33.29,13.22H38a.3.3,0,0,0,0-.59H33.29a.3.3,0,0,0,0,.59Z" transform="translate(1.31 8.6)"/><path class="cls-5" d="M33.29,11.22H38a.3.3,0,0,0,0-.59H33.29a.3.3,0,0,0,0,.59Z" transform="translate(1.31 8.6)"/><path class="cls-5" d="M36.67,20.2a.3.3,0,1,0,0-.59h-2.1a.3.3,0,1,0,0,.59Z" transform="translate(1.31 8.6)"/><path class="cls-5" d="M38,21.61H33.29a.3.3,0,1,0,0,.59H38a.3.3,0,1,0,0-.59Z" transform="translate(1.31 8.6)"/><path class="cls-5" d="M38,23.72H33.29a.3.3,0,0,0,0,.59H38a.3.3,0,0,0,0-.59Z" transform="translate(1.31 8.6)"/><path d="M46.62,17.12a3.35,3.35,0,0,1-3.34-3.34V9.69a.3.3,0,1,0-.59,0v4.08a3.94,3.94,0,0,0,3.94,3.94A3.35,3.35,0,0,1,50,21.05v4.09a.3.3,0,0,0,.59,0V21.05A3.94,3.94,0,0,0,46.62,17.12Z" transform="translate(1.31 8.6)"/><path d="M44.82,18.24a.3.3,0,1,0-.32-.5,3.92,3.92,0,0,0-1.81,3.31v4.09a.3.3,0,0,0,.59,0V21.05A3.33,3.33,0,0,1,44.82,18.24Z" transform="translate(1.31 8.6)"/><path d="M50.26,9.4a.3.3,0,0,0-.3.3v4.08a3.33,3.33,0,0,1-1.54,2.81.3.3,0,1,0,.32.5,3.92,3.92,0,0,0,1.81-3.31V9.69A.3.3,0,0,0,50.26,9.4Z" transform="translate(1.31 8.6)"/><path class="cls-5" d="M45.57,14.62a.3.3,0,1,0,0,.59h2.1a.3.3,0,1,0,0-.59Z" transform="translate(1.31 8.6)"/><path class="cls-5" d="M44.29,13.22H49a.3.3,0,0,0,0-.59H44.29a.3.3,0,0,0,0,.59Z" transform="translate(1.31 8.6)"/><path class="cls-5" d="M44.29,11.22H49a.3.3,0,0,0,0-.59H44.29a.3.3,0,0,0,0,.59Z" transform="translate(1.31 8.6)"/><path class="cls-5" d="M47.67,20.2a.3.3,0,1,0,0-.59h-2.1a.3.3,0,1,0,0,.59Z" transform="translate(1.31 8.6)"/><path class="cls-5" d="M49,21.61H44.29a.3.3,0,1,0,0,.59H49a.3.3,0,1,0,0-.59Z" transform="translate(1.31 8.6)"/><path class="cls-5" d="M49,23.72H44.29a.3.3,0,0,0,0,.59H49a.3.3,0,0,0,0-.59Z" transform="translate(1.31 8.6)"/><path d="M57.62,17.12a3.35,3.35,0,0,1-3.34-3.34V9.69a.3.3,0,1,0-.59,0v4.08a3.94,3.94,0,0,0,3.94,3.94A3.35,3.35,0,0,1,61,21.05v4.09a.3.3,0,0,0,.59,0V21.05A3.94,3.94,0,0,0,57.62,17.12Z" transform="translate(1.31 8.6)"/><path d="M55.82,18.24a.3.3,0,1,0-.32-.5,3.92,3.92,0,0,0-1.81,3.31v4.09a.3.3,0,0,0,.59,0V21.05A3.33,3.33,0,0,1,55.82,18.24Z" transform="translate(1.31 8.6)"/><path d="M61.26,9.4a.3.3,0,0,0-.3.3v4.08a3.33,3.33,0,0,1-1.54,2.81.3.3,0,1,0,.32.5,3.92,3.92,0,0,0,1.81-3.31V9.69A.3.3,0,0,0,61.26,9.4Z" transform="translate(1.31 8.6)"/><path class="cls-5" d="M56.57,14.62a.3.3,0,1,0,0,.59h2.1a.3.3,0,0,0,0-.59Z" transform="translate(1.31 8.6)"/><path class="cls-5" d="M55.29,13.22H60a.3.3,0,0,0,0-.59H55.29a.3.3,0,0,0,0,.59Z" transform="translate(1.31 8.6)"/><path class="cls-5" d="M55.29,11.22H60a.3.3,0,0,0,0-.59H55.29a.3.3,0,0,0,0,.59Z" transform="translate(1.31 8.6)"/><path class="cls-5" d="M58.67,20.2a.3.3,0,1,0,0-.59h-2.1a.3.3,0,1,0,0,.59Z" transform="translate(1.31 8.6)"/><path class="cls-5" d="M60,21.61H55.29a.3.3,0,1,0,0,.59H60a.3.3,0,1,0,0-.59Z" transform="translate(1.31 8.6)"/><path class="cls-5" d="M60,23.72H55.29a.3.3,0,0,0,0,.59H60a.3.3,0,0,0,0-.59Z" transform="translate(1.31 8.6)"/><path d="M68.62,17.12a3.35,3.35,0,0,1-3.34-3.34V9.69a.3.3,0,1,0-.59,0v4.08a3.94,3.94,0,0,0,3.94,3.94A3.35,3.35,0,0,1,72,21.05v4.09a.3.3,0,0,0,.59,0V21.05A3.94,3.94,0,0,0,68.62,17.12Z" transform="translate(1.31 8.6)"/><path d="M66.82,18.24a.3.3,0,1,0-.32-.5,3.92,3.92,0,0,0-1.81,3.31v4.09a.3.3,0,0,0,.59,0V21.05A3.33,3.33,0,0,1,66.82,18.24Z" transform="translate(1.31 8.6)"/><path d="M72.26,9.4a.3.3,0,0,0-.3.3v4.08a3.33,3.33,0,0,1-1.54,2.81.3.3,0,1,0,.32.5,3.92,3.92,0,0,0,1.81-3.31V9.69A.3.3,0,0,0,72.26,9.4Z" transform="translate(1.31 8.6)"/><path class="cls-5" d="M67.57,14.62a.3.3,0,1,0,0,.59h2.1a.3.3,0,1,0,0-.59Z" transform="translate(1.31 8.6)"/><path class="cls-5" d="M66.29,13.22H71a.3.3,0,0,0,0-.59H66.29a.3.3,0,0,0,0,.59Z" transform="translate(1.31 8.6)"/><path class="cls-5" d="M66.29,11.22H71a.3.3,0,0,0,0-.59H66.29a.3.3,0,0,0,0,.59Z" transform="translate(1.31 8.6)"/><path class="cls-5" d="M69.67,20.2a.3.3,0,1,0,0-.59h-2.1a.3.3,0,1,0,0,.59Z" transform="translate(1.31 8.6)"/><path class="cls-5" d="M71,21.61H66.29a.3.3,0,1,0,0,.59H71a.3.3,0,1,0,0-.59Z" transform="translate(1.31 8.6)"/><path class="cls-5" d="M71,23.72H66.29a.3.3,0,0,0,0,.59H71a.3.3,0,0,0,0-.59Z" transform="translate(1.31 8.6)"/><path d="M79.62,17.12a3.35,3.35,0,0,1-3.34-3.34V9.69a.3.3,0,1,0-.59,0v4.08a3.94,3.94,0,0,0,3.94,3.94A3.35,3.35,0,0,1,83,21.05v4.09a.3.3,0,0,0,.59,0V21.05A3.94,3.94,0,0,0,79.62,17.12Z" transform="translate(1.31 8.6)"/><path d="M77.82,18.24a.3.3,0,1,0-.32-.5,3.92,3.92,0,0,0-1.81,3.31v4.09a.3.3,0,0,0,.59,0V21.05A3.33,3.33,0,0,1,77.82,18.24Z" transform="translate(1.31 8.6)"/><path d="M83.26,9.4a.3.3,0,0,0-.3.3v4.08a3.33,3.33,0,0,1-1.54,2.81.3.3,0,1,0,.32.5,3.92,3.92,0,0,0,1.81-3.31V9.69A.3.3,0,0,0,83.26,9.4Z" transform="translate(1.31 8.6)"/><path class="cls-5" d="M78.57,14.62a.3.3,0,1,0,0,.59h2.1a.3.3,0,0,0,0-.59Z" transform="translate(1.31 8.6)"/><path class="cls-5" d="M77.29,13.22H82a.3.3,0,0,0,0-.59H77.29a.3.3,0,0,0,0,.59Z" transform="translate(1.31 8.6)"/><path class="cls-5" d="M77.29,11.22H82a.3.3,0,0,0,0-.59H77.29a.3.3,0,0,0,0,.59Z" transform="translate(1.31 8.6)"/><path class="cls-5" d="M80.67,20.2a.3.3,0,1,0,0-.59h-2.1a.3.3,0,1,0,0,.59Z" transform="translate(1.31 8.6)"/><path class="cls-5" d="M82,21.61H77.29a.3.3,0,1,0,0,.59H82a.3.3,0,1,0,0-.59Z" transform="translate(1.31 8.6)"/><path class="cls-5" d="M82,23.72H77.29a.3.3,0,0,0,0,.59H82a.3.3,0,0,0,0-.59Z" transform="translate(1.31 8.6)"/><path d="M90.62,17.12a3.35,3.35,0,0,1-3.34-3.34V9.69a.3.3,0,1,0-.59,0v4.08a3.94,3.94,0,0,0,3.94,3.94A3.35,3.35,0,0,1,94,21.05v4.09a.3.3,0,0,0,.59,0V21.05A3.94,3.94,0,0,0,90.62,17.12Z" transform="translate(1.31 8.6)"/><path d="M88.82,18.24a.3.3,0,1,0-.32-.5,3.92,3.92,0,0,0-1.81,3.31v4.09a.3.3,0,0,0,.59,0V21.05A3.33,3.33,0,0,1,88.82,18.24Z" transform="translate(1.31 8.6)"/><path d="M94.26,9.4a.3.3,0,0,0-.3.3v4.08a3.33,3.33,0,0,1-1.54,2.81.3.3,0,1,0,.32.5,3.92,3.92,0,0,0,1.81-3.31V9.69A.3.3,0,0,0,94.26,9.4Z" transform="translate(1.31 8.6)"/><path class="cls-5" d="M89.57,14.62a.3.3,0,1,0,0,.59h2.1a.3.3,0,0,0,0-.59Z" transform="translate(1.31 8.6)"/><path class="cls-5" d="M88.29,13.22H93a.3.3,0,0,0,0-.59H88.29a.3.3,0,0,0,0,.59Z" transform="translate(1.31 8.6)"/><path class="cls-5" d="M88.29,11.22H93a.3.3,0,0,0,0-.59H88.29a.3.3,0,0,0,0,.59Z" transform="translate(1.31 8.6)"/><path class="cls-5" d="M91.67,20.2a.3.3,0,1,0,0-.59h-2.1a.3.3,0,1,0,0,.59Z" transform="translate(1.31 8.6)"/><path class="cls-5" d="M93,21.61H88.29a.3.3,0,1,0,0,.59H93a.3.3,0,1,0,0-.59Z" transform="translate(1.31 8.6)"/><path class="cls-5" d="M93,23.72H88.29a.3.3,0,0,0,0,.59H93a.3.3,0,0,0,0-.59Z" transform="translate(1.31 8.6)"/><path d="M101.62,17.12a3.35,3.35,0,0,1-3.34-3.34V9.69a.3.3,0,1,0-.59,0v4.08a3.94,3.94,0,0,0,3.94,3.94A3.35,3.35,0,0,1,105,21.05v4.09a.3.3,0,0,0,.59,0V21.05A3.94,3.94,0,0,0,101.62,17.12Z" transform="translate(1.31 8.6)"/><path d="M99.82,18.24a.3.3,0,1,0-.32-.5,3.92,3.92,0,0,0-1.81,3.31v4.09a.3.3,0,0,0,.59,0V21.05A3.33,3.33,0,0,1,99.82,18.24Z" transform="translate(1.31 8.6)"/><path d="M105.26,9.4a.3.3,0,0,0-.3.3v4.08a3.33,3.33,0,0,1-1.54,2.81.3.3,0,1,0,.32.5,3.92,3.92,0,0,0,1.81-3.31V9.69A.3.3,0,0,0,105.26,9.4Z" transform="translate(1.31 8.6)"/><path class="cls-5" d="M100.57,14.62a.3.3,0,1,0,0,.59h2.1a.3.3,0,0,0,0-.59Z" transform="translate(1.31 8.6)"/><path class="cls-5" d="M99.29,13.22H104a.3.3,0,0,0,0-.59H99.29a.3.3,0,0,0,0,.59Z" transform="translate(1.31 8.6)"/><path class="cls-5" d="M99.29,11.22H104a.3.3,0,0,0,0-.59H99.29a.3.3,0,0,0,0,.59Z" transform="translate(1.31 8.6)"/><path class="cls-5" d="M102.67,20.2a.3.3,0,1,0,0-.59h-2.1a.3.3,0,1,0,0,.59Z" transform="translate(1.31 8.6)"/><path class="cls-5" d="M104,21.61H99.29a.3.3,0,1,0,0,.59H104a.3.3,0,1,0,0-.59Z" transform="translate(1.31 8.6)"/><path class="cls-5" d="M104,23.72H99.29a.3.3,0,0,0,0,.59H104a.3.3,0,0,0,0-.59Z" transform="translate(1.31 8.6)"/><path d="M112.62,17.12a3.35,3.35,0,0,1-3.34-3.34V9.69a.3.3,0,1,0-.59,0v4.08a3.94,3.94,0,0,0,3.94,3.94A3.35,3.35,0,0,1,116,21.05v4.09a.3.3,0,0,0,.59,0V21.05A3.94,3.94,0,0,0,112.62,17.12Z" transform="translate(1.31 8.6)"/><path d="M110.82,18.24a.3.3,0,0,0-.32-.5,3.92,3.92,0,0,0-1.81,3.31v4.09a.3.3,0,0,0,.59,0V21.05A3.33,3.33,0,0,1,110.82,18.24Z" transform="translate(1.31 8.6)"/><path d="M116.26,9.4a.3.3,0,0,0-.3.3v4.08a3.33,3.33,0,0,1-1.54,2.81.3.3,0,1,0,.32.5,3.92,3.92,0,0,0,1.81-3.31V9.69A.3.3,0,0,0,116.26,9.4Z" transform="translate(1.31 8.6)"/><path class="cls-5" d="M111.57,14.62a.3.3,0,1,0,0,.59h2.1a.3.3,0,0,0,0-.59Z" transform="translate(1.31 8.6)"/><path class="cls-5" d="M110.29,13.22H115a.3.3,0,0,0,0-.59h-4.67a.3.3,0,0,0,0,.59Z" transform="translate(1.31 8.6)"/><path class="cls-5" d="M110.29,11.22H115a.3.3,0,0,0,0-.59h-4.67a.3.3,0,0,0,0,.59Z" transform="translate(1.31 8.6)"/><path class="cls-5" d="M113.67,20.2a.3.3,0,1,0,0-.59h-2.1a.3.3,0,1,0,0,.59Z" transform="translate(1.31 8.6)"/><path class="cls-5" d="M115,21.61h-4.67a.3.3,0,1,0,0,.59H115a.3.3,0,1,0,0-.59Z" transform="translate(1.31 8.6)"/><path class="cls-5" d="M115,23.72h-4.67a.3.3,0,0,0,0,.59H115a.3.3,0,0,0,0-.59Z" transform="translate(1.31 8.6)"/><path d="M123.62,17.12a3.35,3.35,0,0,1-3.34-3.34V9.69a.3.3,0,1,0-.59,0v4.08a3.94,3.94,0,0,0,3.94,3.94A3.35,3.35,0,0,1,127,21.05v4.09a.3.3,0,0,0,.59,0V21.05A3.94,3.94,0,0,0,123.62,17.12Z" transform="translate(1.31 8.6)"/><path d="M121.82,18.24a.3.3,0,0,0-.32-.5,3.92,3.92,0,0,0-1.81,3.31v4.09a.3.3,0,0,0,.59,0V21.05A3.33,3.33,0,0,1,121.82,18.24Z" transform="translate(1.31 8.6)"/><path d="M127.26,9.4a.3.3,0,0,0-.3.3v4.08a3.33,3.33,0,0,1-1.54,2.81.3.3,0,1,0,.32.5,3.92,3.92,0,0,0,1.81-3.31V9.69A.3.3,0,0,0,127.26,9.4Z" transform="translate(1.31 8.6)"/><path class="cls-5" d="M122.57,14.62a.3.3,0,1,0,0,.59h2.1a.3.3,0,1,0,0-.59Z" transform="translate(1.31 8.6)"/><path class="cls-5" d="M121.29,13.22H126a.3.3,0,0,0,0-.59h-4.67a.3.3,0,0,0,0,.59Z" transform="translate(1.31 8.6)"/><path class="cls-5" d="M121.29,11.22H126a.3.3,0,0,0,0-.59h-4.67a.3.3,0,0,0,0,.59Z" transform="translate(1.31 8.6)"/><path class="cls-5" d="M124.67,20.2a.3.3,0,1,0,0-.59h-2.1a.3.3,0,1,0,0,.59Z" transform="translate(1.31 8.6)"/><path class="cls-5" d="M126,21.61h-4.67a.3.3,0,1,0,0,.59H126a.3.3,0,1,0,0-.59Z" transform="translate(1.31 8.6)"/><path class="cls-5" d="M126,23.72h-4.67a.3.3,0,0,0,0,.59H126a.3.3,0,0,0,0-.59Z" transform="translate(1.31 8.6)"/><path d="M2.62,71.12A3.35,3.35,0,0,1-.72,67.77V63.69a.3.3,0,0,0-.3-.3.3.3,0,0,0-.3.3v4.08a3.94,3.94,0,0,0,3.94,3.94A3.35,3.35,0,0,1,6,75.05v4.09a.3.3,0,0,0,.59,0V75.05A3.94,3.94,0,0,0,2.62,71.12Z" transform="translate(1.31 8.6)"/><path d="M.82,72.24a.3.3,0,0,0-.32-.5,3.92,3.92,0,0,0-1.81,3.31v4.09a.3.3,0,0,0,.3.3.3.3,0,0,0,.3-.3V75.05A3.33,3.33,0,0,1,.82,72.24Z" transform="translate(1.31 8.6)"/><path d="M6.26,63.4a.3.3,0,0,0-.3.3v4.08a3.33,3.33,0,0,1-1.54,2.81.3.3,0,1,0,.32.5,3.92,3.92,0,0,0,1.81-3.31V63.69A.3.3,0,0,0,6.26,63.4Z" transform="translate(1.31 8.6)"/><path class="cls-6" d="M1.57,68.62a.3.3,0,1,0,0,.59h2.1a.3.3,0,0,0,0-.59Z" transform="translate(1.31 8.6)"/><path class="cls-6" d="M.29,67.22H5a.3.3,0,0,0,0-.59H.29a.3.3,0,0,0,0,.59Z" transform="translate(1.31 8.6)"/><path class="cls-6" d="M.29,65.22H5a.3.3,0,0,0,0-.59H.29a.3.3,0,0,0,0,.59Z" transform="translate(1.31 8.6)"/><path class="cls-6" d="M3.67,74.2a.3.3,0,1,0,0-.59H1.57a.3.3,0,1,0,0,.59Z" transform="translate(1.31 8.6)"/><path class="cls-6" d="M.16,75.91a.3.3,0,0,0,.3.3H4.79a.3.3,0,1,0,0-.59H.45A.3.3,0,0,0,.16,75.91Z" transform="translate(1.31 8.6)"/><path class="cls-6" d="M5,77.61H.29a.3.3,0,0,0,0,.59H5a.3.3,0,0,0,0-.59Z" transform="translate(1.31 8.6)"/><path d="M13.62,71.12a3.35,3.35,0,0,1-3.34-3.34V63.69a.3.3,0,1,0-.59,0v4.08a3.94,3.94,0,0,0,3.94,3.94A3.35,3.35,0,0,1,17,75.05v4.09a.3.3,0,0,0,.59,0V75.05A3.94,3.94,0,0,0,13.62,71.12Z" transform="translate(1.31 8.6)"/><path d="M11.82,72.24a.3.3,0,1,0-.32-.5,3.92,3.92,0,0,0-1.81,3.31v4.09a.3.3,0,0,0,.59,0V75.05A3.33,3.33,0,0,1,11.82,72.24Z" transform="translate(1.31 8.6)"/><path d="M17.26,63.4a.3.3,0,0,0-.3.3v4.08a3.33,3.33,0,0,1-1.54,2.81.3.3,0,1,0,.32.5,3.92,3.92,0,0,0,1.81-3.31V63.69A.3.3,0,0,0,17.26,63.4Z" transform="translate(1.31 8.6)"/><path class="cls-6" d="M12.57,68.62a.3.3,0,0,0,0,.59h2.1a.3.3,0,1,0,0-.59Z" transform="translate(1.31 8.6)"/><path class="cls-6" d="M11.29,67.22H16a.3.3,0,0,0,0-.59H11.29a.3.3,0,0,0,0,.59Z" transform="translate(1.31 8.6)"/><path class="cls-6" d="M11.29,65.22H16a.3.3,0,0,0,0-.59H11.29a.3.3,0,0,0,0,.59Z" transform="translate(1.31 8.6)"/><path class="cls-6" d="M14.67,74.2a.3.3,0,1,0,0-.59h-2.1a.3.3,0,1,0,0,.59Z" transform="translate(1.31 8.6)"/><path class="cls-6" d="M11.16,75.91a.3.3,0,0,0,.3.3h4.34a.3.3,0,1,0,0-.59H11.45A.3.3,0,0,0,11.16,75.91Z" transform="translate(1.31 8.6)"/><path class="cls-6" d="M16,77.61H11.29a.3.3,0,0,0,0,.59H16a.3.3,0,0,0,0-.59Z" transform="translate(1.31 8.6)"/><path d="M24.62,71.12a3.35,3.35,0,0,1-3.34-3.34V63.69a.3.3,0,1,0-.59,0v4.08a3.94,3.94,0,0,0,3.94,3.94A3.35,3.35,0,0,1,28,75.05v4.09a.3.3,0,0,0,.59,0V75.05A3.94,3.94,0,0,0,24.62,71.12Z" transform="translate(1.31 8.6)"/><path d="M22.82,72.24a.3.3,0,1,0-.32-.5,3.92,3.92,0,0,0-1.81,3.31v4.09a.3.3,0,0,0,.59,0V75.05A3.33,3.33,0,0,1,22.82,72.24Z" transform="translate(1.31 8.6)"/><path d="M28.26,63.4a.3.3,0,0,0-.3.3v4.08a3.33,3.33,0,0,1-1.54,2.81.3.3,0,1,0,.32.5,3.92,3.92,0,0,0,1.81-3.31V63.69A.3.3,0,0,0,28.26,63.4Z" transform="translate(1.31 8.6)"/><path class="cls-6" d="M23.57,68.62a.3.3,0,0,0,0,.59h2.1a.3.3,0,0,0,0-.59Z" transform="translate(1.31 8.6)"/><path class="cls-6" d="M22.29,67.22H27a.3.3,0,0,0,0-.59H22.29a.3.3,0,0,0,0,.59Z" transform="translate(1.31 8.6)"/><path class="cls-6" d="M22.29,65.22H27a.3.3,0,0,0,0-.59H22.29a.3.3,0,0,0,0,.59Z" transform="translate(1.31 8.6)"/><path class="cls-6" d="M25.67,74.2a.3.3,0,1,0,0-.59h-2.1a.3.3,0,1,0,0,.59Z" transform="translate(1.31 8.6)"/><path class="cls-6" d="M22.16,75.91a.3.3,0,0,0,.3.3h4.34a.3.3,0,1,0,0-.59H22.45A.3.3,0,0,0,22.16,75.91Z" transform="translate(1.31 8.6)"/><path class="cls-6" d="M27,77.61H22.29a.3.3,0,0,0,0,.59H27a.3.3,0,0,0,0-.59Z" transform="translate(1.31 8.6)"/><path d="M35.62,71.12a3.35,3.35,0,0,1-3.34-3.34V63.69a.3.3,0,1,0-.59,0v4.08a3.94,3.94,0,0,0,3.94,3.94A3.35,3.35,0,0,1,39,75.05v4.09a.3.3,0,0,0,.59,0V75.05A3.94,3.94,0,0,0,35.62,71.12Z" transform="translate(1.31 8.6)"/><path d="M33.82,72.24a.3.3,0,1,0-.32-.5,3.92,3.92,0,0,0-1.81,3.31v4.09a.3.3,0,0,0,.59,0V75.05A3.33,3.33,0,0,1,33.82,72.24Z" transform="translate(1.31 8.6)"/><path d="M39.26,63.4a.3.3,0,0,0-.3.3v4.08a3.33,3.33,0,0,1-1.54,2.81.3.3,0,1,0,.32.5,3.92,3.92,0,0,0,1.81-3.31V63.69A.3.3,0,0,0,39.26,63.4Z" transform="translate(1.31 8.6)"/><path class="cls-6" d="M34.57,68.62a.3.3,0,0,0,0,.59h2.1a.3.3,0,1,0,0-.59Z" transform="translate(1.31 8.6)"/><path class="cls-6" d="M33.29,67.22H38a.3.3,0,0,0,0-.59H33.29a.3.3,0,0,0,0,.59Z" transform="translate(1.31 8.6)"/><path class="cls-6" d="M33.29,65.22H38a.3.3,0,0,0,0-.59H33.29a.3.3,0,0,0,0,.59Z" transform="translate(1.31 8.6)"/><path class="cls-6" d="M36.67,74.2a.3.3,0,1,0,0-.59h-2.1a.3.3,0,1,0,0,.59Z" transform="translate(1.31 8.6)"/><path class="cls-6" d="M33.16,75.91a.3.3,0,0,0,.3.3h4.34a.3.3,0,1,0,0-.59H33.45A.3.3,0,0,0,33.16,75.91Z" transform="translate(1.31 8.6)"/><path class="cls-6" d="M38,77.61H33.29a.3.3,0,0,0,0,.59H38a.3.3,0,0,0,0-.59Z" transform="translate(1.31 8.6)"/><path d="M46.62,71.12a3.35,3.35,0,0,1-3.34-3.34V63.69a.3.3,0,1,0-.59,0v4.08a3.94,3.94,0,0,0,3.94,3.94A3.35,3.35,0,0,1,50,75.05v4.09a.3.3,0,0,0,.59,0V75.05A3.94,3.94,0,0,0,46.62,71.12Z" transform="translate(1.31 8.6)"/><path d="M44.82,72.24a.3.3,0,1,0-.32-.5,3.92,3.92,0,0,0-1.81,3.31v4.09a.3.3,0,0,0,.59,0V75.05A3.33,3.33,0,0,1,44.82,72.24Z" transform="translate(1.31 8.6)"/><path d="M50.26,63.4a.3.3,0,0,0-.3.3v4.08a3.33,3.33,0,0,1-1.54,2.81.3.3,0,1,0,.32.5,3.92,3.92,0,0,0,1.81-3.31V63.69A.3.3,0,0,0,50.26,63.4Z" transform="translate(1.31 8.6)"/><path class="cls-6" d="M45.57,68.62a.3.3,0,0,0,0,.59h2.1a.3.3,0,0,0,0-.59Z" transform="translate(1.31 8.6)"/><path class="cls-6" d="M44.29,67.22H49a.3.3,0,0,0,0-.59H44.29a.3.3,0,0,0,0,.59Z" transform="translate(1.31 8.6)"/><path class="cls-6" d="M44.29,65.22H49a.3.3,0,0,0,0-.59H44.29a.3.3,0,0,0,0,.59Z" transform="translate(1.31 8.6)"/><path class="cls-6" d="M47.67,74.2a.3.3,0,1,0,0-.59h-2.1a.3.3,0,1,0,0,.59Z" transform="translate(1.31 8.6)"/><path class="cls-6" d="M44.16,75.91a.3.3,0,0,0,.3.3h4.34a.3.3,0,1,0,0-.59H44.45A.3.3,0,0,0,44.16,75.91Z" transform="translate(1.31 8.6)"/><path class="cls-6" d="M49,77.61H44.29a.3.3,0,0,0,0,.59H49a.3.3,0,0,0,0-.59Z" transform="translate(1.31 8.6)"/><path d="M57.62,71.12a3.35,3.35,0,0,1-3.34-3.34V63.69a.3.3,0,1,0-.59,0v4.08a3.94,3.94,0,0,0,3.94,3.94A3.35,3.35,0,0,1,61,75.05v4.09a.3.3,0,0,0,.59,0V75.05A3.94,3.94,0,0,0,57.62,71.12Z" transform="translate(1.31 8.6)"/><path d="M55.82,72.24a.3.3,0,1,0-.32-.5,3.92,3.92,0,0,0-1.81,3.31v4.09a.3.3,0,0,0,.59,0V75.05A3.33,3.33,0,0,1,55.82,72.24Z" transform="translate(1.31 8.6)"/><path d="M61.26,63.4a.3.3,0,0,0-.3.3v4.08a3.33,3.33,0,0,1-1.54,2.81.3.3,0,1,0,.32.5,3.92,3.92,0,0,0,1.81-3.31V63.69A.3.3,0,0,0,61.26,63.4Z" transform="translate(1.31 8.6)"/><path class="cls-6" d="M56.57,68.62a.3.3,0,0,0,0,.59h2.1a.3.3,0,1,0,0-.59Z" transform="translate(1.31 8.6)"/><path class="cls-6" d="M55.29,67.22H60a.3.3,0,0,0,0-.59H55.29a.3.3,0,0,0,0,.59Z" transform="translate(1.31 8.6)"/><path class="cls-6" d="M55.29,65.22H60a.3.3,0,0,0,0-.59H55.29a.3.3,0,0,0,0,.59Z" transform="translate(1.31 8.6)"/><path class="cls-6" d="M58.67,74.2a.3.3,0,1,0,0-.59h-2.1a.3.3,0,1,0,0,.59Z" transform="translate(1.31 8.6)"/><path class="cls-6" d="M55.16,75.91a.3.3,0,0,0,.3.3h4.34a.3.3,0,1,0,0-.59H55.45A.3.3,0,0,0,55.16,75.91Z" transform="translate(1.31 8.6)"/><path class="cls-6" d="M60,77.61H55.29a.3.3,0,0,0,0,.59H60a.3.3,0,0,0,0-.59Z" transform="translate(1.31 8.6)"/><path d="M68.62,71.12a3.35,3.35,0,0,1-3.34-3.34V63.69a.3.3,0,1,0-.59,0v4.08a3.94,3.94,0,0,0,3.94,3.94A3.35,3.35,0,0,1,72,75.05v4.09a.3.3,0,0,0,.59,0V75.05A3.94,3.94,0,0,0,68.62,71.12Z" transform="translate(1.31 8.6)"/><path d="M66.82,72.24a.3.3,0,1,0-.32-.5,3.92,3.92,0,0,0-1.81,3.31v4.09a.3.3,0,0,0,.59,0V75.05A3.33,3.33,0,0,1,66.82,72.24Z" transform="translate(1.31 8.6)"/><path d="M72.26,63.4a.3.3,0,0,0-.3.3v4.08a3.33,3.33,0,0,1-1.54,2.81.3.3,0,1,0,.32.5,3.92,3.92,0,0,0,1.81-3.31V63.69A.3.3,0,0,0,72.26,63.4Z" transform="translate(1.31 8.6)"/><path class="cls-6" d="M67.57,68.62a.3.3,0,0,0,0,.59h2.1a.3.3,0,0,0,0-.59Z" transform="translate(1.31 8.6)"/><path class="cls-6" d="M66.29,67.22H71a.3.3,0,0,0,0-.59H66.29a.3.3,0,0,0,0,.59Z" transform="translate(1.31 8.6)"/><path class="cls-6" d="M66.29,65.22H71a.3.3,0,0,0,0-.59H66.29a.3.3,0,0,0,0,.59Z" transform="translate(1.31 8.6)"/><path class="cls-6" d="M69.67,74.2a.3.3,0,1,0,0-.59h-2.1a.3.3,0,1,0,0,.59Z" transform="translate(1.31 8.6)"/><path class="cls-6" d="M66.16,75.91a.3.3,0,0,0,.3.3h4.34a.3.3,0,1,0,0-.59H66.45A.3.3,0,0,0,66.16,75.91Z" transform="translate(1.31 8.6)"/><path class="cls-6" d="M71,77.61H66.29a.3.3,0,0,0,0,.59H71a.3.3,0,0,0,0-.59Z" transform="translate(1.31 8.6)"/><path d="M79.62,71.12a3.35,3.35,0,0,1-3.34-3.34V63.69a.3.3,0,1,0-.59,0v4.08a3.94,3.94,0,0,0,3.94,3.94A3.35,3.35,0,0,1,83,75.05v4.09a.3.3,0,0,0,.59,0V75.05A3.94,3.94,0,0,0,79.62,71.12Z" transform="translate(1.31 8.6)"/><path d="M77.82,72.24a.3.3,0,1,0-.32-.5,3.92,3.92,0,0,0-1.81,3.31v4.09a.3.3,0,0,0,.59,0V75.05A3.33,3.33,0,0,1,77.82,72.24Z" transform="translate(1.31 8.6)"/><path d="M83.26,63.4a.3.3,0,0,0-.3.3v4.08a3.33,3.33,0,0,1-1.54,2.81.3.3,0,1,0,.32.5,3.92,3.92,0,0,0,1.81-3.31V63.69A.3.3,0,0,0,83.26,63.4Z" transform="translate(1.31 8.6)"/><path class="cls-6" d="M78.57,68.62a.3.3,0,1,0,0,.59h2.1a.3.3,0,0,0,0-.59Z" transform="translate(1.31 8.6)"/><path class="cls-6" d="M77.29,67.22H82a.3.3,0,0,0,0-.59H77.29a.3.3,0,0,0,0,.59Z" transform="translate(1.31 8.6)"/><path class="cls-6" d="M77.29,65.22H82a.3.3,0,0,0,0-.59H77.29a.3.3,0,0,0,0,.59Z" transform="translate(1.31 8.6)"/><path class="cls-6" d="M80.67,74.2a.3.3,0,1,0,0-.59h-2.1a.3.3,0,1,0,0,.59Z" transform="translate(1.31 8.6)"/><path class="cls-6" d="M77.16,75.91a.3.3,0,0,0,.3.3h4.34a.3.3,0,1,0,0-.59H77.45A.3.3,0,0,0,77.16,75.91Z" transform="translate(1.31 8.6)"/><path class="cls-6" d="M82,77.61H77.29a.3.3,0,0,0,0,.59H82a.3.3,0,0,0,0-.59Z" transform="translate(1.31 8.6)"/><path d="M90.62,71.12a3.35,3.35,0,0,1-3.34-3.34V63.69a.3.3,0,1,0-.59,0v4.08a3.94,3.94,0,0,0,3.94,3.94A3.35,3.35,0,0,1,94,75.05v4.09a.3.3,0,0,0,.59,0V75.05A3.94,3.94,0,0,0,90.62,71.12Z" transform="translate(1.31 8.6)"/><path d="M88.82,72.24a.3.3,0,1,0-.32-.5,3.92,3.92,0,0,0-1.81,3.31v4.09a.3.3,0,0,0,.59,0V75.05A3.33,3.33,0,0,1,88.82,72.24Z" transform="translate(1.31 8.6)"/><path d="M94.26,63.4a.3.3,0,0,0-.3.3v4.08a3.33,3.33,0,0,1-1.54,2.81.3.3,0,1,0,.32.5,3.92,3.92,0,0,0,1.81-3.31V63.69A.3.3,0,0,0,94.26,63.4Z" transform="translate(1.31 8.6)"/><path class="cls-6" d="M89.57,68.62a.3.3,0,1,0,0,.59h2.1a.3.3,0,0,0,0-.59Z" transform="translate(1.31 8.6)"/><path class="cls-6" d="M88.29,67.22H93a.3.3,0,0,0,0-.59H88.29a.3.3,0,0,0,0,.59Z" transform="translate(1.31 8.6)"/><path class="cls-6" d="M88.29,65.22H93a.3.3,0,0,0,0-.59H88.29a.3.3,0,0,0,0,.59Z" transform="translate(1.31 8.6)"/><path class="cls-6" d="M91.67,74.2a.3.3,0,1,0,0-.59h-2.1a.3.3,0,1,0,0,.59Z" transform="translate(1.31 8.6)"/><path class="cls-6" d="M88.16,75.91a.3.3,0,0,0,.3.3h4.34a.3.3,0,1,0,0-.59H88.45A.3.3,0,0,0,88.16,75.91Z" transform="translate(1.31 8.6)"/><path class="cls-6" d="M93,77.61H88.29a.3.3,0,0,0,0,.59H93a.3.3,0,0,0,0-.59Z" transform="translate(1.31 8.6)"/><path d="M101.62,71.12a3.35,3.35,0,0,1-3.34-3.34V63.69a.3.3,0,1,0-.59,0v4.08a3.94,3.94,0,0,0,3.94,3.94A3.35,3.35,0,0,1,105,75.05v4.09a.3.3,0,0,0,.59,0V75.05A3.94,3.94,0,0,0,101.62,71.12Z" transform="translate(1.31 8.6)"/><path d="M99.82,72.24a.3.3,0,1,0-.32-.5,3.92,3.92,0,0,0-1.81,3.31v4.09a.3.3,0,0,0,.59,0V75.05A3.33,3.33,0,0,1,99.82,72.24Z" transform="translate(1.31 8.6)"/><path d="M105.26,63.4a.3.3,0,0,0-.3.3v4.08a3.33,3.33,0,0,1-1.54,2.81.3.3,0,1,0,.32.5,3.92,3.92,0,0,0,1.81-3.31V63.69A.3.3,0,0,0,105.26,63.4Z" transform="translate(1.31 8.6)"/><path class="cls-6" d="M100.57,68.62a.3.3,0,0,0,0,.59h2.1a.3.3,0,1,0,0-.59Z" transform="translate(1.31 8.6)"/><path class="cls-6" d="M99.29,67.22H104a.3.3,0,0,0,0-.59H99.29a.3.3,0,0,0,0,.59Z" transform="translate(1.31 8.6)"/><path class="cls-6" d="M99.29,65.22H104a.3.3,0,0,0,0-.59H99.29a.3.3,0,0,0,0,.59Z" transform="translate(1.31 8.6)"/><path class="cls-6" d="M102.67,74.2a.3.3,0,1,0,0-.59h-2.1a.3.3,0,1,0,0,.59Z" transform="translate(1.31 8.6)"/><path class="cls-6" d="M99.16,75.91a.3.3,0,0,0,.3.3h4.34a.3.3,0,1,0,0-.59H99.45A.3.3,0,0,0,99.16,75.91Z" transform="translate(1.31 8.6)"/><path class="cls-6" d="M104,77.61H99.29a.3.3,0,0,0,0,.59H104a.3.3,0,0,0,0-.59Z" transform="translate(1.31 8.6)"/><path d="M112.62,71.12a3.35,3.35,0,0,1-3.34-3.34V63.69a.3.3,0,1,0-.59,0v4.08a3.94,3.94,0,0,0,3.94,3.94A3.35,3.35,0,0,1,116,75.05v4.09a.3.3,0,0,0,.59,0V75.05A3.94,3.94,0,0,0,112.62,71.12Z" transform="translate(1.31 8.6)"/><path d="M110.82,72.24a.3.3,0,0,0-.32-.5,3.92,3.92,0,0,0-1.81,3.31v4.09a.3.3,0,0,0,.59,0V75.05A3.33,3.33,0,0,1,110.82,72.24Z" transform="translate(1.31 8.6)"/><path d="M116.26,63.4a.3.3,0,0,0-.3.3v4.08a3.33,3.33,0,0,1-1.54,2.81.3.3,0,1,0,.32.5,3.92,3.92,0,0,0,1.81-3.31V63.69A.3.3,0,0,0,116.26,63.4Z" transform="translate(1.31 8.6)"/><path class="cls-6" d="M111.57,68.62a.3.3,0,0,0,0,.59h2.1a.3.3,0,1,0,0-.59Z" transform="translate(1.31 8.6)"/><path class="cls-6" d="M110.29,67.22H115a.3.3,0,0,0,0-.59h-4.67a.3.3,0,0,0,0,.59Z" transform="translate(1.31 8.6)"/><path class="cls-6" d="M110.29,65.22H115a.3.3,0,0,0,0-.59h-4.67a.3.3,0,0,0,0,.59Z" transform="translate(1.31 8.6)"/><path class="cls-6" d="M113.67,74.2a.3.3,0,1,0,0-.59h-2.1a.3.3,0,1,0,0,.59Z" transform="translate(1.31 8.6)"/><path class="cls-6" d="M110.16,75.91a.3.3,0,0,0,.3.3h4.34a.3.3,0,1,0,0-.59h-4.34A.3.3,0,0,0,110.16,75.91Z" transform="translate(1.31 8.6)"/><path class="cls-6" d="M115,77.61h-4.67a.3.3,0,0,0,0,.59H115a.3.3,0,0,0,0-.59Z" transform="translate(1.31 8.6)"/><path d="M123.62,71.12a3.35,3.35,0,0,1-3.34-3.34V63.69a.3.3,0,1,0-.59,0v4.08a3.94,3.94,0,0,0,3.94,3.94A3.35,3.35,0,0,1,127,75.05v4.09a.3.3,0,0,0,.59,0V75.05A3.94,3.94,0,0,0,123.62,71.12Z" transform="translate(1.31 8.6)"/><path d="M121.82,72.24a.3.3,0,0,0-.32-.5,3.92,3.92,0,0,0-1.81,3.31v4.09a.3.3,0,0,0,.59,0V75.05A3.33,3.33,0,0,1,121.82,72.24Z" transform="translate(1.31 8.6)"/><path d="M127.26,63.4a.3.3,0,0,0-.3.3v4.08a3.33,3.33,0,0,1-1.54,2.81.3.3,0,1,0,.32.5,3.92,3.92,0,0,0,1.81-3.31V63.69A.3.3,0,0,0,127.26,63.4Z" transform="translate(1.31 8.6)"/><path class="cls-6" d="M122.57,68.62a.3.3,0,0,0,0,.59h2.1a.3.3,0,1,0,0-.59Z" transform="translate(1.31 8.6)"/><path class="cls-6" d="M121.29,67.22H126a.3.3,0,0,0,0-.59h-4.67a.3.3,0,0,0,0,.59Z" transform="translate(1.31 8.6)"/><path class="cls-6" d="M121.29,65.22H126a.3.3,0,0,0,0-.59h-4.67a.3.3,0,0,0,0,.59Z" transform="translate(1.31 8.6)"/><path class="cls-6" d="M124.67,74.2a.3.3,0,1,0,0-.59h-2.1a.3.3,0,1,0,0,.59Z" transform="translate(1.31 8.6)"/><path class="cls-6" d="M121.16,75.91a.3.3,0,0,0,.3.3h4.34a.3.3,0,1,0,0-.59h-4.34A.3.3,0,0,0,121.16,75.91Z" transform="translate(1.31 8.6)"/><path class="cls-6" d="M126,77.61h-4.67a.3.3,0,0,0,0,.59H126a.3.3,0,0,0,0-.59Z" transform="translate(1.31 8.6)"/><path d="M2.62,53.12A3.35,3.35,0,0,1-.72,49.77V45.69a.3.3,0,0,0-.3-.3.3.3,0,0,0-.3.3v4.08a3.94,3.94,0,0,0,3.94,3.94A3.35,3.35,0,0,1,6,57.05v4.09a.3.3,0,0,0,.59,0V57.05A3.94,3.94,0,0,0,2.62,53.12Z" transform="translate(1.31 8.6)"/><path d="M.82,54.24a.3.3,0,0,0-.32-.5,3.92,3.92,0,0,0-1.81,3.31v4.09a.3.3,0,0,0,.3.3.3.3,0,0,0,.3-.3V57.05A3.33,3.33,0,0,1,.82,54.24Z" transform="translate(1.31 8.6)"/><path d="M6.26,45.4a.3.3,0,0,0-.3.3v4.08a3.33,3.33,0,0,1-1.54,2.81.3.3,0,1,0,.32.5,3.92,3.92,0,0,0,1.81-3.31V45.69A.3.3,0,0,0,6.26,45.4Z" transform="translate(1.31 8.6)"/><path class="cls-3" d="M1.57,50.62a.3.3,0,1,0,0,.59h2.1a.3.3,0,0,0,0-.59Z" transform="translate(1.31 8.6)"/><path class="cls-3" d="M.29,49.22H5a.3.3,0,0,0,0-.59H.29a.3.3,0,0,0,0,.59Z" transform="translate(1.31 8.6)"/><path class="cls-3" d="M.29,47.22H5a.3.3,0,0,0,0-.59H.29a.3.3,0,0,0,0,.59Z" transform="translate(1.31 8.6)"/><path class="cls-3" d="M3.67,56.2a.3.3,0,1,0,0-.59H1.57a.3.3,0,1,0,0,.59Z" transform="translate(1.31 8.6)"/><path class="cls-3" d="M.16,57.91a.3.3,0,0,0,.3.3H4.79a.3.3,0,1,0,0-.59H.45A.3.3,0,0,0,.16,57.91Z" transform="translate(1.31 8.6)"/><path class="cls-3" d="M5,59.61H.29a.3.3,0,0,0,0,.59H5a.3.3,0,0,0,0-.59Z" transform="translate(1.31 8.6)"/><path d="M13.62,53.12a3.35,3.35,0,0,1-3.34-3.34V45.69a.3.3,0,1,0-.59,0v4.08a3.94,3.94,0,0,0,3.94,3.94A3.35,3.35,0,0,1,17,57.05v4.09a.3.3,0,0,0,.59,0V57.05A3.94,3.94,0,0,0,13.62,53.12Z" transform="translate(1.31 8.6)"/><path d="M11.82,54.24a.3.3,0,1,0-.32-.5,3.92,3.92,0,0,0-1.81,3.31v4.09a.3.3,0,0,0,.59,0V57.05A3.33,3.33,0,0,1,11.82,54.24Z" transform="translate(1.31 8.6)"/><path d="M17.26,45.4a.3.3,0,0,0-.3.3v4.08a3.33,3.33,0,0,1-1.54,2.81.3.3,0,1,0,.32.5,3.92,3.92,0,0,0,1.81-3.31V45.69A.3.3,0,0,0,17.26,45.4Z" transform="translate(1.31 8.6)"/><path class="cls-3" d="M12.57,50.62a.3.3,0,0,0,0,.59h2.1a.3.3,0,0,0,0-.59Z" transform="translate(1.31 8.6)"/><path class="cls-3" d="M11.29,49.22H16a.3.3,0,0,0,0-.59H11.29a.3.3,0,0,0,0,.59Z" transform="translate(1.31 8.6)"/><path class="cls-3" d="M11.29,47.22H16a.3.3,0,0,0,0-.59H11.29a.3.3,0,0,0,0,.59Z" transform="translate(1.31 8.6)"/><path class="cls-3" d="M14.67,56.2a.3.3,0,1,0,0-.59h-2.1a.3.3,0,1,0,0,.59Z" transform="translate(1.31 8.6)"/><path class="cls-3" d="M11.16,57.91a.3.3,0,0,0,.3.3h4.34a.3.3,0,1,0,0-.59H11.45A.3.3,0,0,0,11.16,57.91Z" transform="translate(1.31 8.6)"/><path class="cls-3" d="M16,59.61H11.29a.3.3,0,0,0,0,.59H16a.3.3,0,0,0,0-.59Z" transform="translate(1.31 8.6)"/><path d="M24.62,53.12a3.35,3.35,0,0,1-3.34-3.34V45.69a.3.3,0,1,0-.59,0v4.08a3.94,3.94,0,0,0,3.94,3.94A3.35,3.35,0,0,1,28,57.05v4.09a.3.3,0,0,0,.59,0V57.05A3.94,3.94,0,0,0,24.62,53.12Z" transform="translate(1.31 8.6)"/><path d="M22.82,54.24a.3.3,0,1,0-.32-.5,3.92,3.92,0,0,0-1.81,3.31v4.09a.3.3,0,0,0,.59,0V57.05A3.33,3.33,0,0,1,22.82,54.24Z" transform="translate(1.31 8.6)"/><path d="M28.26,45.4a.3.3,0,0,0-.3.3v4.08a3.33,3.33,0,0,1-1.54,2.81.3.3,0,1,0,.32.5,3.92,3.92,0,0,0,1.81-3.31V45.69A.3.3,0,0,0,28.26,45.4Z" transform="translate(1.31 8.6)"/><path class="cls-3" d="M23.57,50.62a.3.3,0,0,0,0,.59h2.1a.3.3,0,1,0,0-.59Z" transform="translate(1.31 8.6)"/><path class="cls-3" d="M22.29,49.22H27a.3.3,0,0,0,0-.59H22.29a.3.3,0,0,0,0,.59Z" transform="translate(1.31 8.6)"/><path class="cls-3" d="M22.29,47.22H27a.3.3,0,0,0,0-.59H22.29a.3.3,0,0,0,0,.59Z" transform="translate(1.31 8.6)"/><path class="cls-3" d="M25.67,56.2a.3.3,0,1,0,0-.59h-2.1a.3.3,0,1,0,0,.59Z" transform="translate(1.31 8.6)"/><path class="cls-3" d="M22.16,57.91a.3.3,0,0,0,.3.3h4.34a.3.3,0,1,0,0-.59H22.45A.3.3,0,0,0,22.16,57.91Z" transform="translate(1.31 8.6)"/><path class="cls-3" d="M27,59.61H22.29a.3.3,0,0,0,0,.59H27a.3.3,0,0,0,0-.59Z" transform="translate(1.31 8.6)"/><path d="M35.62,53.12a3.35,3.35,0,0,1-3.34-3.34V45.69a.3.3,0,1,0-.59,0v4.08a3.94,3.94,0,0,0,3.94,3.94A3.35,3.35,0,0,1,39,57.05v4.09a.3.3,0,0,0,.59,0V57.05A3.94,3.94,0,0,0,35.62,53.12Z" transform="translate(1.31 8.6)"/><path d="M33.82,54.24a.3.3,0,1,0-.32-.5,3.92,3.92,0,0,0-1.81,3.31v4.09a.3.3,0,0,0,.59,0V57.05A3.33,3.33,0,0,1,33.82,54.24Z" transform="translate(1.31 8.6)"/><path d="M39.26,45.4a.3.3,0,0,0-.3.3v4.08a3.33,3.33,0,0,1-1.54,2.81.3.3,0,1,0,.32.5,3.92,3.92,0,0,0,1.81-3.31V45.69A.3.3,0,0,0,39.26,45.4Z" transform="translate(1.31 8.6)"/><path class="cls-3" d="M34.57,50.62a.3.3,0,0,0,0,.59h2.1a.3.3,0,1,0,0-.59Z" transform="translate(1.31 8.6)"/><path class="cls-3" d="M33.29,49.22H38a.3.3,0,0,0,0-.59H33.29a.3.3,0,0,0,0,.59Z" transform="translate(1.31 8.6)"/><path class="cls-3" d="M33.29,47.22H38a.3.3,0,0,0,0-.59H33.29a.3.3,0,0,0,0,.59Z" transform="translate(1.31 8.6)"/><path class="cls-3" d="M36.67,56.2a.3.3,0,1,0,0-.59h-2.1a.3.3,0,1,0,0,.59Z" transform="translate(1.31 8.6)"/><path class="cls-3" d="M33.16,57.91a.3.3,0,0,0,.3.3h4.34a.3.3,0,1,0,0-.59H33.45A.3.3,0,0,0,33.16,57.91Z" transform="translate(1.31 8.6)"/><path class="cls-3" d="M38,59.61H33.29a.3.3,0,0,0,0,.59H38a.3.3,0,0,0,0-.59Z" transform="translate(1.31 8.6)"/><path d="M46.62,53.12a3.35,3.35,0,0,1-3.34-3.34V45.69a.3.3,0,1,0-.59,0v4.08a3.94,3.94,0,0,0,3.94,3.94A3.35,3.35,0,0,1,50,57.05v4.09a.3.3,0,0,0,.59,0V57.05A3.94,3.94,0,0,0,46.62,53.12Z" transform="translate(1.31 8.6)"/><path d="M44.82,54.24a.3.3,0,1,0-.32-.5,3.92,3.92,0,0,0-1.81,3.31v4.09a.3.3,0,0,0,.59,0V57.05A3.33,3.33,0,0,1,44.82,54.24Z" transform="translate(1.31 8.6)"/><path d="M50.26,45.4a.3.3,0,0,0-.3.3v4.08a3.33,3.33,0,0,1-1.54,2.81.3.3,0,1,0,.32.5,3.92,3.92,0,0,0,1.81-3.31V45.69A.3.3,0,0,0,50.26,45.4Z" transform="translate(1.31 8.6)"/><path class="cls-3" d="M45.57,50.62a.3.3,0,0,0,0,.59h2.1a.3.3,0,1,0,0-.59Z" transform="translate(1.31 8.6)"/><path class="cls-3" d="M44.29,49.22H49a.3.3,0,0,0,0-.59H44.29a.3.3,0,0,0,0,.59Z" transform="translate(1.31 8.6)"/><path class="cls-3" d="M44.29,47.22H49a.3.3,0,0,0,0-.59H44.29a.3.3,0,0,0,0,.59Z" transform="translate(1.31 8.6)"/><path class="cls-3" d="M47.67,56.2a.3.3,0,1,0,0-.59h-2.1a.3.3,0,1,0,0,.59Z" transform="translate(1.31 8.6)"/><path class="cls-3" d="M44.16,57.91a.3.3,0,0,0,.3.3h4.34a.3.3,0,1,0,0-.59H44.45A.3.3,0,0,0,44.16,57.91Z" transform="translate(1.31 8.6)"/><path class="cls-3" d="M49,59.61H44.29a.3.3,0,0,0,0,.59H49a.3.3,0,0,0,0-.59Z" transform="translate(1.31 8.6)"/><path d="M57.62,53.12a3.35,3.35,0,0,1-3.34-3.34V45.69a.3.3,0,1,0-.59,0v4.08a3.94,3.94,0,0,0,3.94,3.94A3.35,3.35,0,0,1,61,57.05v4.09a.3.3,0,0,0,.59,0V57.05A3.94,3.94,0,0,0,57.62,53.12Z" transform="translate(1.31 8.6)"/><path d="M55.82,54.24a.3.3,0,1,0-.32-.5,3.92,3.92,0,0,0-1.81,3.31v4.09a.3.3,0,0,0,.59,0V57.05A3.33,3.33,0,0,1,55.82,54.24Z" transform="translate(1.31 8.6)"/><path d="M61.26,45.4a.3.3,0,0,0-.3.3v4.08a3.33,3.33,0,0,1-1.54,2.81.3.3,0,1,0,.32.5,3.92,3.92,0,0,0,1.81-3.31V45.69A.3.3,0,0,0,61.26,45.4Z" transform="translate(1.31 8.6)"/><path class="cls-3" d="M56.57,50.62a.3.3,0,0,0,0,.59h2.1a.3.3,0,1,0,0-.59Z" transform="translate(1.31 8.6)"/><path class="cls-3" d="M55.29,49.22H60a.3.3,0,0,0,0-.59H55.29a.3.3,0,0,0,0,.59Z" transform="translate(1.31 8.6)"/><path class="cls-3" d="M55.29,47.22H60a.3.3,0,0,0,0-.59H55.29a.3.3,0,0,0,0,.59Z" transform="translate(1.31 8.6)"/><path class="cls-3" d="M58.67,56.2a.3.3,0,1,0,0-.59h-2.1a.3.3,0,1,0,0,.59Z" transform="translate(1.31 8.6)"/><path class="cls-3" d="M55.16,57.91a.3.3,0,0,0,.3.3h4.34a.3.3,0,1,0,0-.59H55.45A.3.3,0,0,0,55.16,57.91Z" transform="translate(1.31 8.6)"/><path class="cls-3" d="M60,59.61H55.29a.3.3,0,0,0,0,.59H60a.3.3,0,0,0,0-.59Z" transform="translate(1.31 8.6)"/><path d="M68.62,53.12a3.35,3.35,0,0,1-3.34-3.34V45.69a.3.3,0,1,0-.59,0v4.08a3.94,3.94,0,0,0,3.94,3.94A3.35,3.35,0,0,1,72,57.05v4.09a.3.3,0,0,0,.59,0V57.05A3.94,3.94,0,0,0,68.62,53.12Z" transform="translate(1.31 8.6)"/><path d="M66.82,54.24a.3.3,0,1,0-.32-.5,3.92,3.92,0,0,0-1.81,3.31v4.09a.3.3,0,0,0,.59,0V57.05A3.33,3.33,0,0,1,66.82,54.24Z" transform="translate(1.31 8.6)"/><path d="M72.26,45.4a.3.3,0,0,0-.3.3v4.08a3.33,3.33,0,0,1-1.54,2.81.3.3,0,1,0,.32.5,3.92,3.92,0,0,0,1.81-3.31V45.69A.3.3,0,0,0,72.26,45.4Z" transform="translate(1.31 8.6)"/><path class="cls-3" d="M67.57,50.62a.3.3,0,1,0,0,.59h2.1a.3.3,0,0,0,0-.59Z" transform="translate(1.31 8.6)"/><path class="cls-3" d="M66.29,49.22H71a.3.3,0,0,0,0-.59H66.29a.3.3,0,0,0,0,.59Z" transform="translate(1.31 8.6)"/><path class="cls-3" d="M66.29,47.22H71a.3.3,0,0,0,0-.59H66.29a.3.3,0,0,0,0,.59Z" transform="translate(1.31 8.6)"/><path class="cls-3" d="M69.67,56.2a.3.3,0,1,0,0-.59h-2.1a.3.3,0,1,0,0,.59Z" transform="translate(1.31 8.6)"/><path class="cls-3" d="M66.16,57.91a.3.3,0,0,0,.3.3h4.34a.3.3,0,1,0,0-.59H66.45A.3.3,0,0,0,66.16,57.91Z" transform="translate(1.31 8.6)"/><path class="cls-3" d="M71,59.61H66.29a.3.3,0,0,0,0,.59H71a.3.3,0,0,0,0-.59Z" transform="translate(1.31 8.6)"/><path d="M79.62,53.12a3.35,3.35,0,0,1-3.34-3.34V45.69a.3.3,0,1,0-.59,0v4.08a3.94,3.94,0,0,0,3.94,3.94A3.35,3.35,0,0,1,83,57.05v4.09a.3.3,0,0,0,.59,0V57.05A3.94,3.94,0,0,0,79.62,53.12Z" transform="translate(1.31 8.6)"/><path d="M77.82,54.24a.3.3,0,1,0-.32-.5,3.92,3.92,0,0,0-1.81,3.31v4.09a.3.3,0,0,0,.59,0V57.05A3.33,3.33,0,0,1,77.82,54.24Z" transform="translate(1.31 8.6)"/><path d="M83.26,45.4a.3.3,0,0,0-.3.3v4.08a3.33,3.33,0,0,1-1.54,2.81.3.3,0,1,0,.32.5,3.92,3.92,0,0,0,1.81-3.31V45.69A.3.3,0,0,0,83.26,45.4Z" transform="translate(1.31 8.6)"/><path class="cls-3" d="M78.57,50.62a.3.3,0,1,0,0,.59h2.1a.3.3,0,0,0,0-.59Z" transform="translate(1.31 8.6)"/><path class="cls-3" d="M77.29,49.22H82a.3.3,0,0,0,0-.59H77.29a.3.3,0,0,0,0,.59Z" transform="translate(1.31 8.6)"/><path class="cls-3" d="M77.29,47.22H82a.3.3,0,0,0,0-.59H77.29a.3.3,0,0,0,0,.59Z" transform="translate(1.31 8.6)"/><path class="cls-3" d="M80.67,56.2a.3.3,0,1,0,0-.59h-2.1a.3.3,0,1,0,0,.59Z" transform="translate(1.31 8.6)"/><path class="cls-3" d="M77.16,57.91a.3.3,0,0,0,.3.3h4.34a.3.3,0,1,0,0-.59H77.45A.3.3,0,0,0,77.16,57.91Z" transform="translate(1.31 8.6)"/><path class="cls-3" d="M82,59.61H77.29a.3.3,0,0,0,0,.59H82a.3.3,0,0,0,0-.59Z" transform="translate(1.31 8.6)"/><path d="M90.62,53.12a3.35,3.35,0,0,1-3.34-3.34V45.69a.3.3,0,1,0-.59,0v4.08a3.94,3.94,0,0,0,3.94,3.94A3.35,3.35,0,0,1,94,57.05v4.09a.3.3,0,0,0,.59,0V57.05A3.94,3.94,0,0,0,90.62,53.12Z" transform="translate(1.31 8.6)"/><path d="M88.82,54.24a.3.3,0,1,0-.32-.5,3.92,3.92,0,0,0-1.81,3.31v4.09a.3.3,0,0,0,.59,0V57.05A3.33,3.33,0,0,1,88.82,54.24Z" transform="translate(1.31 8.6)"/><path d="M94.26,45.4a.3.3,0,0,0-.3.3v4.08a3.33,3.33,0,0,1-1.54,2.81.3.3,0,1,0,.32.5,3.92,3.92,0,0,0,1.81-3.31V45.69A.3.3,0,0,0,94.26,45.4Z" transform="translate(1.31 8.6)"/><path class="cls-3" d="M89.57,50.62a.3.3,0,1,0,0,.59h2.1a.3.3,0,0,0,0-.59Z" transform="translate(1.31 8.6)"/><path class="cls-3" d="M88.29,49.22H93a.3.3,0,0,0,0-.59H88.29a.3.3,0,0,0,0,.59Z" transform="translate(1.31 8.6)"/><path class="cls-3" d="M88.29,47.22H93a.3.3,0,0,0,0-.59H88.29a.3.3,0,0,0,0,.59Z" transform="translate(1.31 8.6)"/><path class="cls-3" d="M91.67,56.2a.3.3,0,1,0,0-.59h-2.1a.3.3,0,1,0,0,.59Z" transform="translate(1.31 8.6)"/><path class="cls-3" d="M88.16,57.91a.3.3,0,0,0,.3.3h4.34a.3.3,0,1,0,0-.59H88.45A.3.3,0,0,0,88.16,57.91Z" transform="translate(1.31 8.6)"/><path class="cls-3" d="M93,59.61H88.29a.3.3,0,0,0,0,.59H93a.3.3,0,0,0,0-.59Z" transform="translate(1.31 8.6)"/><path d="M101.62,53.12a3.35,3.35,0,0,1-3.34-3.34V45.69a.3.3,0,1,0-.59,0v4.08a3.94,3.94,0,0,0,3.94,3.94A3.35,3.35,0,0,1,105,57.05v4.09a.3.3,0,0,0,.59,0V57.05A3.94,3.94,0,0,0,101.62,53.12Z" transform="translate(1.31 8.6)"/><path d="M99.82,54.24a.3.3,0,1,0-.32-.5,3.92,3.92,0,0,0-1.81,3.31v4.09a.3.3,0,0,0,.59,0V57.05A3.33,3.33,0,0,1,99.82,54.24Z" transform="translate(1.31 8.6)"/><path d="M105.26,45.4a.3.3,0,0,0-.3.3v4.08a3.33,3.33,0,0,1-1.54,2.81.3.3,0,1,0,.32.5,3.92,3.92,0,0,0,1.81-3.31V45.69A.3.3,0,0,0,105.26,45.4Z" transform="translate(1.31 8.6)"/><path class="cls-3" d="M100.57,50.62a.3.3,0,0,0,0,.59h2.1a.3.3,0,1,0,0-.59Z" transform="translate(1.31 8.6)"/><path class="cls-3" d="M99.29,49.22H104a.3.3,0,0,0,0-.59H99.29a.3.3,0,0,0,0,.59Z" transform="translate(1.31 8.6)"/><path class="cls-3" d="M99.29,47.22H104a.3.3,0,0,0,0-.59H99.29a.3.3,0,0,0,0,.59Z" transform="translate(1.31 8.6)"/><path class="cls-3" d="M102.67,56.2a.3.3,0,1,0,0-.59h-2.1a.3.3,0,1,0,0,.59Z" transform="translate(1.31 8.6)"/><path class="cls-3" d="M99.16,57.91a.3.3,0,0,0,.3.3h4.34a.3.3,0,1,0,0-.59H99.45A.3.3,0,0,0,99.16,57.91Z" transform="translate(1.31 8.6)"/><path class="cls-3" d="M104,59.61H99.29a.3.3,0,0,0,0,.59H104a.3.3,0,0,0,0-.59Z" transform="translate(1.31 8.6)"/><path d="M112.62,53.12a3.35,3.35,0,0,1-3.34-3.34V45.69a.3.3,0,1,0-.59,0v4.08a3.94,3.94,0,0,0,3.94,3.94A3.35,3.35,0,0,1,116,57.05v4.09a.3.3,0,0,0,.59,0V57.05A3.94,3.94,0,0,0,112.62,53.12Z" transform="translate(1.31 8.6)"/><path d="M110.82,54.24a.3.3,0,0,0-.32-.5,3.92,3.92,0,0,0-1.81,3.31v4.09a.3.3,0,0,0,.59,0V57.05A3.33,3.33,0,0,1,110.82,54.24Z" transform="translate(1.31 8.6)"/><path d="M116.26,45.4a.3.3,0,0,0-.3.3v4.08a3.33,3.33,0,0,1-1.54,2.81.3.3,0,1,0,.32.5,3.92,3.92,0,0,0,1.81-3.31V45.69A.3.3,0,0,0,116.26,45.4Z" transform="translate(1.31 8.6)"/><path class="cls-3" d="M111.57,50.62a.3.3,0,0,0,0,.59h2.1a.3.3,0,1,0,0-.59Z" transform="translate(1.31 8.6)"/><path class="cls-3" d="M110.29,49.22H115a.3.3,0,0,0,0-.59h-4.67a.3.3,0,0,0,0,.59Z" transform="translate(1.31 8.6)"/><path class="cls-3" d="M110.29,47.22H115a.3.3,0,0,0,0-.59h-4.67a.3.3,0,0,0,0,.59Z" transform="translate(1.31 8.6)"/><path class="cls-3" d="M113.67,56.2a.3.3,0,1,0,0-.59h-2.1a.3.3,0,1,0,0,.59Z" transform="translate(1.31 8.6)"/><path class="cls-3" d="M110.16,57.91a.3.3,0,0,0,.3.3h4.34a.3.3,0,1,0,0-.59h-4.34A.3.3,0,0,0,110.16,57.91Z" transform="translate(1.31 8.6)"/><path class="cls-3" d="M115,59.61h-4.67a.3.3,0,0,0,0,.59H115a.3.3,0,0,0,0-.59Z" transform="translate(1.31 8.6)"/><path d="M123.62,53.12a3.35,3.35,0,0,1-3.34-3.34V45.69a.3.3,0,1,0-.59,0v4.08a3.94,3.94,0,0,0,3.94,3.94A3.35,3.35,0,0,1,127,57.05v4.09a.3.3,0,0,0,.59,0V57.05A3.94,3.94,0,0,0,123.62,53.12Z" transform="translate(1.31 8.6)"/><path d="M121.82,54.24a.3.3,0,0,0-.32-.5,3.92,3.92,0,0,0-1.81,3.31v4.09a.3.3,0,0,0,.59,0V57.05A3.33,3.33,0,0,1,121.82,54.24Z" transform="translate(1.31 8.6)"/><path d="M127.26,45.4a.3.3,0,0,0-.3.3v4.08a3.33,3.33,0,0,1-1.54,2.81.3.3,0,1,0,.32.5,3.92,3.92,0,0,0,1.81-3.31V45.69A.3.3,0,0,0,127.26,45.4Z" transform="translate(1.31 8.6)"/><path class="cls-3" d="M122.57,50.62a.3.3,0,0,0,0,.59h2.1a.3.3,0,1,0,0-.59Z" transform="translate(1.31 8.6)"/><path class="cls-3" d="M121.29,49.22H126a.3.3,0,0,0,0-.59h-4.67a.3.3,0,0,0,0,.59Z" transform="translate(1.31 8.6)"/><path class="cls-3" d="M121.29,47.22H126a.3.3,0,0,0,0-.59h-4.67a.3.3,0,0,0,0,.59Z" transform="translate(1.31 8.6)"/><path class="cls-3" d="M124.67,56.2a.3.3,0,1,0,0-.59h-2.1a.3.3,0,1,0,0,.59Z" transform="translate(1.31 8.6)"/><path class="cls-3" d="M121.16,57.91a.3.3,0,0,0,.3.3h4.34a.3.3,0,1,0,0-.59h-4.34A.3.3,0,0,0,121.16,57.91Z" transform="translate(1.31 8.6)"/><path class="cls-3" d="M126,59.61h-4.67a.3.3,0,0,0,0,.59H126a.3.3,0,0,0,0-.59Z" transform="translate(1.31 8.6)"/></g></svg>