<svg id="Layer_2" data-name="Layer 2" xmlns="http://www.w3.org/2000/svg" viewBox="0 0 52.89 43.48"><defs><style>.cls-1{fill:#ed1c24;}.cls-2{fill:#0071bc;}</style></defs><title>icon-precision-medicine</title><path d="M20.12,20.9a14.33,14.33,0,1,0,0-4.53l1.42.23a12.9,12.9,0,1,1,0,4.07Z"/><path d="M24.43,20.64l-1.4.29a11.47,11.47,0,1,0,0-4.59l1.4.29a10,10,0,1,1,0,4Z"/><path class="cls-1" d="M29.61,20.51l-1.33.54a6.45,6.45,0,1,0,0-4.84l1.33.54a5,5,0,1,1,0,3.76Z"/><path class="cls-1" d="M34.26,20.78a2.12,2.12,0,0,1-1.41-.54l-.94,1.08a3.58,3.58,0,1,0,0-5.38L32.85,17a2.12,2.12,0,0,1,1.41-.54,2.15,2.15,0,0,1,0,4.3Z"/><path d="M52.89,18.63a18.63,18.63,0,0,0-36.52-5.22l1.38.4a17.2,17.2,0,1,1,0,9.63l-1.38.4a18.65,18.65,0,0,0,8.49,10.83l-2.59,5.69a2.19,2.19,0,0,0,1.46,3,2.25,2.25,0,0,0,.54.07,2.18,2.18,0,0,0,2-1.21l2.87-5.75a18.33,18.33,0,0,0,10.42,0l2.88,5.76a2.19,2.19,0,0,0,4-1.89l-2.6-5.72A18.64,18.64,0,0,0,52.89,18.63Zm-27.95,23a.76.76,0,0,1-.86.4.76.76,0,0,1-.51-1l2.55-5.61q.78.38,1.6.69ZM45.06,41a.76.76,0,0,1-1.37.65L40.9,36q.82-.31,1.6-.7Z"/><path class="cls-2" d="M.31,21.43a.45.45,0,0,0,.9,0l0-2.1,3.56,0,0,3.37a.45.45,0,0,0,.9,0v-.86l13.87-.17a2.86,2.86,0,0,0,2.8-2.55L27.48,19a.45.45,0,1,0,0-.9l-5.13.06a2.84,2.84,0,0,0-2.86-2.47L5.6,15.86V15a.45.45,0,1,0-.9,0l0,3.37-3.56,0,0-2.1a.45.45,0,1,0-.9,0Zm19.18-4.84a2,2,0,0,1,2,1.94v.19a2,2,0,0,1-1.94,2l-13.87.17-.05-4.12Z"/><path class="cls-2" d="M5.23,23.34a.7.7,0,0,1-.7-.69l0-3.12-3.06,0,0,1.85a.7.7,0,0,1-.69.7h0a.7.7,0,0,1-.7-.68h0L0,16.34a.7.7,0,1,1,1.4,0l0,1.85,3.06,0,0-3.12a.7.7,0,1,1,1.4,0v.61l13.63-.17h0a3.09,3.09,0,0,1,3,2.47l4.92-.05a.64.64,0,0,1,.61.34.7.7,0,0,1-.6,1.06l-4.92.05a3.12,3.12,0,0,1-3,2.55L5.93,22v.61a.7.7,0,0,1-.69.7ZM5,19l0,3.62a.2.2,0,0,0,.2.19h0a.2.2,0,0,0,.2-.2V21.53l14.13-.17A2.62,2.62,0,0,0,22.1,19l0-.22,5.35-.06a.2.2,0,0,0,.17-.1.2.2,0,0,0,0-.2.26.26,0,0,0-.17-.1l-5.36.06,0-.22a2.58,2.58,0,0,0-2.61-2.25l-14.13.17V15a.2.2,0,1,0-.4,0l0,3.62-4.06,0,0-2.35a.2.2,0,0,0-.3-.17.2.2,0,0,0-.1.18l.06,5.09a.2.2,0,0,0,.2.2h0a.2.2,0,0,0,.2-.2l0-2.34Zm.43,2.1-.06-4.62,14.12-.17h0a2.22,2.22,0,0,1,2.22,2.19v.19A2.22,2.22,0,0,1,19.54,21ZM5.87,17l0,3.62,13.63-.17a1.72,1.72,0,0,0,1.69-1.73v-.19a1.72,1.72,0,0,0-1.72-1.69h0Z"/></svg>