<svg id="Layer_2" data-name="Layer 2" xmlns="http://www.w3.org/2000/svg" viewBox="0 0 46.09 46.19"><defs><style>.cls-1{fill:#0071bc;}.cls-2{fill:#c1272d;}.cls-3{fill:#ffd213;}.cls-4{fill:#009245;}.cls-5{fill:#fff;}</style></defs><title>icon-countries</title><path class="cls-1" d="M33.27,24.54H24.49v6.35H32A23.41,23.41,0,0,0,33.27,24.54Z"/><path class="cls-2" d="M31.93,15.3H24.49v6.35h8.77A23.39,23.39,0,0,0,31.93,15.3Z"/><path class="cls-3" d="M24.49,4.86v7.55h6.18A23.81,23.81,0,0,0,24.49,4.86Z"/><path class="cls-2" d="M11.11,15.3H4.45a20.1,20.1,0,0,0-1.51,6.35h7A26.33,26.33,0,0,1,11.11,15.3Z"/><path class="cls-4" d="M30.8,33.77H24.49v7.81A23.8,23.8,0,0,0,30.8,33.77Z"/><path class="cls-1" d="M35.06,30.89h6.58a20.1,20.1,0,0,0,1.51-6.35h-7A26.35,26.35,0,0,1,35.06,30.89Z"/><path class="cls-2" d="M36.15,21.65h7a20.1,20.1,0,0,0-1.51-6.35H35A26.33,26.33,0,0,1,36.15,21.65Z"/><path class="cls-3" d="M33.89,12.41h6.27a20.22,20.22,0,0,0-13-9.11A26.57,26.57,0,0,1,33.89,12.41Z"/><path class="cls-1" d="M9.93,24.54h-7a20.1,20.1,0,0,0,1.51,6.35H11A26.35,26.35,0,0,1,9.93,24.54Z"/><path class="cls-4" d="M27.51,42.8a20.22,20.22,0,0,0,12.64-9H34A26.54,26.54,0,0,1,27.51,42.8Z"/><path class="cls-3" d="M12.21,12.41A26.57,26.57,0,0,1,19,3.3a20.22,20.22,0,0,0-13,9.11Z"/><path class="cls-2" d="M12.83,21.65H21.6V15.3H14.16A23.39,23.39,0,0,0,12.83,21.65Z"/><path class="cls-3" d="M21.6,12.41V4.86a23.81,23.81,0,0,0-6.18,7.55Z"/><path class="cls-1" d="M14.07,30.89H21.6V24.54H12.82A23.41,23.41,0,0,0,14.07,30.89Z"/><path class="cls-4" d="M12.09,33.77H5.94a20.22,20.22,0,0,0,12.64,9A26.54,26.54,0,0,1,12.09,33.77Z"/><path class="cls-4" d="M21.6,41.59V33.77H15.29A23.8,23.8,0,0,0,21.6,41.59Z"/><path class="cls-5" d="M7.59,6A34.35,34.35,0,0,1,20.91.1,22.94,22.94,0,0,0,7.59,6Z"/><path class="cls-5" d="M0,23.09A23,23,0,1,0,23,0c-.72,0-1.43,0-2.14.1A34.35,34.35,0,0,0,7.59,6,23.06,23.06,0,0,0,0,23.09ZM27.51,42.8a26.54,26.54,0,0,0,6.49-9h6.15A20.22,20.22,0,0,1,27.51,42.8ZM41.65,30.89H35.06a26.35,26.35,0,0,0,1.1-6.35h7A20.1,20.1,0,0,1,41.65,30.89Zm1.51-9.24h-7A26.33,26.33,0,0,0,35,15.3h6.67A20.1,20.1,0,0,1,43.15,21.65Zm-3-9.24H33.89A26.57,26.57,0,0,0,27.11,3.3,20.22,20.22,0,0,1,40.15,12.41ZM24.49,4.86a23.81,23.81,0,0,1,6.18,7.55H24.49Zm0,10.44h7.44a23.39,23.39,0,0,1,1.33,6.35H24.49Zm0,9.24h8.78A23.41,23.41,0,0,1,32,30.89H24.49Zm0,9.24H30.8a23.8,23.8,0,0,1-6.31,7.81ZM4.45,15.3h6.66a26.33,26.33,0,0,0-1.17,6.35h-7A20.1,20.1,0,0,1,4.45,15.3ZM2.94,24.54h7A26.35,26.35,0,0,0,11,30.89H4.45A20.1,20.1,0,0,1,2.94,24.54Zm3,9.24h6.15a26.54,26.54,0,0,0,6.49,9A20.22,20.22,0,0,1,5.94,33.77ZM21.6,41.59a23.8,23.8,0,0,1-6.31-7.81H21.6Zm0-10.7H14.07a23.41,23.41,0,0,1-1.25-6.35H21.6Zm0-9.24H12.83a23.39,23.39,0,0,1,1.33-6.35H21.6Zm0-16.79v7.55H15.42A23.81,23.81,0,0,1,21.6,4.86ZM19,3.3a26.57,26.57,0,0,0-6.77,9.11H5.94A20.22,20.22,0,0,1,19,3.3Z"/></svg>