<svg id="Layer_1" data-name="Layer 1" xmlns="http://www.w3.org/2000/svg" viewBox="0 0 30.51 15.96"><title>icon-bridge</title><path d="M30.41,15.7a.58.58,0,0,0-.15-.8l-5.62-3.8a.57.57,0,0,0-.38-.09H14.58a.58.58,0,0,0,0,1.16h9.56l5.47,3.7A.58.58,0,0,0,30.41,15.7Z"/><path d="M.1,15.7a.58.58,0,0,1,.15-.8l5.62-3.8A.57.57,0,0,1,6.25,11h9.68a.58.58,0,0,1,0,1.16H6.37L.9,15.86A.58.58,0,0,1,.1,15.7Z"/><path d="M30.41.25a.58.58,0,0,1-.15.8l-5.62,3.8a.57.57,0,0,1-.38.09H14.58a.58.58,0,0,1,0-1.16h9.56L29.61.1A.58.58,0,0,1,30.41.25Z"/><path d="M.1.25a.58.58,0,0,0,.15.8l5.62,3.8a.57.57,0,0,0,.38.09h9.68a.58.58,0,1,0,0-1.16H6.37L.9.1A.58.58,0,0,0,.1.25Z"/></svg>