<svg id="Layer_2" data-name="Layer 2" xmlns="http://www.w3.org/2000/svg" viewBox="0 0 39.13 33.52"><defs><style>.cls-1{fill:#fff;}.cls-2{fill:#22b573;}.cls-3{fill:#0071bc;}</style></defs><title>icon-resources</title><rect x="15.03" y="5.83" width="3.91" height="1.16"/><polygon points="31.56 8.06 15.03 8.06 15.03 9.22 31.56 9.22 31.56 8.06 31.56 8.06"/><polygon points="31.56 10.29 15.03 10.29 15.03 11.45 31.56 11.45 31.56 10.29 31.56 10.29"/><polygon points="31.56 12.51 15.03 12.51 15.03 13.68 31.56 13.68 31.56 12.51 31.56 12.51"/><path d="M39.13,16.26v.09L36.75,32a1.54,1.54,0,0,1-1.53,1.49H3.44A1.54,1.54,0,0,1,1.91,32L0,18.48A1.54,1.54,0,0,1,1.53,17h.37V9.27A1.54,1.54,0,0,1,3.44,7.73h8.45V0H28.71l6.08,6.08V7.73h.42a1.54,1.54,0,0,1,1.53,1.53v5.46h.85A1.54,1.54,0,0,1,39.13,16.26Z"/><path class="cls-1" d="M34.79,8.9v5.83h.8V9.27a.37.37,0,0,0-.37-.37Z"/><polygon class="cls-1" points="29.05 1.99 29.05 5.74 32.81 5.74 29.05 1.99"/><polygon class="cls-1" points="13.05 1.16 13.05 16.95 19.79 16.95 20.44 15.9 15.03 15.9 15.03 14.74 21.15 14.74 21.16 14.73 33.63 14.73 33.63 6.9 28.47 6.9 27.89 6.32 27.89 1.16 13.05 1.16 13.05 1.16"/><rect class="cls-1" x="5.47" y="11.52" width="6.42" height="5.43"/><path class="cls-1" d="M3.07,17H4.3v-6.6h7.58V8.9H3.44a.37.37,0,0,0-.37.37Z"/><path class="cls-1" d="M38,16.23a.37.37,0,0,0-.37-.34H21.81l-1.37,2.22H1.53a.37.37,0,0,0-.37.34L3.07,32a.37.37,0,0,0,.37.37H35.22a.37.37,0,0,0,.37-.37V31.9Z"/><rect class="cls-2" x="4.3" y="10.35" width="1.16" height="6.6"/><rect class="cls-2" x="7.74" y="7.37" width="1.16" height="7.13" transform="translate(-2.61 19.26) rotate(-90)"/><polygon class="cls-3" points="21.34 14.73 20.44 15.89 15.03 15.89 15.03 14.73 21.34 14.73"/><rect class="cls-3" x="22.71" y="4.34" width="1.16" height="16.53" transform="translate(10.69 35.9) rotate(-90)"/><rect class="cls-3" x="22.71" y="1.65" width="1.16" height="16.53" transform="translate(13.38 33.21) rotate(-90)"/><rect class="cls-3" x="16.68" y="4.98" width="1.16" height="4.46" transform="translate(10.05 24.48) rotate(-90)"/></svg>