<svg id="Layer_2" data-name="Layer 2" xmlns="http://www.w3.org/2000/svg" xmlns:xlink="http://www.w3.org/1999/xlink" viewBox="0 0 123.02 126.36"><defs><style>.cls-1,.cls-3{fill:none;}.cls-2{clip-path:url(#clip-path);}.cls-3{stroke:#231f20;stroke-miterlimit:10;stroke-width:0.62px;}.cls-4{fill:#ffd213;}.cls-5{fill:#ed1c24;}.cls-6{fill:#22b573;}.cls-7{fill:#0071bc;}</style><clipPath id="clip-path" transform="translate(3.11 -1.85)"><circle class="cls-1" cx="58.36" cy="58.36" r="58.36"/></clipPath></defs><title>icon-genetic-research</title><g class="cls-2"><path class="cls-3" d="M9,21V13.66H7.74V8.3A1.55,1.55,0,0,1,9.29,6.75h3.38A1.55,1.55,0,0,1,14.22,8.3v5.36H13v7.25" transform="translate(3.11 -1.85)"/><line class="cls-3" x1="14.08" y1="12.65" x2="14.08" y2="19.13"/><circle class="cls-4" cx="14.08" cy="1.57" r="1.57"/><path class="cls-3" d="M19.51,21V13.66H18.28V8.3a1.55,1.55,0,0,1,1.55-1.55H23.2A1.55,1.55,0,0,1,24.75,8.3v5.36H23.52v7.25" transform="translate(3.11 -1.85)"/><line class="cls-3" x1="24.62" y1="12.65" x2="24.62" y2="19.13"/><circle class="cls-4" cx="24.62" cy="1.57" r="1.57"/><path class="cls-3" d="M30,21V13.66H28.82V8.3a1.55,1.55,0,0,1,1.55-1.55h3.38A1.55,1.55,0,0,1,35.29,8.3v5.36H34.06v7.25" transform="translate(3.11 -1.85)"/><line class="cls-3" x1="35.16" y1="12.65" x2="35.16" y2="19.13"/><circle class="cls-4" cx="35.16" cy="1.57" r="1.57"/><path class="cls-3" d="M40.59,21V13.66H39.36V8.3a1.55,1.55,0,0,1,1.55-1.55h3.38A1.55,1.55,0,0,1,45.83,8.3v5.36H44.6v7.25" transform="translate(3.11 -1.85)"/><line class="cls-3" x1="45.7" y1="12.65" x2="45.7" y2="19.13"/><circle class="cls-4" cx="45.7" cy="1.57" r="1.57"/><path class="cls-3" d="M51.13,21V13.66H49.9V8.3a1.55,1.55,0,0,1,1.55-1.55h3.38A1.55,1.55,0,0,1,56.37,8.3v5.36H55.14v7.25" transform="translate(3.11 -1.85)"/><line class="cls-3" x1="56.24" y1="12.65" x2="56.24" y2="19.13"/><circle class="cls-4" cx="56.24" cy="1.57" r="1.57"/><path class="cls-3" d="M-1.57,21V13.66H-2.8V8.3A1.55,1.55,0,0,1-1.25,6.75H2.13A1.55,1.55,0,0,1,3.68,8.3v5.36H2.44v7.25" transform="translate(3.11 -1.85)"/><line class="cls-3" x1="3.55" y1="12.65" x2="3.55" y2="19.13"/><circle class="cls-4" cx="3.55" cy="1.57" r="1.57"/><path class="cls-3" d="M72.2,21.14V13.83H71V8.47a1.55,1.55,0,0,1,1.55-1.55H75.9a1.55,1.55,0,0,1,1.55,1.55v5.36H76.22v7.25" transform="translate(3.11 -1.85)"/><line class="cls-3" x1="77.32" y1="12.81" x2="77.32" y2="19.29"/><circle class="cls-4" cx="77.32" cy="1.73" r="1.57"/><path class="cls-3" d="M82.74,21.14V13.83H81.51V8.47a1.55,1.55,0,0,1,1.55-1.55h3.38A1.55,1.55,0,0,1,88,8.47v5.36H86.75v7.25" transform="translate(3.11 -1.85)"/><line class="cls-3" x1="87.86" y1="12.81" x2="87.86" y2="19.29"/><circle class="cls-4" cx="87.86" cy="1.73" r="1.57"/><path class="cls-3" d="M93.28,21.14V13.83H92.05V8.47A1.55,1.55,0,0,1,93.6,6.92H97a1.55,1.55,0,0,1,1.55,1.55v5.36H97.29v7.25" transform="translate(3.11 -1.85)"/><line class="cls-3" x1="98.39" y1="12.81" x2="98.39" y2="19.29"/><circle class="cls-4" cx="98.39" cy="1.73" r="1.57"/><path class="cls-3" d="M103.82,21.14V13.83h-1.23V8.47a1.55,1.55,0,0,1,1.55-1.55h3.38a1.55,1.55,0,0,1,1.55,1.55v5.36h-1.23v7.25" transform="translate(3.11 -1.85)"/><line class="cls-3" x1="108.93" y1="12.81" x2="108.93" y2="19.29"/><circle class="cls-4" cx="108.93" cy="1.73" r="1.57"/><path class="cls-3" d="M114.36,21.14V13.83h-1.23V8.47a1.55,1.55,0,0,1,1.55-1.55h3.38a1.55,1.55,0,0,1,1.55,1.55v5.36h-1.23v7.25" transform="translate(3.11 -1.85)"/><line class="cls-3" x1="119.47" y1="12.81" x2="119.47" y2="19.29"/><circle class="cls-4" cx="119.47" cy="1.73" r="1.57"/><path class="cls-3" d="M61.67,21.14V13.83H60.43V8.47A1.55,1.55,0,0,1,62,6.92h3.38a1.55,1.55,0,0,1,1.55,1.55v5.36H65.68v7.25" transform="translate(3.11 -1.85)"/><line class="cls-3" x1="66.78" y1="12.81" x2="66.78" y2="19.29"/><circle class="cls-4" cx="66.78" cy="1.73" r="1.57"/><path class="cls-3" d="M9,42.39V35.08H7.74V29.72a1.55,1.55,0,0,1,1.55-1.55h3.38a1.55,1.55,0,0,1,1.55,1.55v5.36H13v7.25" transform="translate(3.11 -1.85)"/><line class="cls-3" x1="14.08" y1="34.06" x2="14.08" y2="40.54"/><circle class="cls-5" cx="14.08" cy="22.98" r="1.57"/><path class="cls-3" d="M19.51,42.39V35.08H18.28V29.72a1.55,1.55,0,0,1,1.55-1.55H23.2a1.55,1.55,0,0,1,1.55,1.55v5.36H23.52v7.25" transform="translate(3.11 -1.85)"/><line class="cls-3" x1="24.62" y1="34.06" x2="24.62" y2="40.54"/><circle class="cls-5" cx="24.62" cy="22.98" r="1.57"/><path class="cls-3" d="M30,42.39V35.08H28.82V29.72a1.55,1.55,0,0,1,1.55-1.55h3.38a1.55,1.55,0,0,1,1.55,1.55v5.36H34.06v7.25" transform="translate(3.11 -1.85)"/><line class="cls-3" x1="35.16" y1="34.06" x2="35.16" y2="40.54"/><circle class="cls-5" cx="35.16" cy="22.98" r="1.57"/><path class="cls-3" d="M40.59,42.39V35.08H39.36V29.72a1.55,1.55,0,0,1,1.55-1.55h3.38a1.55,1.55,0,0,1,1.55,1.55v5.36H44.6v7.25" transform="translate(3.11 -1.85)"/><line class="cls-3" x1="45.7" y1="34.06" x2="45.7" y2="40.54"/><circle class="cls-5" cx="45.7" cy="22.98" r="1.57"/><path class="cls-3" d="M51.13,42.39V35.08H49.9V29.72a1.55,1.55,0,0,1,1.55-1.55h3.38a1.55,1.55,0,0,1,1.55,1.55v5.36H55.14v7.25" transform="translate(3.11 -1.85)"/><line class="cls-3" x1="56.24" y1="34.06" x2="56.24" y2="40.54"/><circle class="cls-5" cx="56.24" cy="22.98" r="1.57"/><line class="cls-3" x1="3.55" y1="34.06" x2="3.55" y2="40.54"/><circle class="cls-5" cx="3.55" cy="22.98" r="1.57"/><path class="cls-3" d="M72.2,42.55V35.25H71V29.88a1.55,1.55,0,0,1,1.55-1.55H75.9a1.55,1.55,0,0,1,1.55,1.55v5.36H76.22v7.25" transform="translate(3.11 -1.85)"/><line class="cls-3" x1="77.32" y1="34.23" x2="77.32" y2="40.71"/><circle class="cls-5" cx="77.32" cy="23.15" r="1.57"/><path class="cls-3" d="M82.74,42.55V35.25H81.51V29.88a1.55,1.55,0,0,1,1.55-1.55h3.38A1.55,1.55,0,0,1,88,29.88v5.36H86.75v7.25" transform="translate(3.11 -1.85)"/><line class="cls-3" x1="87.86" y1="34.23" x2="87.86" y2="40.71"/><circle class="cls-5" cx="87.86" cy="23.15" r="1.57"/><path class="cls-3" d="M93.28,42.55V35.25H92.05V29.88a1.55,1.55,0,0,1,1.55-1.55H97a1.55,1.55,0,0,1,1.55,1.55v5.36H97.29v7.25" transform="translate(3.11 -1.85)"/><line class="cls-3" x1="98.39" y1="34.23" x2="98.39" y2="40.71"/><circle class="cls-5" cx="98.39" cy="23.15" r="1.57"/><path class="cls-3" d="M103.82,42.55V35.25h-1.23V29.88a1.55,1.55,0,0,1,1.55-1.55h3.38a1.55,1.55,0,0,1,1.55,1.55v5.36h-1.23v7.25" transform="translate(3.11 -1.85)"/><line class="cls-3" x1="108.93" y1="34.23" x2="108.93" y2="40.71"/><circle class="cls-5" cx="108.93" cy="23.15" r="1.57"/><line class="cls-3" x1="119.47" y1="34.23" x2="119.47" y2="40.71"/><circle class="cls-5" cx="119.47" cy="23.15" r="1.57"/><path class="cls-3" d="M61.67,42.55V35.25H60.43V29.88A1.55,1.55,0,0,1,62,28.33h3.38a1.55,1.55,0,0,1,1.55,1.55v5.36H65.68v7.25" transform="translate(3.11 -1.85)"/><line class="cls-3" x1="66.78" y1="34.23" x2="66.78" y2="40.71"/><circle class="cls-5" cx="66.78" cy="23.15" r="1.57"/><path class="cls-3" d="M9,63.8V56.49H7.74V51.13a1.55,1.55,0,0,1,1.55-1.55h3.38a1.55,1.55,0,0,1,1.55,1.55v5.36H13v7.25" transform="translate(3.11 -1.85)"/><line class="cls-3" x1="14.08" y1="55.48" x2="14.08" y2="61.95"/><circle class="cls-6" cx="14.08" cy="44.4" r="1.57"/><path class="cls-3" d="M19.51,63.8V56.49H18.28V51.13a1.55,1.55,0,0,1,1.55-1.55H23.2a1.55,1.55,0,0,1,1.55,1.55v5.36H23.52v7.25" transform="translate(3.11 -1.85)"/><line class="cls-3" x1="24.62" y1="55.48" x2="24.62" y2="61.95"/><circle class="cls-6" cx="24.62" cy="44.4" r="1.57"/><path class="cls-3" d="M30,63.8V56.49H28.82V51.13a1.55,1.55,0,0,1,1.55-1.55h3.38a1.55,1.55,0,0,1,1.55,1.55v5.36H34.06v7.25" transform="translate(3.11 -1.85)"/><line class="cls-3" x1="35.16" y1="55.48" x2="35.16" y2="61.95"/><circle class="cls-6" cx="35.16" cy="44.4" r="1.57"/><path class="cls-3" d="M40.59,63.8V56.49H39.36V51.13a1.55,1.55,0,0,1,1.55-1.55h3.38a1.55,1.55,0,0,1,1.55,1.55v5.36H44.6v7.25" transform="translate(3.11 -1.85)"/><line class="cls-3" x1="45.7" y1="55.48" x2="45.7" y2="61.95"/><circle class="cls-6" cx="45.7" cy="44.4" r="1.57"/><path class="cls-3" d="M51.13,63.8V56.49H49.9V51.13a1.55,1.55,0,0,1,1.55-1.55h3.38a1.55,1.55,0,0,1,1.55,1.55v5.36H55.14v7.25" transform="translate(3.11 -1.85)"/><line class="cls-3" x1="56.24" y1="55.48" x2="56.24" y2="61.95"/><circle class="cls-6" cx="56.24" cy="44.4" r="1.57"/><path class="cls-3" d="M-1.57,63.8V56.49H-2.8V51.13a1.55,1.55,0,0,1,1.55-1.55H2.13a1.55,1.55,0,0,1,1.55,1.55v5.36H2.44v7.25" transform="translate(3.11 -1.85)"/><path class="cls-3" d="M72.2,64V56.66H71V51.3a1.55,1.55,0,0,1,1.55-1.55H75.9a1.55,1.55,0,0,1,1.55,1.55v5.36H76.22v7.25" transform="translate(3.11 -1.85)"/><line class="cls-3" x1="77.32" y1="55.64" x2="77.32" y2="62.12"/><circle class="cls-6" cx="77.32" cy="44.56" r="1.57"/><path class="cls-3" d="M82.74,64V56.66H81.51V51.3a1.55,1.55,0,0,1,1.55-1.55h3.38A1.55,1.55,0,0,1,88,51.3v5.36H86.75v7.25" transform="translate(3.11 -1.85)"/><line class="cls-3" x1="87.86" y1="55.64" x2="87.86" y2="62.12"/><circle class="cls-6" cx="87.86" cy="44.56" r="1.57"/><path class="cls-3" d="M93.28,64V56.66H92.05V51.3a1.55,1.55,0,0,1,1.55-1.55H97a1.55,1.55,0,0,1,1.55,1.55v5.36H97.29v7.25" transform="translate(3.11 -1.85)"/><line class="cls-3" x1="98.39" y1="55.64" x2="98.39" y2="62.12"/><circle class="cls-6" cx="98.39" cy="44.56" r="1.57"/><path class="cls-3" d="M103.82,64V56.66h-1.23V51.3a1.55,1.55,0,0,1,1.55-1.55h3.38a1.55,1.55,0,0,1,1.55,1.55v5.36h-1.23v7.25" transform="translate(3.11 -1.85)"/><line class="cls-3" x1="108.93" y1="55.64" x2="108.93" y2="62.12"/><circle class="cls-6" cx="108.93" cy="44.56" r="1.57"/><path class="cls-3" d="M114.36,64V56.66h-1.23V51.3a1.55,1.55,0,0,1,1.55-1.55h3.38a1.55,1.55,0,0,1,1.55,1.55v5.36h-1.23v7.25" transform="translate(3.11 -1.85)"/><path class="cls-3" d="M61.67,64V56.66H60.43V51.3A1.55,1.55,0,0,1,62,49.75h3.38a1.55,1.55,0,0,1,1.55,1.55v5.36H65.68v7.25" transform="translate(3.11 -1.85)"/><line class="cls-3" x1="66.78" y1="55.64" x2="66.78" y2="62.12"/><circle class="cls-6" cx="66.78" cy="44.56" r="1.57"/><path class="cls-3" d="M9,85.22V77.91H7.74V72.54A1.55,1.55,0,0,1,9.29,71h3.38a1.55,1.55,0,0,1,1.55,1.55v5.36H13v7.25" transform="translate(3.11 -1.85)"/><line class="cls-3" x1="14.08" y1="76.89" x2="14.08" y2="83.37"/><circle class="cls-7" cx="14.08" cy="65.81" r="1.57"/><path class="cls-3" d="M19.51,85.22V77.91H18.28V72.54A1.55,1.55,0,0,1,19.83,71H23.2a1.55,1.55,0,0,1,1.55,1.55v5.36H23.52v7.25" transform="translate(3.11 -1.85)"/><line class="cls-3" x1="24.62" y1="76.89" x2="24.62" y2="83.37"/><circle class="cls-7" cx="24.62" cy="65.81" r="1.57"/><path class="cls-3" d="M30,85.22V77.91H28.82V72.54A1.55,1.55,0,0,1,30.37,71h3.38a1.55,1.55,0,0,1,1.55,1.55v5.36H34.06v7.25" transform="translate(3.11 -1.85)"/><line class="cls-3" x1="35.16" y1="76.89" x2="35.16" y2="83.37"/><circle class="cls-7" cx="35.16" cy="65.81" r="1.57"/><path class="cls-3" d="M40.59,85.22V77.91H39.36V72.54A1.55,1.55,0,0,1,40.91,71h3.38a1.55,1.55,0,0,1,1.55,1.55v5.36H44.6v7.25" transform="translate(3.11 -1.85)"/><line class="cls-3" x1="45.7" y1="76.89" x2="45.7" y2="83.37"/><circle class="cls-7" cx="45.7" cy="65.81" r="1.57"/><path class="cls-3" d="M51.13,85.22V77.91H49.9V72.54A1.55,1.55,0,0,1,51.45,71h3.38a1.55,1.55,0,0,1,1.55,1.55v5.36H55.14v7.25" transform="translate(3.11 -1.85)"/><line class="cls-3" x1="56.24" y1="76.89" x2="56.24" y2="83.37"/><circle class="cls-7" cx="56.24" cy="65.81" r="1.57"/><path class="cls-3" d="M-1.57,85.22V77.91H-2.8V72.54A1.55,1.55,0,0,1-1.25,71H2.13a1.55,1.55,0,0,1,1.55,1.55v5.36H2.44v7.25" transform="translate(3.11 -1.85)"/><line class="cls-3" x1="3.55" y1="76.89" x2="3.55" y2="83.37"/><circle class="cls-7" cx="3.55" cy="65.81" r="1.57"/><path class="cls-3" d="M72.2,85.38V78.07H71V72.71a1.55,1.55,0,0,1,1.55-1.55H75.9a1.55,1.55,0,0,1,1.55,1.55v5.36H76.22v7.25" transform="translate(3.11 -1.85)"/><line class="cls-3" x1="77.32" y1="77.06" x2="77.32" y2="83.54"/><circle class="cls-7" cx="77.32" cy="65.98" r="1.57"/><path class="cls-3" d="M82.74,85.38V78.07H81.51V72.71a1.55,1.55,0,0,1,1.55-1.55h3.38A1.55,1.55,0,0,1,88,72.71v5.36H86.75v7.25" transform="translate(3.11 -1.85)"/><line class="cls-3" x1="87.86" y1="77.06" x2="87.86" y2="83.54"/><circle class="cls-7" cx="87.86" cy="65.98" r="1.57"/><path class="cls-3" d="M93.28,85.38V78.07H92.05V72.71a1.55,1.55,0,0,1,1.55-1.55H97a1.55,1.55,0,0,1,1.55,1.55v5.36H97.29v7.25" transform="translate(3.11 -1.85)"/><line class="cls-3" x1="98.39" y1="77.06" x2="98.39" y2="83.54"/><circle class="cls-7" cx="98.39" cy="65.98" r="1.57"/><path class="cls-3" d="M103.82,85.38V78.07h-1.23V72.71a1.55,1.55,0,0,1,1.55-1.55h3.38a1.55,1.55,0,0,1,1.55,1.55v5.36h-1.23v7.25" transform="translate(3.11 -1.85)"/><line class="cls-3" x1="108.93" y1="77.06" x2="108.93" y2="83.54"/><circle class="cls-7" cx="108.93" cy="65.98" r="1.57"/><path class="cls-3" d="M114.36,85.38V78.07h-1.23V72.71a1.55,1.55,0,0,1,1.55-1.55h3.38a1.55,1.55,0,0,1,1.55,1.55v5.36h-1.23v7.25" transform="translate(3.11 -1.85)"/><line class="cls-3" x1="119.47" y1="77.06" x2="119.47" y2="83.54"/><circle class="cls-7" cx="119.47" cy="65.98" r="1.57"/><path class="cls-3" d="M61.67,85.38V78.07H60.43V72.71A1.55,1.55,0,0,1,62,71.16h3.38a1.55,1.55,0,0,1,1.55,1.55v5.36H65.68v7.25" transform="translate(3.11 -1.85)"/><line class="cls-3" x1="66.78" y1="77.06" x2="66.78" y2="83.54"/><circle class="cls-7" cx="66.78" cy="65.98" r="1.57"/><path class="cls-3" d="M9,106.63V99.32H7.74V94a1.55,1.55,0,0,1,1.55-1.55h3.38A1.55,1.55,0,0,1,14.22,94v5.36H13v7.25" transform="translate(3.11 -1.85)"/><line class="cls-3" x1="14.08" y1="98.31" x2="14.08" y2="104.78"/><circle class="cls-7" cx="14.08" cy="87.23" r="1.57"/><path class="cls-3" d="M19.51,106.63V99.32H18.28V94a1.55,1.55,0,0,1,1.55-1.55H23.2A1.55,1.55,0,0,1,24.75,94v5.36H23.52v7.25" transform="translate(3.11 -1.85)"/><line class="cls-3" x1="24.62" y1="98.31" x2="24.62" y2="104.78"/><circle class="cls-7" cx="24.62" cy="87.23" r="1.57"/><path class="cls-3" d="M30,106.63V99.32H28.82V94a1.55,1.55,0,0,1,1.55-1.55h3.38A1.55,1.55,0,0,1,35.29,94v5.36H34.06v7.25" transform="translate(3.11 -1.85)"/><line class="cls-3" x1="35.16" y1="98.31" x2="35.16" y2="104.78"/><circle class="cls-7" cx="35.16" cy="87.23" r="1.57"/><path class="cls-3" d="M40.59,106.63V99.32H39.36V94a1.55,1.55,0,0,1,1.55-1.55h3.38A1.55,1.55,0,0,1,45.83,94v5.36H44.6v7.25" transform="translate(3.11 -1.85)"/><line class="cls-3" x1="45.7" y1="98.31" x2="45.7" y2="104.78"/><circle class="cls-7" cx="45.7" cy="87.23" r="1.57"/><path class="cls-3" d="M51.13,106.63V99.32H49.9V94a1.55,1.55,0,0,1,1.55-1.55h3.38A1.55,1.55,0,0,1,56.37,94v5.36H55.14v7.25" transform="translate(3.11 -1.85)"/><line class="cls-3" x1="56.24" y1="98.31" x2="56.24" y2="104.78"/><circle class="cls-7" cx="56.24" cy="87.23" r="1.57"/><path class="cls-3" d="M-1.57,106.63V99.32H-2.8V94a1.55,1.55,0,0,1,1.55-1.55H2.13A1.55,1.55,0,0,1,3.68,94v5.36H2.44v7.25" transform="translate(3.11 -1.85)"/><line class="cls-3" x1="3.55" y1="98.31" x2="3.55" y2="104.78"/><circle class="cls-4" cx="3.55" cy="87.23" r="1.57"/><path class="cls-3" d="M72.2,106.8V99.49H71V94.12a1.55,1.55,0,0,1,1.55-1.55H75.9a1.55,1.55,0,0,1,1.55,1.55v5.36H76.22v7.25" transform="translate(3.11 -1.85)"/><line class="cls-3" x1="77.32" y1="98.47" x2="77.32" y2="104.95"/><circle class="cls-7" cx="77.32" cy="87.39" r="1.57"/><path class="cls-3" d="M82.74,106.8V99.49H81.51V94.12a1.55,1.55,0,0,1,1.55-1.55h3.38A1.55,1.55,0,0,1,88,94.12v5.36H86.75v7.25" transform="translate(3.11 -1.85)"/><line class="cls-3" x1="87.86" y1="98.47" x2="87.86" y2="104.95"/><circle class="cls-7" cx="87.86" cy="87.39" r="1.57"/><path class="cls-3" d="M93.28,106.8V99.49H92.05V94.12a1.55,1.55,0,0,1,1.55-1.55H97a1.55,1.55,0,0,1,1.55,1.55v5.36H97.29v7.25" transform="translate(3.11 -1.85)"/><line class="cls-3" x1="98.39" y1="98.47" x2="98.39" y2="104.95"/><circle class="cls-7" cx="98.39" cy="87.39" r="1.57"/><path class="cls-3" d="M103.82,106.8V99.49h-1.23V94.12a1.55,1.55,0,0,1,1.55-1.55h3.38a1.55,1.55,0,0,1,1.55,1.55v5.36h-1.23v7.25" transform="translate(3.11 -1.85)"/><line class="cls-3" x1="108.93" y1="98.47" x2="108.93" y2="104.95"/><circle class="cls-7" cx="108.93" cy="87.39" r="1.57"/><path class="cls-3" d="M114.36,106.8V99.49h-1.23V94.12a1.55,1.55,0,0,1,1.55-1.55h3.38a1.55,1.55,0,0,1,1.55,1.55v5.36h-1.23v7.25" transform="translate(3.11 -1.85)"/><line class="cls-3" x1="119.47" y1="98.47" x2="119.47" y2="104.95"/><circle class="cls-4" cx="119.47" cy="87.39" r="1.57"/><path class="cls-3" d="M61.67,106.8V99.49H60.43V94.12A1.55,1.55,0,0,1,62,92.58h3.38a1.55,1.55,0,0,1,1.55,1.55v5.36H65.68v7.25" transform="translate(3.11 -1.85)"/><line class="cls-3" x1="66.78" y1="98.47" x2="66.78" y2="104.95"/><circle class="cls-7" cx="66.78" cy="87.39" r="1.57"/><path class="cls-3" d="M9,128v-7.31H7.74v-5.36a1.55,1.55,0,0,1,1.55-1.55h3.38a1.55,1.55,0,0,1,1.55,1.55v5.36H13V128" transform="translate(3.11 -1.85)"/><line class="cls-3" x1="14.08" y1="119.72" x2="14.08" y2="126.2"/><circle class="cls-5" cx="14.08" cy="108.64" r="1.57"/><path class="cls-3" d="M19.51,128v-7.31H18.28v-5.36a1.55,1.55,0,0,1,1.55-1.55H23.2a1.55,1.55,0,0,1,1.55,1.55v5.36H23.52V128" transform="translate(3.11 -1.85)"/><line class="cls-3" x1="24.62" y1="119.72" x2="24.62" y2="126.2"/><circle class="cls-5" cx="24.62" cy="108.64" r="1.57"/><path class="cls-3" d="M30,128v-7.31H28.82v-5.36a1.55,1.55,0,0,1,1.55-1.55h3.38a1.55,1.55,0,0,1,1.55,1.55v5.36H34.06V128" transform="translate(3.11 -1.85)"/><line class="cls-3" x1="35.16" y1="119.72" x2="35.16" y2="126.2"/><circle class="cls-6" cx="35.16" cy="108.64" r="1.57"/><path class="cls-3" d="M40.59,128v-7.31H39.36v-5.36a1.55,1.55,0,0,1,1.55-1.55h3.38a1.55,1.55,0,0,1,1.55,1.55v5.36H44.6V128" transform="translate(3.11 -1.85)"/><line class="cls-3" x1="45.7" y1="119.72" x2="45.7" y2="126.2"/><circle class="cls-6" cx="45.7" cy="108.64" r="1.57"/><path class="cls-3" d="M51.13,128v-7.31H49.9v-5.36a1.55,1.55,0,0,1,1.55-1.55h3.38a1.55,1.55,0,0,1,1.55,1.55v5.36H55.14V128" transform="translate(3.11 -1.85)"/><line class="cls-3" x1="56.24" y1="119.72" x2="56.24" y2="126.2"/><circle class="cls-6" cx="56.24" cy="108.64" r="1.57"/><path class="cls-3" d="M-1.57,128v-7.31H-2.8v-5.36a1.55,1.55,0,0,1,1.55-1.55H2.13a1.55,1.55,0,0,1,1.55,1.55v5.36H2.44V128" transform="translate(3.11 -1.85)"/><line class="cls-3" x1="3.55" y1="119.72" x2="3.55" y2="126.2"/><circle class="cls-5" cx="3.55" cy="108.64" r="1.57"/><path class="cls-3" d="M72.2,128.21V120.9H71v-5.36A1.55,1.55,0,0,1,72.52,114H75.9a1.55,1.55,0,0,1,1.55,1.55v5.36H76.22v7.25" transform="translate(3.11 -1.85)"/><line class="cls-3" x1="77.32" y1="119.89" x2="77.32" y2="126.36"/><circle class="cls-6" cx="77.32" cy="108.81" r="1.57"/><path class="cls-3" d="M82.74,128.21V120.9H81.51v-5.36A1.55,1.55,0,0,1,83.06,114h3.38A1.55,1.55,0,0,1,88,115.54v5.36H86.75v7.25" transform="translate(3.11 -1.85)"/><line class="cls-3" x1="87.86" y1="119.89" x2="87.86" y2="126.36"/><circle class="cls-6" cx="87.86" cy="108.81" r="1.57"/><path class="cls-3" d="M93.28,128.21V120.9H92.05v-5.36A1.55,1.55,0,0,1,93.6,114H97a1.55,1.55,0,0,1,1.55,1.55v5.36H97.29v7.25" transform="translate(3.11 -1.85)"/><line class="cls-3" x1="98.39" y1="119.89" x2="98.39" y2="126.36"/><circle class="cls-5" cx="98.39" cy="108.81" r="1.57"/><path class="cls-3" d="M103.82,128.21V120.9h-1.23v-5.36a1.55,1.55,0,0,1,1.55-1.55h3.38a1.55,1.55,0,0,1,1.55,1.55v5.36h-1.23v7.25" transform="translate(3.11 -1.85)"/><line class="cls-3" x1="108.93" y1="119.89" x2="108.93" y2="126.36"/><circle class="cls-5" cx="108.93" cy="108.81" r="1.57"/><path class="cls-3" d="M114.36,128.21V120.9h-1.23v-5.36a1.55,1.55,0,0,1,1.55-1.55h3.38a1.55,1.55,0,0,1,1.55,1.55v5.36h-1.23v7.25" transform="translate(3.11 -1.85)"/><line class="cls-3" x1="119.47" y1="119.89" x2="119.47" y2="126.36"/><circle class="cls-5" cx="119.47" cy="108.81" r="1.57"/><path class="cls-3" d="M61.67,128.21V120.9H60.43v-5.36A1.55,1.55,0,0,1,62,114h3.38a1.55,1.55,0,0,1,1.55,1.55v5.36H65.68v7.25" transform="translate(3.11 -1.85)"/><line class="cls-3" x1="66.78" y1="119.89" x2="66.78" y2="126.36"/><circle class="cls-6" cx="66.78" cy="108.81" r="1.57"/></g></svg>