<svg id="Layer_2" data-name="Layer 2" xmlns="http://www.w3.org/2000/svg" viewBox="0 0 29.72 41.64"><defs><style>.cls-1{fill:#ed1c24;}.cls-2{fill:#fff;}.cls-3{fill:#0071bc;}</style></defs><title>icon-prediagnosis</title><path d="M28,41.64A1.49,1.49,0,0,0,29.72,40V6.11a1.47,1.47,0,0,0-1.66-1.65h-5.8V3.51h0V3.17a1.48,1.48,0,0,0-1.66-1.68H18.85a12.46,12.46,0,0,0-1.42.05A2.8,2.8,0,0,0,14.86,0a2.73,2.73,0,0,0-2.52,1.49H9.12A1.47,1.47,0,0,0,7.45,3.13V3.5h0v.94H1.65A1.48,1.48,0,0,0,0,6.12V39.93a1.49,1.49,0,0,0,1.68,1.71H28Z"/><rect class="cls-1" x="1.4" y="11.52" width="26.93" height="11.67"/><path class="cls-2" d="M8.85,5.17h0v-2c0-.13,0-.2,0-.23a1,1,0,0,1,.26,0h3.24a1.22,1.22,0,0,0,1.17-.69,1.41,1.41,0,0,1,1.35-.8h0a1.4,1.4,0,0,1,1.32.8,1.24,1.24,0,0,0,1.2.69h3.45a1.14,1.14,0,0,1,0,.28v2h0V7.28h-12Z"/><path class="cls-2" d="M1.4,6.12c0-.14,0-.21,0-.23a1,1,0,0,1,.25,0h5.8V8a.7.7,0,0,0,.7.7H21.58a.7.7,0,0,0,.7-.7V5.86h5.79a2.35,2.35,0,0,0,.24,0,1.07,1.07,0,0,1,0,.24V17.28h-.42c-.71,0-1.41,0-2.11,0a1.46,1.46,0,0,0-1.28.64c-.62.86-1.25,1.72-1.88,2.57l-.12.16-2-6.85a.7.7,0,0,0-1.27-.17L16,19,15,16.17a.7.7,0,0,0-.56-.47.69.69,0,0,0-.67.28l-3.2,4.42L8.8,12.33a.7.7,0,0,0-1.25-.26l-.12.16-.2.28-.58.9L4.16,17.28c-.75,0-1.51,0-2.28,0H1.4Z"/><path class="cls-2" d="M1.45,40.24h0a1.4,1.4,0,0,1,0-.31V18.67h.48c.76,0,1.5,0,2.25,0A1.34,1.34,0,0,0,5.37,18c.8-1.26,1.61-2.52,2.43-3.77l1.78,8a.7.7,0,0,0,.54.53.68.68,0,0,0,.71-.27l3.32-4.58,1,3a.71.71,0,0,0,.58.47.69.69,0,0,0,.67-.33l3.25-5.3,1.92,6.66a.7.7,0,0,0,.54.49h.13a.7.7,0,0,0,.55-.27l1-1.29c.64-.86,1.27-1.72,2-2.65.71,0,1.42,0,2.15,0h.42V40c0,.15,0,.23,0,.25a1.09,1.09,0,0,1-.27,0H1.45Z"/><path class="cls-3" d="M5.31,26.86H24.39a.7.7,0,1,0,0-1.4H5.31a.7.7,0,1,0,0,1.4Z"/><path class="cls-3" d="M5.32,31.31H24.38a.7.7,0,1,0,0-1.4H5.32a.7.7,0,1,0,0,1.4Z"/><path class="cls-3" d="M14.2,34.39H5.33a.7.7,0,1,0,0,1.4H14.2a.7.7,0,0,0,0-1.4Z"/><circle cx="17.43" cy="35.09" r="0.67"/><circle cx="24.38" cy="35.09" r="0.67"/><circle cx="20.91" cy="35.09" r="0.67"/></svg>