<?xml version="1.0" encoding="utf-8"?>
<!-- Generator: Adobe Illustrator 21.1.0, SVG Export Plug-In . SVG Version: 6.00 Build 0)  -->
<svg version="1.1" id="Layer_1" xmlns="http://www.w3.org/2000/svg" xmlns:xlink="http://www.w3.org/1999/xlink" x="0px" y="0px"
	 viewBox="0 0 62 36" style="enable-background:new 0 0 62 36;" xml:space="preserve">
<style type="text/css">
	.st0{fill:#231F20;}
</style>
<title>icon-arrow-blue</title>
<path class="st0" d="M62,18c0-0.7-0.3-1.3-0.7-1.9l-12-15c-1-1.3-2.9-1.5-4.2-0.5c0,0,0,0,0,0c-1.2,1.1-1.4,2.9-0.5,4.2L52.8,15H3
	c-1.7,0-3,1.3-3,3s1.3,3,3,3h49.8l-8.1,10.1c-1,1.3-0.7,3.1,0.5,4.2c1.3,1,3.2,0.8,4.2-0.5c0,0,0,0,0,0l12-15
	C61.8,19.4,62,18.7,62,18z"/>
</svg>
