<svg id="Layer_2" data-name="Layer 2" xmlns="http://www.w3.org/2000/svg" viewBox="0 0 27.18 31.9"><defs><style>.cls-1{fill:#ffd213;}.cls-2{fill:#0071bc;}</style></defs><title>icon-publication</title><path d="M22.83,0H4.1V4.43h1.1V1.1H22.06V5h4V25.53H23.93v1.1h3.26V4.17Zm.33,1.83,2.12,2H23.16Z"/><path d="M0,5.3V31.9H23.08V9.47L18.73,5.3ZM19.06,7.13l2.12,2H19.06ZM1.1,30.8V6.4H18v3.88h4V30.84H1.1Z"/><path class="cls-1" d="M12.58,11H3.11V16.5h9.47Zm-1.1,4.35H4.21V12.15h7.28Z"/><rect class="cls-2" x="10.96" y="10.92" width="1.16" height="16.53" transform="translate(-7.64 30.73) rotate(-90)"/><rect class="cls-2" x="10.96" y="13.92" width="1.16" height="16.53" transform="translate(-10.64 33.73) rotate(-90)"/></svg>