<svg id="Layer_1" data-name="Layer 1" xmlns="http://www.w3.org/2000/svg" viewBox="0 0 929.93 475.64"><defs><style>.cls-1{fill:#231f20;}.cls-2,.cls-5,.cls-6{fill:none;}.cls-2{stroke:#eb1865;stroke-linecap:round;stroke-linejoin:round;stroke-width:3px;}.cls-3{fill:#fff;}.cls-4{fill:#eb1865;}.cls-6{stroke:#231f20;stroke-miterlimit:10;stroke-width:2px;}</style></defs><title>logo-cdic</title><path class="cls-1" d="M110.49,426.39a4.06,4.06,0,0,1,2.93,1.31l7.68,8.38a61.93,61.93,0,0,1-21.56,16.06Q86.86,457.9,69,457.9a71.92,71.92,0,0,1-28.38-5.4,62.17,62.17,0,0,1-21.71-15.15A68.45,68.45,0,0,1,4.95,414,87.34,87.34,0,0,1,0,384a82.09,82.09,0,0,1,5.3-30,68.54,68.54,0,0,1,14.9-23.43,66.66,66.66,0,0,1,23-15.2,78.23,78.23,0,0,1,29.54-5.4q16,0,27.52,4.95a69.59,69.59,0,0,1,20.55,13.43l-6.36,9a6.91,6.91,0,0,1-1.62,1.67,4.44,4.44,0,0,1-2.63.66,5.1,5.1,0,0,1-2.78-1q-1.46-1-3.48-2.37t-4.75-3a41.81,41.81,0,0,0-6.46-3A53.59,53.59,0,0,0,84,327.86a60.47,60.47,0,0,0-11.41-1,55.11,55.11,0,0,0-21.26,4,47.62,47.62,0,0,0-16.61,11.36,51.67,51.67,0,0,0-10.86,18A68.55,68.55,0,0,0,20,384a69.81,69.81,0,0,0,3.89,24.14A53.26,53.26,0,0,0,34.49,426,44.68,44.68,0,0,0,50.4,437.19,50.83,50.83,0,0,0,70.2,441a80.42,80.42,0,0,0,11.61-.76,47.7,47.7,0,0,0,9.54-2.37,40.24,40.24,0,0,0,8.18-4.09,63.85,63.85,0,0,0,7.63-5.91A5.13,5.13,0,0,1,110.49,426.39Z"/><path class="cls-1" d="M280.38,384a81.5,81.5,0,0,1-5.15,29.59,65.62,65.62,0,0,1-14.54,22.83,64.84,64.84,0,0,1-22.52,14.7,78.32,78.32,0,0,1-29.09,5.2H154.93V311.55h54.14a78.36,78.36,0,0,1,29.09,5.2,64.51,64.51,0,0,1,22.52,14.75,66.16,66.16,0,0,1,14.54,22.88A81.52,81.52,0,0,1,280.38,384Zm-20.1,0a72.64,72.64,0,0,0-3.64-23.84,50.24,50.24,0,0,0-10.3-17.78,44,44,0,0,0-16.16-11.11,55.87,55.87,0,0,0-21.11-3.84H174.63v113h34.44a55.84,55.84,0,0,0,21.11-3.84,44.23,44.23,0,0,0,16.16-11.06,49.7,49.7,0,0,0,10.3-17.73A72.64,72.64,0,0,0,260.28,384Z"/><path class="cls-1" d="M338.35,456.28H318.75V311.55h19.59Z"/><path class="cls-1" d="M487.22,426.39a4.06,4.06,0,0,1,2.93,1.31l7.68,8.38a61.93,61.93,0,0,1-21.56,16.06q-12.68,5.76-30.55,5.76a71.92,71.92,0,0,1-28.38-5.4,62.17,62.17,0,0,1-21.71-15.15A68.45,68.45,0,0,1,381.68,414a87.34,87.34,0,0,1-4.95-30,82.09,82.09,0,0,1,5.3-30,68.54,68.54,0,0,1,14.9-23.43,66.66,66.66,0,0,1,23-15.2,78.23,78.23,0,0,1,29.54-5.4q16,0,27.52,4.95a69.59,69.59,0,0,1,20.55,13.43l-6.36,9a6.9,6.9,0,0,1-1.62,1.67,4.43,4.43,0,0,1-2.63.66,5.1,5.1,0,0,1-2.78-1q-1.46-1-3.48-2.37t-4.75-3a41.84,41.84,0,0,0-6.46-3,53.59,53.59,0,0,0-8.69-2.37,60.47,60.47,0,0,0-11.41-1,55.11,55.11,0,0,0-21.26,4,47.62,47.62,0,0,0-16.61,11.36,51.67,51.67,0,0,0-10.86,18A68.55,68.55,0,0,0,396.72,384a69.81,69.81,0,0,0,3.89,24.14A53.26,53.26,0,0,0,411.22,426a44.68,44.68,0,0,0,15.91,11.16,50.83,50.83,0,0,0,19.8,3.84,80.42,80.42,0,0,0,11.61-.76,47.7,47.7,0,0,0,9.54-2.37,40.26,40.26,0,0,0,8.18-4.09,63.89,63.89,0,0,0,7.63-5.91A5.13,5.13,0,0,1,487.22,426.39Z"/><path class="cls-1" d="M615,339.57a1,1,0,0,1,.74.33L617.7,342a15.56,15.56,0,0,1-5.42,4,18.48,18.48,0,0,1-7.68,1.45,18.08,18.08,0,0,1-7.13-1.36,15.63,15.63,0,0,1-5.46-3.81,17.21,17.21,0,0,1-3.5-5.88,22,22,0,0,1-1.24-7.54,20.63,20.63,0,0,1,1.33-7.54,17.24,17.24,0,0,1,3.74-5.89,16.77,16.77,0,0,1,5.78-3.82,19.68,19.68,0,0,1,7.42-1.36,16.57,16.57,0,0,1,12.08,4.62l-1.6,2.26a1.71,1.71,0,0,1-.41.42,1.11,1.11,0,0,1-.66.17,1.28,1.28,0,0,1-.7-.24l-.88-.6q-.51-.35-1.19-.76a10.54,10.54,0,0,0-1.62-.76,13.41,13.41,0,0,0-2.18-.6,15.17,15.17,0,0,0-2.87-.24,13.83,13.83,0,0,0-5.34,1,12,12,0,0,0-4.18,2.86,13,13,0,0,0-2.73,4.52,17.24,17.24,0,0,0-1,6,17.56,17.56,0,0,0,1,6.07,13.41,13.41,0,0,0,2.67,4.51,11.23,11.23,0,0,0,4,2.8,12.77,12.77,0,0,0,5,1,20.21,20.21,0,0,0,2.92-.19,12,12,0,0,0,2.4-.6,10.12,10.12,0,0,0,2.06-1,16,16,0,0,0,1.92-1.49A1.29,1.29,0,0,1,615,339.57Z"/><path class="cls-1" d="M640.32,347.08h-2a2.39,2.39,0,0,1-1.07-.2,1.12,1.12,0,0,1-.53-.86l-.51-2.39q-1,.91-2,1.64a11.34,11.34,0,0,1-2,1.22,10.51,10.51,0,0,1-2.27.75,13,13,0,0,1-2.68.25,9.14,9.14,0,0,1-2.81-.42,6.4,6.4,0,0,1-2.27-1.26,6,6,0,0,1-1.54-2.13,7.45,7.45,0,0,1-.57-3,5.69,5.69,0,0,1,.84-2.94,7.38,7.38,0,0,1,2.7-2.51,17.61,17.61,0,0,1,4.89-1.8,33.28,33.28,0,0,1,7.39-.7v-2a7,7,0,0,0-1.28-4.56,4.64,4.64,0,0,0-3.79-1.55A8,8,0,0,0,628,325a10.51,10.51,0,0,0-2,.94q-.82.52-1.42.94a2,2,0,0,1-1.18.42,1.35,1.35,0,0,1-.8-.24,1.82,1.82,0,0,1-.55-.6L621.3,325a14.7,14.7,0,0,1,4.59-3.07,14.19,14.19,0,0,1,5.46-1,9.74,9.74,0,0,1,3.83.71,7.87,7.87,0,0,1,2.82,2,8.4,8.4,0,0,1,1.73,3.07,12.79,12.79,0,0,1,.58,4Zm-11.73-2.77a9.21,9.21,0,0,0,2.18-.24,8.65,8.65,0,0,0,1.87-.69,9.92,9.92,0,0,0,1.67-1.08,14.45,14.45,0,0,0,1.56-1.45v-5.31a30.31,30.31,0,0,0-5.31.4,14.79,14.79,0,0,0-3.55,1,5,5,0,0,0-2,1.51,3.25,3.25,0,0,0-.62,1.94,4.3,4.3,0,0,0,.33,1.76,3.33,3.33,0,0,0,.89,1.21,3.48,3.48,0,0,0,1.32.69A6,6,0,0,0,628.59,344.32Z"/><path class="cls-1" d="M646.16,347.08V321.37h2.69a1.15,1.15,0,0,1,1.22.94l.36,2.79a14.47,14.47,0,0,1,3.74-3,9.74,9.74,0,0,1,4.79-1.14,9.3,9.3,0,0,1,3.72.7,7.21,7.21,0,0,1,2.69,2,8.77,8.77,0,0,1,1.64,3.08,13.43,13.43,0,0,1,.56,4v16.37H663V330.71a6.92,6.92,0,0,0-1.33-4.53,5,5,0,0,0-4.07-1.61,7.59,7.59,0,0,0-3.75,1,12.33,12.33,0,0,0-3.21,2.61v18.94Z"/><path class="cls-1" d="M692.26,347.08h-2a2.39,2.39,0,0,1-1.07-.2,1.12,1.12,0,0,1-.53-.86l-.51-2.39q-1,.91-2,1.64a11.35,11.35,0,0,1-2,1.22,10.51,10.51,0,0,1-2.27.75,13.06,13.06,0,0,1-2.68.25,9.14,9.14,0,0,1-2.8-.42,6.4,6.4,0,0,1-2.27-1.26,6,6,0,0,1-1.54-2.13,7.45,7.45,0,0,1-.57-3,5.69,5.69,0,0,1,.84-2.94,7.37,7.37,0,0,1,2.7-2.51,17.62,17.62,0,0,1,4.89-1.8,33.27,33.27,0,0,1,7.39-.7v-2a7,7,0,0,0-1.28-4.56,4.65,4.65,0,0,0-3.79-1.55A8,8,0,0,0,680,325a10.54,10.54,0,0,0-2,.94q-.82.52-1.42.94a2.05,2.05,0,0,1-1.18.42,1.35,1.35,0,0,1-.8-.24,1.83,1.83,0,0,1-.55-.6l-.81-1.45a14.69,14.69,0,0,1,4.6-3.07,14.18,14.18,0,0,1,5.46-1,9.75,9.75,0,0,1,3.83.71,7.88,7.88,0,0,1,2.82,2,8.4,8.4,0,0,1,1.73,3.07,12.82,12.82,0,0,1,.58,4Zm-11.73-2.77a9.21,9.21,0,0,0,2.18-.24,8.66,8.66,0,0,0,1.87-.69,9.89,9.89,0,0,0,1.68-1.08,14.35,14.35,0,0,0,1.56-1.45v-5.31a30.3,30.3,0,0,0-5.3.4,14.8,14.8,0,0,0-3.55,1,4.94,4.94,0,0,0-2,1.51,3.25,3.25,0,0,0-.62,1.94,4.29,4.29,0,0,0,.33,1.76,3.32,3.32,0,0,0,.89,1.21,3.47,3.47,0,0,0,1.32.69A6,6,0,0,0,680.53,344.32Z"/><path class="cls-1" d="M716.19,347.08a1.15,1.15,0,0,1-1.22-.94l-.41-3.12a13.54,13.54,0,0,1-3.77,3.21,9.66,9.66,0,0,1-4.86,1.21,9.27,9.27,0,0,1-4-.85,8.32,8.32,0,0,1-3.07-2.5,11.92,11.92,0,0,1-2-4.11,21.16,21.16,0,0,1-.69-5.66A17.74,17.74,0,0,1,697,329a12.9,12.9,0,0,1,2.2-4.25,10.07,10.07,0,0,1,8.16-3.86,9.31,9.31,0,0,1,4,.8,9.68,9.68,0,0,1,3,2.25V309.69h4.52v37.39Zm-8.76-3.3a7.28,7.28,0,0,0,3.87-1,11.15,11.15,0,0,0,3.06-2.87V327.46a7.15,7.15,0,0,0-2.73-2.35,7.88,7.88,0,0,0-3.29-.67,6.51,6.51,0,0,0-5.53,2.56q-1.93,2.56-1.93,7.31a18.57,18.57,0,0,0,.43,4.3,8.26,8.26,0,0,0,1.27,2.94,5,5,0,0,0,2.06,1.69A6.91,6.91,0,0,0,707.44,343.78Z"/><path class="cls-1" d="M731.5,313.3a2.87,2.87,0,0,1-.27,1.23,3.55,3.55,0,0,1-.71,1,3.3,3.3,0,0,1-1,.7,3.08,3.08,0,0,1-1.24.25,3,3,0,0,1-1.23-.25,3.37,3.37,0,0,1-1.71-1.71,3,3,0,0,1-.25-1.23,3.17,3.17,0,0,1,.25-1.26,3.26,3.26,0,0,1,.7-1,3.34,3.34,0,0,1,1-.7,3,3,0,0,1,1.23-.25,3.1,3.1,0,0,1,1.24.25,3.3,3.3,0,0,1,1,.7,3.44,3.44,0,0,1,.71,1A3.05,3.05,0,0,1,731.5,313.3Zm-1,8.07v25.72H726V321.37Z"/><path class="cls-1" d="M756.33,347.08h-2a2.39,2.39,0,0,1-1.07-.2,1.12,1.12,0,0,1-.53-.86l-.51-2.39q-1,.91-2,1.64a11.35,11.35,0,0,1-2,1.22,10.51,10.51,0,0,1-2.27.75,13.06,13.06,0,0,1-2.68.25,9.14,9.14,0,0,1-2.8-.42,6.4,6.4,0,0,1-2.27-1.26,6,6,0,0,1-1.54-2.13,7.45,7.45,0,0,1-.57-3,5.69,5.69,0,0,1,.84-2.94,7.37,7.37,0,0,1,2.7-2.51,17.62,17.62,0,0,1,4.89-1.8,33.27,33.27,0,0,1,7.39-.7v-2a7,7,0,0,0-1.28-4.56,4.65,4.65,0,0,0-3.79-1.55A8,8,0,0,0,744,325a10.54,10.54,0,0,0-2,.94q-.82.52-1.42.94a2.05,2.05,0,0,1-1.18.42,1.35,1.35,0,0,1-.8-.24,1.83,1.83,0,0,1-.55-.6l-.81-1.45a14.69,14.69,0,0,1,4.6-3.07,14.18,14.18,0,0,1,5.46-1,9.75,9.75,0,0,1,3.83.71,7.88,7.88,0,0,1,2.82,2,8.4,8.4,0,0,1,1.73,3.07,12.82,12.82,0,0,1,.58,4Zm-11.73-2.77a9.21,9.21,0,0,0,2.18-.24,8.66,8.66,0,0,0,1.87-.69,9.89,9.89,0,0,0,1.68-1.08,14.35,14.35,0,0,0,1.56-1.45v-5.31a30.3,30.3,0,0,0-5.3.4,14.8,14.8,0,0,0-3.55,1,4.94,4.94,0,0,0-2,1.51,3.25,3.25,0,0,0-.62,1.94,4.29,4.29,0,0,0,.33,1.76,3.32,3.32,0,0,0,.89,1.21,3.47,3.47,0,0,0,1.32.69A6,6,0,0,0,744.6,344.32Z"/><path class="cls-1" d="M762.16,347.08V321.37h2.69a1.15,1.15,0,0,1,1.22.94l.36,2.79a14.44,14.44,0,0,1,3.74-3A9.73,9.73,0,0,1,775,321a9.3,9.3,0,0,1,3.72.7,7.2,7.2,0,0,1,2.69,2,8.73,8.73,0,0,1,1.64,3.08,13.43,13.43,0,0,1,.56,4v16.37H779V330.71a6.92,6.92,0,0,0-1.33-4.53,5,5,0,0,0-4.07-1.61,7.59,7.59,0,0,0-3.74,1,12.31,12.31,0,0,0-3.21,2.61v18.94Z"/><path class="cls-1" d="M620.92,383.82a20.48,20.48,0,0,1-1.29,7.44A16.48,16.48,0,0,1,616,397a16.28,16.28,0,0,1-5.66,3.69A19.68,19.68,0,0,1,603,402H589.4V365.62H603a19.7,19.7,0,0,1,7.31,1.31,16.21,16.21,0,0,1,5.66,3.71,16.61,16.61,0,0,1,3.66,5.75A20.49,20.49,0,0,1,620.92,383.82Zm-5.05,0a18.26,18.26,0,0,0-.91-6,12.61,12.61,0,0,0-2.59-4.47,11,11,0,0,0-4.06-2.79,14,14,0,0,0-5.31-1h-8.66V398H603a14,14,0,0,0,5.31-1,11.11,11.11,0,0,0,4.06-2.78,12.48,12.48,0,0,0,2.59-4.46A18.26,18.26,0,0,0,615.87,383.82Z"/><path class="cls-1" d="M642.75,402h-2a2.39,2.39,0,0,1-1.07-.2,1.12,1.12,0,0,1-.53-.86l-.51-2.39q-1,.91-2,1.64a11.34,11.34,0,0,1-2,1.22,10.51,10.51,0,0,1-2.27.75,13,13,0,0,1-2.68.25,9.14,9.14,0,0,1-2.81-.42,6.4,6.4,0,0,1-2.27-1.26,6,6,0,0,1-1.54-2.13,7.45,7.45,0,0,1-.57-3,5.69,5.69,0,0,1,.84-2.94,7.38,7.38,0,0,1,2.7-2.51,17.61,17.61,0,0,1,4.89-1.8,33.28,33.28,0,0,1,7.39-.7v-2A7,7,0,0,0,637,381a4.64,4.64,0,0,0-3.79-1.55,8,8,0,0,0-2.78.42,10.51,10.51,0,0,0-2,.94q-.82.52-1.42.94a2,2,0,0,1-1.18.42,1.35,1.35,0,0,1-.8-.24,1.82,1.82,0,0,1-.55-.6l-.81-1.45a14.7,14.7,0,0,1,4.59-3.07,14.19,14.19,0,0,1,5.46-1,9.74,9.74,0,0,1,3.83.71,7.87,7.87,0,0,1,2.82,2,8.4,8.4,0,0,1,1.73,3.07,12.79,12.79,0,0,1,.58,4ZM631,399.23a9.21,9.21,0,0,0,2.18-.24,8.65,8.65,0,0,0,1.87-.69,9.92,9.92,0,0,0,1.67-1.08,14.45,14.45,0,0,0,1.56-1.45v-5.31a30.31,30.31,0,0,0-5.31.4,14.79,14.79,0,0,0-3.55,1,5,5,0,0,0-2,1.51,3.25,3.25,0,0,0-.62,1.94,4.3,4.3,0,0,0,.33,1.76,3.33,3.33,0,0,0,.89,1.21,3.48,3.48,0,0,0,1.32.69A6,6,0,0,0,631,399.23Z"/><path class="cls-1" d="M656.39,402.41a6.2,6.2,0,0,1-4.68-1.7,6.79,6.79,0,0,1-1.64-4.9V380.07H647a1,1,0,0,1-.69-.24.94.94,0,0,1-.28-.75v-1.8l4.21-.53,1-7.95a1,1,0,0,1,.33-.62,1.05,1.05,0,0,1,.71-.24h2.28v8.86h7.36v3.28h-7.36V395.5a3.28,3.28,0,0,0,.79,2.41,2.75,2.75,0,0,0,2,.79,3.58,3.58,0,0,0,1.23-.19,5.3,5.3,0,0,0,.9-.42q.38-.23.65-.42a.85.85,0,0,1,.47-.19.78.78,0,0,1,.63.43l1.32,2.16a8.41,8.41,0,0,1-2.82,1.71A9.58,9.58,0,0,1,656.39,402.41Z"/><path class="cls-1" d="M684.39,402h-2a2.39,2.39,0,0,1-1.07-.2,1.12,1.12,0,0,1-.53-.86l-.51-2.39q-1,.91-2,1.64a11.35,11.35,0,0,1-2,1.22,10.51,10.51,0,0,1-2.27.75,13.06,13.06,0,0,1-2.68.25,9.14,9.14,0,0,1-2.8-.42,6.4,6.4,0,0,1-2.27-1.26,6,6,0,0,1-1.54-2.13,7.45,7.45,0,0,1-.57-3,5.69,5.69,0,0,1,.84-2.94,7.37,7.37,0,0,1,2.7-2.51,17.62,17.62,0,0,1,4.89-1.8,33.27,33.27,0,0,1,7.39-.7v-2a7,7,0,0,0-1.28-4.56,4.65,4.65,0,0,0-3.79-1.55,8,8,0,0,0-2.78.42,10.54,10.54,0,0,0-2,.94q-.82.52-1.42.94a2.05,2.05,0,0,1-1.18.42,1.35,1.35,0,0,1-.8-.24,1.83,1.83,0,0,1-.55-.6l-.81-1.45a14.69,14.69,0,0,1,4.6-3.07,14.18,14.18,0,0,1,5.46-1,9.75,9.75,0,0,1,3.83.71,7.88,7.88,0,0,1,2.82,2,8.4,8.4,0,0,1,1.73,3.07,12.82,12.82,0,0,1,.58,4Zm-11.73-2.77a9.21,9.21,0,0,0,2.18-.24,8.66,8.66,0,0,0,1.87-.69,9.89,9.89,0,0,0,1.68-1.08,14.35,14.35,0,0,0,1.56-1.45v-5.31a30.3,30.3,0,0,0-5.3.4,14.8,14.8,0,0,0-3.55,1,4.94,4.94,0,0,0-2,1.51,3.25,3.25,0,0,0-.62,1.94,4.29,4.29,0,0,0,.33,1.76,3.32,3.32,0,0,0,.89,1.21A3.47,3.47,0,0,0,671,399,6,6,0,0,0,672.66,399.23Z"/><path class="cls-1" d="M705.56,402h-4.92V365.62h4.92Z"/><path class="cls-1" d="M713.58,402V376.28h2.69a1.15,1.15,0,0,1,1.22.94l.36,2.79a14.47,14.47,0,0,1,3.74-3,9.74,9.74,0,0,1,4.79-1.14,9.3,9.3,0,0,1,3.72.7,7.21,7.21,0,0,1,2.69,2,8.77,8.77,0,0,1,1.64,3.08,13.43,13.43,0,0,1,.56,4V402h-4.52V385.63a6.92,6.92,0,0,0-1.33-4.53,5,5,0,0,0-4.07-1.61,7.59,7.59,0,0,0-3.75,1,12.33,12.33,0,0,0-3.21,2.61V402Z"/><path class="cls-1" d="M748.58,402.41a6.2,6.2,0,0,1-4.68-1.7,6.79,6.79,0,0,1-1.64-4.9V380.07h-3.1a1,1,0,0,1-.69-.24.94.94,0,0,1-.28-.75v-1.8l4.21-.53,1-7.95a1,1,0,0,1,.33-.62,1.05,1.05,0,0,1,.71-.24h2.29v8.86h7.36v3.28h-7.36V395.5a3.28,3.28,0,0,0,.79,2.41,2.75,2.75,0,0,0,2,.79,3.59,3.59,0,0,0,1.23-.19,5.3,5.3,0,0,0,.9-.42q.38-.23.65-.42a.84.84,0,0,1,.47-.19.78.78,0,0,1,.63.43l1.32,2.16a8.4,8.4,0,0,1-2.82,1.71A9.59,9.59,0,0,1,748.58,402.41Z"/><path class="cls-1" d="M767.88,375.88a11.49,11.49,0,0,1,4.26.77,9.59,9.59,0,0,1,3.38,2.23,10.19,10.19,0,0,1,2.22,3.6,13.92,13.92,0,0,1,.8,4.89,3,3,0,0,1-.23,1.42,1,1,0,0,1-.86.36H760.34a14.21,14.21,0,0,0,.66,4.24,8.67,8.67,0,0,0,1.68,3,6.71,6.71,0,0,0,2.54,1.8,8.72,8.72,0,0,0,3.3.6,9.67,9.67,0,0,0,2.93-.39,14,14,0,0,0,2.12-.85,16.11,16.11,0,0,0,1.48-.85,2,2,0,0,1,1-.39,1,1,0,0,1,.86.43l1.27,1.65a8.59,8.59,0,0,1-2,1.76,12.45,12.45,0,0,1-2.5,1.23,15.85,15.85,0,0,1-2.75.72,16.89,16.89,0,0,1-2.82.24,13.08,13.08,0,0,1-4.91-.9,10.77,10.77,0,0,1-3.88-2.64,12.11,12.11,0,0,1-2.55-4.3,17.5,17.5,0,0,1-.91-5.89,15,15,0,0,1,.83-5,11.83,11.83,0,0,1,2.37-4,10.93,10.93,0,0,1,3.78-2.69A12.42,12.42,0,0,1,767.88,375.88Zm.1,3.33a6.94,6.94,0,0,0-5.15,1.89,8.9,8.9,0,0,0-2.34,5.24h14a9.17,9.17,0,0,0-.43-2.88,6.43,6.43,0,0,0-1.27-2.26,5.69,5.69,0,0,0-2-1.47A6.89,6.89,0,0,0,768,379.2Z"/><path class="cls-1" d="M791.94,375.85a12.8,12.8,0,0,1,3.13.37,9.89,9.89,0,0,1,2.65,1.08h7V379q0,.84-1.07,1.07l-2.92.41a7.82,7.82,0,0,1,.86,3.68,7.91,7.91,0,0,1-.72,3.41,7.73,7.73,0,0,1-2,2.63,9,9,0,0,1-3,1.68,12.25,12.25,0,0,1-3.87.58,13,13,0,0,1-3.4-.43,4.32,4.32,0,0,0-1.23,1.13,2.07,2.07,0,0,0-.42,1.18,1.6,1.6,0,0,0,.74,1.43,5.12,5.12,0,0,0,2,.7,16.33,16.33,0,0,0,2.77.21h3.16a17.57,17.57,0,0,1,3.16.28,9.58,9.58,0,0,1,2.77.92,5.17,5.17,0,0,1,2,1.77,5.29,5.29,0,0,1,.74,2.93,6.87,6.87,0,0,1-.83,3.24,8.75,8.75,0,0,1-2.37,2.79,12.18,12.18,0,0,1-3.78,2,16.18,16.18,0,0,1-5.05.73,19.51,19.51,0,0,1-4.94-.56,11.54,11.54,0,0,1-3.52-1.5,6.53,6.53,0,0,1-2.09-2.17,5.15,5.15,0,0,1-.7-2.58,4.66,4.66,0,0,1,1.21-3.24,8.26,8.26,0,0,1,3.31-2.12,4.53,4.53,0,0,1-1.74-1.36,3.65,3.65,0,0,1-.65-2.27,3.56,3.56,0,0,1,.2-1.15,4.52,4.52,0,0,1,.62-1.18,6.64,6.64,0,0,1,1-1.12,6.71,6.71,0,0,1,1.42-.94,8,8,0,0,1-3-2.83,7.74,7.74,0,0,1-1.08-4.12,7.91,7.91,0,0,1,.72-3.42,7.56,7.56,0,0,1,2-2.61,9.24,9.24,0,0,1,3.08-1.66A12.6,12.6,0,0,1,791.94,375.85Zm8,27.45a2.28,2.28,0,0,0-.53-1.58,3.44,3.44,0,0,0-1.45-.92,10.32,10.32,0,0,0-2.11-.48,19.47,19.47,0,0,0-2.51-.16h-2.69a9.8,9.8,0,0,1-2.61-.34,7.42,7.42,0,0,0-2.35,1.68,3.39,3.39,0,0,0-.9,2.36,3.11,3.11,0,0,0,.44,1.61,3.78,3.78,0,0,0,1.36,1.3,8,8,0,0,0,2.3.86,14.7,14.7,0,0,0,3.26.32,14.48,14.48,0,0,0,3.27-.34,8.14,8.14,0,0,0,2.45-1,4.66,4.66,0,0,0,1.54-1.48A3.5,3.5,0,0,0,800,403.3Zm-8-13.87a7.12,7.12,0,0,0,2.42-.38,4.9,4.9,0,0,0,1.76-1.07,4.37,4.37,0,0,0,1.07-1.64,5.93,5.93,0,0,0,.36-2.09,5,5,0,0,0-1.43-3.76,6.9,6.9,0,0,0-8.33,0,5,5,0,0,0-1.43,3.76,5.76,5.76,0,0,0,.37,2.09A4.5,4.5,0,0,0,787.8,388a4.91,4.91,0,0,0,1.75,1.07A6.91,6.91,0,0,0,791.94,389.43Z"/><path class="cls-1" d="M808.21,402V376.28h2.59a1.43,1.43,0,0,1,1,.28,1.71,1.71,0,0,1,.38,1l.3,4a11.77,11.77,0,0,1,3.26-4.2,7.7,7.7,0,0,1,6.49-1.27,6.78,6.78,0,0,1,1.6.67l-.58,3.38a.76.76,0,0,1-.79.63,4,4,0,0,1-1.09-.24,6.87,6.87,0,0,0-2.06-.24,5.82,5.82,0,0,0-3.95,1.37,10.3,10.3,0,0,0-2.65,4V402Z"/><path class="cls-1" d="M845.58,402h-2a2.39,2.39,0,0,1-1.07-.2,1.12,1.12,0,0,1-.53-.86l-.51-2.39q-1,.91-2,1.64a11.34,11.34,0,0,1-2,1.22,10.51,10.51,0,0,1-2.27.75,13,13,0,0,1-2.68.25,9.14,9.14,0,0,1-2.81-.42,6.4,6.4,0,0,1-2.27-1.26,6,6,0,0,1-1.54-2.13,7.45,7.45,0,0,1-.57-3,5.69,5.69,0,0,1,.84-2.94,7.38,7.38,0,0,1,2.7-2.51,17.61,17.61,0,0,1,4.89-1.8,33.28,33.28,0,0,1,7.39-.7v-2a7,7,0,0,0-1.28-4.56,4.64,4.64,0,0,0-3.79-1.55,8,8,0,0,0-2.78.42,10.51,10.51,0,0,0-2,.94q-.82.52-1.42.94a2,2,0,0,1-1.18.42,1.35,1.35,0,0,1-.8-.24,1.82,1.82,0,0,1-.55-.6l-.81-1.45a14.7,14.7,0,0,1,4.59-3.07,14.19,14.19,0,0,1,5.46-1,9.74,9.74,0,0,1,3.83.71,7.87,7.87,0,0,1,2.82,2,8.4,8.4,0,0,1,1.73,3.07,12.79,12.79,0,0,1,.58,4Zm-11.73-2.77A9.21,9.21,0,0,0,836,399a8.65,8.65,0,0,0,1.87-.69,9.92,9.92,0,0,0,1.67-1.08,14.45,14.45,0,0,0,1.56-1.45v-5.31a30.31,30.31,0,0,0-5.31.4,14.79,14.79,0,0,0-3.55,1,5,5,0,0,0-2,1.51,3.25,3.25,0,0,0-.62,1.94,4.3,4.3,0,0,0,.33,1.76,3.33,3.33,0,0,0,.89,1.21,3.48,3.48,0,0,0,1.32.69A6,6,0,0,0,833.85,399.23Z"/><path class="cls-1" d="M859.21,402.41a6.2,6.2,0,0,1-4.68-1.7,6.79,6.79,0,0,1-1.64-4.9V380.07h-3.1a1,1,0,0,1-.69-.24.94.94,0,0,1-.28-.75v-1.8l4.21-.53,1-7.95a1,1,0,0,1,.33-.62,1.05,1.05,0,0,1,.71-.24h2.28v8.86h7.36v3.28h-7.36V395.5a3.28,3.28,0,0,0,.79,2.41,2.75,2.75,0,0,0,2,.79,3.58,3.58,0,0,0,1.23-.19,5.3,5.3,0,0,0,.9-.42q.38-.23.65-.42a.85.85,0,0,1,.47-.19.78.78,0,0,1,.63.43l1.32,2.16a8.41,8.41,0,0,1-2.82,1.71A9.58,9.58,0,0,1,859.21,402.41Z"/><path class="cls-1" d="M875.38,368.21a2.87,2.87,0,0,1-.27,1.23,3.55,3.55,0,0,1-.71,1,3.29,3.29,0,0,1-1,.7,3.08,3.08,0,0,1-1.24.25,3,3,0,0,1-1.23-.25,3.38,3.38,0,0,1-1.71-1.71,3,3,0,0,1-.25-1.23,3.19,3.19,0,0,1,.25-1.26,3.24,3.24,0,0,1,.7-1,3.34,3.34,0,0,1,1-.7,3,3,0,0,1,1.23-.25,3.09,3.09,0,0,1,1.24.25,3.3,3.3,0,0,1,1,.7,3.44,3.44,0,0,1,.71,1A3.05,3.05,0,0,1,875.38,368.21Zm-1,8.07V402h-4.52V376.28Z"/><path class="cls-1" d="M891.73,375.88a13.21,13.21,0,0,1,5.09.94,10.73,10.73,0,0,1,3.86,2.67,11.81,11.81,0,0,1,2.44,4.18,18.06,18.06,0,0,1,0,11,11.84,11.84,0,0,1-2.44,4.16,10.59,10.59,0,0,1-3.86,2.65,14.44,14.44,0,0,1-10.18,0,10.72,10.72,0,0,1-3.87-2.65,11.87,11.87,0,0,1-2.46-4.16,17.81,17.81,0,0,1,0-11,11.84,11.84,0,0,1,2.46-4.18,10.86,10.86,0,0,1,3.87-2.67A13.21,13.21,0,0,1,891.73,375.88Zm0,22.95a6.6,6.6,0,0,0,5.69-2.55,14.5,14.5,0,0,0,0-14.28,6.59,6.59,0,0,0-5.69-2.56,7.88,7.88,0,0,0-3.35.66A6.27,6.27,0,0,0,886,382a8.47,8.47,0,0,0-1.42,3.06,18.07,18.07,0,0,0,0,8.19,8.32,8.32,0,0,0,1.42,3,6.32,6.32,0,0,0,2.37,1.89A7.88,7.88,0,0,0,891.73,398.83Z"/><path class="cls-1" d="M908.53,402V376.28h2.69a1.15,1.15,0,0,1,1.22.94l.36,2.79a14.44,14.44,0,0,1,3.74-3,9.73,9.73,0,0,1,4.79-1.14,9.3,9.3,0,0,1,3.72.7,7.2,7.2,0,0,1,2.69,2,8.73,8.73,0,0,1,1.64,3.08,13.43,13.43,0,0,1,.56,4V402h-4.52V385.63a6.92,6.92,0,0,0-1.33-4.53,5,5,0,0,0-4.07-1.61,7.59,7.59,0,0,0-3.74,1,12.31,12.31,0,0,0-3.21,2.61V402Z"/><path class="cls-1" d="M615,449.4a1,1,0,0,1,.74.33l1.93,2.11a15.56,15.56,0,0,1-5.42,4,18.48,18.48,0,0,1-7.68,1.45,18.08,18.08,0,0,1-7.13-1.36,15.63,15.63,0,0,1-5.46-3.81,17.21,17.21,0,0,1-3.5-5.88,22,22,0,0,1-1.24-7.54,20.63,20.63,0,0,1,1.33-7.54,17.24,17.24,0,0,1,3.74-5.89,16.77,16.77,0,0,1,5.78-3.82,19.68,19.68,0,0,1,7.42-1.36,16.57,16.57,0,0,1,12.08,4.62L616,427a1.71,1.71,0,0,1-.41.42,1.11,1.11,0,0,1-.66.17,1.28,1.28,0,0,1-.7-.24l-.88-.6q-.51-.35-1.19-.76a10.54,10.54,0,0,0-1.62-.76,13.41,13.41,0,0,0-2.18-.6,15.17,15.17,0,0,0-2.87-.24,13.83,13.83,0,0,0-5.34,1,12,12,0,0,0-4.18,2.86,13,13,0,0,0-2.73,4.52,17.24,17.24,0,0,0-1,6,17.56,17.56,0,0,0,1,6.07,13.41,13.41,0,0,0,2.67,4.51,11.23,11.23,0,0,0,4,2.8,12.77,12.77,0,0,0,5,1,20.21,20.21,0,0,0,2.92-.19,12,12,0,0,0,2.4-.6,10.12,10.12,0,0,0,2.06-1,16,16,0,0,0,1.92-1.49A1.29,1.29,0,0,1,615,449.4Z"/><path class="cls-1" d="M631.61,430.79a11.49,11.49,0,0,1,4.26.77,9.59,9.59,0,0,1,3.38,2.23,10.19,10.19,0,0,1,2.22,3.6,13.92,13.92,0,0,1,.8,4.89,3,3,0,0,1-.23,1.42,1,1,0,0,1-.86.36H624.07a14.21,14.21,0,0,0,.66,4.24,8.67,8.67,0,0,0,1.68,3,6.71,6.71,0,0,0,2.54,1.8,8.72,8.72,0,0,0,3.3.6,9.67,9.67,0,0,0,2.93-.39,14,14,0,0,0,2.12-.85,16.11,16.11,0,0,0,1.48-.85,2,2,0,0,1,1-.39,1,1,0,0,1,.86.43l1.27,1.65a8.59,8.59,0,0,1-2,1.76,12.45,12.45,0,0,1-2.5,1.23,15.85,15.85,0,0,1-2.75.72,16.89,16.89,0,0,1-2.82.24,13.08,13.08,0,0,1-4.91-.9,10.77,10.77,0,0,1-3.88-2.64,12.11,12.11,0,0,1-2.55-4.3,17.5,17.5,0,0,1-.91-5.89,15,15,0,0,1,.83-5,11.83,11.83,0,0,1,2.37-4,10.93,10.93,0,0,1,3.78-2.69A12.42,12.42,0,0,1,631.61,430.79Zm.1,3.33a6.94,6.94,0,0,0-5.15,1.89,8.9,8.9,0,0,0-2.34,5.24h14a9.17,9.17,0,0,0-.43-2.88,6.43,6.43,0,0,0-1.27-2.26,5.69,5.69,0,0,0-2-1.47A6.89,6.89,0,0,0,631.71,434.12Z"/><path class="cls-1" d="M647,456.92V431.2h2.69a1.15,1.15,0,0,1,1.22.94l.36,2.79a14.44,14.44,0,0,1,3.74-3,9.73,9.73,0,0,1,4.79-1.14,9.3,9.3,0,0,1,3.72.7,7.2,7.2,0,0,1,2.69,2,8.73,8.73,0,0,1,1.64,3.08,13.43,13.43,0,0,1,.56,4v16.37H663.9V440.54a6.92,6.92,0,0,0-1.33-4.53,5,5,0,0,0-4.07-1.61,7.59,7.59,0,0,0-3.74,1,12.31,12.31,0,0,0-3.21,2.61v18.94Z"/><path class="cls-1" d="M682,457.32a6.2,6.2,0,0,1-4.68-1.7,6.79,6.79,0,0,1-1.64-4.9V435h-3.1a1,1,0,0,1-.69-.24.94.94,0,0,1-.28-.75v-1.8l4.21-.53,1-7.95a1,1,0,0,1,.33-.62,1.05,1.05,0,0,1,.71-.24h2.29v8.86h7.36V435h-7.36v15.43a3.28,3.28,0,0,0,.79,2.41,2.75,2.75,0,0,0,2,.79,3.59,3.59,0,0,0,1.23-.19,5.3,5.3,0,0,0,.9-.42q.38-.23.65-.42a.84.84,0,0,1,.47-.19.78.78,0,0,1,.63.43l1.32,2.16a8.4,8.4,0,0,1-2.82,1.71A9.59,9.59,0,0,1,682,457.32Z"/><path class="cls-1" d="M692.15,456.92V431.2h2.59a1.43,1.43,0,0,1,1,.28,1.72,1.72,0,0,1,.38,1l.3,4a11.75,11.75,0,0,1,3.26-4.2,7.7,7.7,0,0,1,6.49-1.27,6.79,6.79,0,0,1,1.6.67l-.58,3.38a.76.76,0,0,1-.79.63,4,4,0,0,1-1.09-.24,6.88,6.88,0,0,0-2.06-.24,5.82,5.82,0,0,0-3.95,1.37,10.29,10.29,0,0,0-2.65,4v16.37Z"/><path class="cls-1" d="M720.76,430.79a11.49,11.49,0,0,1,4.26.77,9.59,9.59,0,0,1,3.38,2.23,10.2,10.2,0,0,1,2.22,3.6,13.92,13.92,0,0,1,.8,4.89,3,3,0,0,1-.23,1.42,1,1,0,0,1-.86.36H713.22a14.17,14.17,0,0,0,.66,4.24,8.68,8.68,0,0,0,1.67,3,6.72,6.72,0,0,0,2.54,1.8,8.72,8.72,0,0,0,3.3.6,9.68,9.68,0,0,0,2.93-.39,14,14,0,0,0,2.12-.85,16.14,16.14,0,0,0,1.49-.85,2,2,0,0,1,1-.39,1,1,0,0,1,.86.43l1.27,1.65a8.6,8.6,0,0,1-2,1.76,12.45,12.45,0,0,1-2.5,1.23,15.86,15.86,0,0,1-2.75.72,16.9,16.9,0,0,1-2.82.24,13.08,13.08,0,0,1-4.91-.9,10.79,10.79,0,0,1-3.88-2.64,12.11,12.11,0,0,1-2.55-4.3,17.5,17.5,0,0,1-.91-5.89,15,15,0,0,1,.83-5,11.84,11.84,0,0,1,2.37-4,10.93,10.93,0,0,1,3.78-2.69A12.42,12.42,0,0,1,720.76,430.79Zm.1,3.33a6.94,6.94,0,0,0-5.15,1.89,8.91,8.91,0,0,0-2.33,5.24h14a9.14,9.14,0,0,0-.43-2.88,6.43,6.43,0,0,0-1.27-2.26,5.69,5.69,0,0,0-2-1.47A6.9,6.9,0,0,0,720.86,434.12Z"/><line class="cls-2" x1="328.7" y1="9.59" x2="328.7" y2="266.52"/><circle class="cls-3" cx="328.7" cy="10.1" r="8.91"/><path class="cls-4" d="M318.61,10.1A10.1,10.1,0,1,0,328.7,0a10.11,10.11,0,0,0-10.1,10.1Zm17.82,0a7.73,7.73,0,1,1-7.73-7.73,7.73,7.73,0,0,1,7.73,7.73Z"/><path class="cls-5" d="M269,166.48"/><path class="cls-5" d="M215.31,113.69"/><line class="cls-2" x1="363.56" y1="78.22" x2="336.56" y2="266.89"/><circle class="cls-3" cx="363.48" cy="78.72" r="8.91" transform="matrix(0.14, -0.99, 0.99, 0.14, 234.08, 427.39)"/><path class="cls-4" d="M353.49,77.29a10.1,10.1,0,1,0,11.42-8.56,10.11,10.11,0,0,0-11.42,8.56Zm17.64,2.52a7.73,7.73,0,1,1-6.55-8.74,7.73,7.73,0,0,1,6.55,8.74Z"/><line class="cls-2" x1="400.22" y1="65.47" x2="344.26" y2="268.51"/><circle class="cls-3" cx="400.08" cy="65.96" r="8.91" transform="translate(230.2 434.14) rotate(-74.59)"/><path class="cls-4" d="M390.35,63.28a10.1,10.1,0,1,0,12.42-7.05,10.11,10.11,0,0,0-12.42,7.05ZM407.53,68a7.73,7.73,0,1,1-5.4-9.5,7.73,7.73,0,0,1,5.4,9.5Z"/><line class="cls-2" x1="388.08" y1="177.99" x2="351.68" y2="271.16"/><circle class="cls-3" cx="387.89" cy="178.46" r="8.91" transform="translate(80.51 474.82) rotate(-68.66)"/><path class="cls-4" d="M378.49,174.79a10.1,10.1,0,1,0,13.08-5.73,10.11,10.11,0,0,0-13.08,5.73Zm16.6,6.49a7.73,7.73,0,1,1-4.38-10,7.73,7.73,0,0,1,4.38,10Z"/><line class="cls-2" x1="440.85" y1="125.69" x2="358.62" y2="274.83"/><circle class="cls-3" cx="440.6" cy="126.13" r="8.91" transform="translate(117.41 451.07) rotate(-61.13)"/><path class="cls-4" d="M431.76,121.26a10.1,10.1,0,1,0,13.72-4,10.11,10.11,0,0,0-13.72,4Zm15.61,8.6a7.73,7.73,0,1,1-3-10.5,7.73,7.73,0,0,1,3,10.5Z"/><line class="cls-2" x1="502.99" y1="147.32" x2="370.66" y2="284.81"/><circle class="cls-3" cx="502.64" cy="147.68" r="8.91" transform="translate(47.67 407.41) rotate(-46.09)"/><path class="cls-4" d="M495.36,140.68a10.1,10.1,0,1,0,14.27-.27,10.11,10.11,0,0,0-14.27.27ZM508.2,153a7.73,7.73,0,1,1-.21-10.92A7.73,7.73,0,0,1,508.2,153Z"/><line class="cls-2" x1="486.5" y1="209.57" x2="375.55" y2="290.75"/><circle class="cls-3" cx="486.09" cy="209.86" r="8.91" transform="translate(-30.12 327.55) rotate(-36.19)"/><path class="cls-4" d="M480.13,201.72a10.1,10.1,0,1,0,14.11,2.19,10.11,10.11,0,0,0-14.11-2.19Zm10.52,14.38a7.73,7.73,0,1,1,1.67-10.8,7.73,7.73,0,0,1-1.67,10.8Z"/><line class="cls-2" x1="512.7" y1="223.47" x2="379.42" y2="297.51"/><circle class="cls-3" cx="512.26" cy="223.71" r="8.91" transform="translate(-44.18 276.93) rotate(-29.05)"/><path class="cls-4" d="M507.36,214.89a10.1,10.1,0,1,0,13.73,3.92,10.11,10.11,0,0,0-13.73-3.92ZM516,230.47A7.73,7.73,0,1,1,519,220a7.73,7.73,0,0,1-3,10.51Z"/><line class="cls-2" x1="450.87" y1="155" x2="364.98" y2="279.42"/><circle class="cls-3" cx="450.59" cy="155.41" r="8.91" transform="matrix(0.57, -0.82, 0.82, 0.57, 66.7, 437.93)"/><path class="cls-4" d="M442.28,149.68a10.1,10.1,0,1,0,14-2.57,10.11,10.11,0,0,0-14,2.57Zm14.67,10.12a7.73,7.73,0,1,1-2-10.75,7.73,7.73,0,0,1,2,10.75Z"/><line class="cls-2" x1="293.82" y1="78.07" x2="320.82" y2="266.74"/><circle class="cls-3" cx="293.9" cy="78.57" r="8.91" transform="translate(-8.17 42.41) rotate(-8.14)"/><path class="cls-4" d="M283.9,80a10.1,10.1,0,1,0,8.56-11.42A10.11,10.11,0,0,0,283.9,80Zm17.64-2.52a7.73,7.73,0,1,1-8.74-6.55,7.73,7.73,0,0,1,8.74,6.55Z"/><line class="cls-2" x1="257.16" y1="65.33" x2="313.12" y2="268.37"/><circle class="cls-3" cx="257.3" cy="65.81" r="8.91" transform="translate(-8.24 70.72) rotate(-15.41)"/><path class="cls-4" d="M247.56,68.5a10.1,10.1,0,1,0,7.05-12.42,10.11,10.11,0,0,0-7.05,12.42Zm17.18-4.73a7.73,7.73,0,1,1-9.5-5.4,7.73,7.73,0,0,1,9.5,5.4Z"/><line class="cls-2" x1="269.3" y1="177.85" x2="305.7" y2="271.01"/><circle class="cls-3" cx="269.49" cy="178.32" r="8.91" transform="translate(-46.41 110.29) rotate(-21.34)"/><path class="cls-4" d="M260.08,182a10.1,10.1,0,1,0,5.73-13.08A10.11,10.11,0,0,0,260.08,182Zm16.6-6.49a7.73,7.73,0,1,1-10-4.38,7.73,7.73,0,0,1,10,4.38Z"/><line class="cls-2" x1="216.53" y1="125.55" x2="298.76" y2="274.68"/><circle class="cls-3" cx="216.77" cy="125.99" r="8.91" transform="translate(-33.89 120.33) rotate(-28.87)"/><path class="cls-4" d="M207.93,130.86a10.1,10.1,0,1,0,4-13.72,10.11,10.11,0,0,0-4,13.72Zm15.61-8.6a7.73,7.73,0,1,1-10.5-3,7.73,7.73,0,0,1,10.5,3Z"/><line class="cls-2" x1="154.39" y1="147.17" x2="286.72" y2="284.66"/><circle class="cls-3" cx="154.74" cy="147.53" r="8.91" transform="translate(-59.06 148.55) rotate(-43.91)"/><path class="cls-4" d="M147.47,154.54a10.1,10.1,0,1,0,.27-14.27,10.11,10.11,0,0,0-.27,14.27Zm12.84-12.36a7.73,7.73,0,1,1-10.92-.21,7.73,7.73,0,0,1,10.92.21Z"/><line class="cls-2" x1="170.88" y1="209.42" x2="281.83" y2="290.61"/><circle class="cls-3" cx="171.28" cy="209.72" r="8.91" transform="translate(-99.11 224.1) rotate(-53.81)"/><path class="cls-4" d="M165.32,217.86a10.1,10.1,0,1,0-2.19-14.11,10.11,10.11,0,0,0,2.19,14.11Zm10.52-14.38a7.73,7.73,0,1,1-10.8,1.67,7.73,7.73,0,0,1,10.8-1.67Z"/><line class="cls-2" x1="144.68" y1="223.32" x2="277.96" y2="297.37"/><circle class="cls-3" cx="145.12" cy="223.56" r="8.91" transform="translate(-120.79 241.85) rotate(-60.95)"/><path class="cls-4" d="M140.21,232.39a10.1,10.1,0,1,0-3.92-13.73,10.11,10.11,0,0,0,3.92,13.73Zm8.65-15.58a7.73,7.73,0,1,1-10.51,3,7.73,7.73,0,0,1,10.51-3Z"/><line class="cls-2" x1="206.51" y1="154.85" x2="292.4" y2="279.28"/><circle class="cls-3" cx="206.79" cy="155.26" r="8.91" transform="translate(-51.6 144.97) rotate(-34.62)"/><path class="cls-4" d="M198.48,161a10.1,10.1,0,1,0,2.57-14,10.11,10.11,0,0,0-2.57,14Zm14.67-10.12a7.73,7.73,0,1,1-10.75-2,7.73,7.73,0,0,1,10.75,2Z"/><line class="cls-6" x1="550.55" y1="290.09" x2="550.55" y2="475.64"/></svg>