<svg id="Artwork" xmlns="http://www.w3.org/2000/svg" xmlns:xlink="http://www.w3.org/1999/xlink" viewBox="0 0 294.65 79.88"><defs><style>.cls-1{fill:#231f20;}.cls-2{fill:#397a3b;}.cls-3{fill:url(#radial-gradient);}.cls-4{fill:#c2c1c0;}.cls-5{font-size:21px;fill:#010101;font-family:OpenSans-Semibold, Open Sans;font-weight:700;letter-spacing:0.02em;}</style><radialGradient id="radial-gradient" cx="46.31" cy="46.33" r="46.29" gradientUnits="userSpaceOnUse"><stop offset="0" stop-color="#fff"/><stop offset="0.09" stop-color="#fafcf6"/><stop offset="0.24" stop-color="#ecf5de"/><stop offset="0.42" stop-color="#d4eab7"/><stop offset="0.63" stop-color="#b4da81"/><stop offset="0.86" stop-color="#8dc63f"/><stop offset="1" stop-color="#8dc63f"/></radialGradient></defs><title>logo-oicr-genomics-and-bioinformatics</title><path class="cls-1" d="M34.87,46V46A11.08,11.08,0,0,1,46.21,34.77,11,11,0,0,1,57.48,45.89V46A11.08,11.08,0,0,1,46.14,57.14,11,11,0,0,1,34.87,46Zm18.63,0V46a7.41,7.41,0,0,0-7.35-7.69,7.31,7.31,0,0,0-7.29,7.63V46a7.41,7.41,0,0,0,7.35,7.69A7.31,7.31,0,0,0,53.49,46Z"/><path class="cls-1" d="M60.75,35.14h3.8V56.77h-3.8Z"/><path class="cls-1" d="M67.83,46V46A10.94,10.94,0,0,1,79,34.77a11.27,11.27,0,0,1,8.46,3.37L85,41a8.6,8.6,0,0,0-6.05-2.69c-4.14,0-7.14,3.4-7.14,7.63V46c0,4.23,3,7.69,7.14,7.69,2.66,0,4.36-1.08,6.21-2.81l2.44,2.47a11.16,11.16,0,0,1-8.77,3.83A10.87,10.87,0,0,1,67.83,46Z"/><path class="cls-1" d="M90.65,35.14h9.64a8.71,8.71,0,0,1,6.24,2.16A6.54,6.54,0,0,1,108.32,42V42c0,3.55-2.13,5.68-5.16,6.55L109,56.77h-4.48l-5.31-7.54H94.45v7.54h-3.8ZM100,45.86c2.72,0,4.45-1.42,4.45-3.61v-.06c0-2.32-1.67-3.58-4.48-3.58H94.45v7.26Z"/><path class="cls-2" d="M26.07,43.62l-8.4-1.1a28.81,28.81,0,0,1,.72-3.7L26.57,41A20.35,20.35,0,0,0,26.07,43.62ZM13.77,65.09,6.18,69.47a46.46,46.46,0,0,0,3.37,5l7-5.34A37.63,37.63,0,0,1,13.77,65.09ZM19.71,19.7l-6.13-6.13a46.58,46.58,0,0,1,4.56-4l5.27,6.86A37.8,37.8,0,0,0,19.71,19.7Zm41.17-8.2L64.2,3.57a45.86,45.86,0,0,0-5.73-2l-2.24,8.3A37.3,37.3,0,0,1,60.88,11.5ZM8.74,46.31H0v0a46.74,46.74,0,0,0,.39,6l8.68-1.12A37.93,37.93,0,0,1,8.74,46.31ZM46.39,8.61h.08V0h-.13a46.7,46.7,0,0,0-6,.39l1.11,8.54A38,38,0,0,1,46.39,8.61Zm-3.86,8.94L41.41,8.94a37.57,37.57,0,0,0-4.83,1l2.24,8.39A28.77,28.77,0,0,1,42.53,17.55ZM28.7,23.32l-5.29-6.89a37.8,37.8,0,0,0-3.7,3.26l6.14,6.14A29.12,29.12,0,0,1,28.7,23.32Zm35.38,0,5.31-6.87a37.69,37.69,0,0,0-4.09-2.76L60.93,21.2A29.16,29.16,0,0,1,64.08,23.32Zm-45.7,15.5L10,36.57a37.39,37.39,0,0,0-.95,4.82l8.61,1.13A28.81,28.81,0,0,1,18.38,38.82Zm9-.32-7.83-3.25a28.78,28.78,0,0,0-1.2,3.57L26.57,41A20.33,20.33,0,0,1,27.42,38.5ZM38.48,27.34l-3.25-7.83a28.82,28.82,0,0,0-3.39,1.69l4.24,7.34A20.4,20.4,0,0,1,38.48,27.34Zm-11,26.78-7.83,3.24a28.88,28.88,0,0,0,1.67,3.38l7.34-4.24A20.36,20.36,0,0,1,27.46,54.13ZM10,36.57,1.58,34.31A46.14,46.14,0,0,0,.4,40.26l8.65,1.13A37.39,37.39,0,0,1,10,36.57ZM21.3,60.74l-7.52,4.34a37.63,37.63,0,0,0,2.73,4.08l6.89-5.28A29.08,29.08,0,0,1,21.3,60.74ZM43.63,26l-1.1-8.4a28.77,28.77,0,0,0-3.71.74L41,26.48A20.39,20.39,0,0,1,43.63,26Z"/><path class="cls-3" d="M16.47,23.41,9.58,18.12a46.39,46.39,0,0,0-3.37,5l7.52,4.35A37.72,37.72,0,0,1,16.47,23.41ZM10,56,1.56,58.29A46.07,46.07,0,0,1,.39,52.35l8.68-1.12A37.51,37.51,0,0,0,10,56Zm9.73,16.83-6.21,6.2a46.54,46.54,0,0,1-4-4.56l7-5.34A37.79,37.79,0,0,0,19.75,72.87ZM65.3,13.69l4.32-7.42a46.33,46.33,0,0,1,5,3.38l-5.25,6.8A37.69,37.69,0,0,0,65.3,13.69Zm-33.38-2.2-3.31-8a45.86,45.86,0,0,1,5.74-1.95L36.58,9.9A37.4,37.4,0,0,0,31.91,11.49Zm14.56,5.79V8.61a38,38,0,0,1,4.92.33l-1.15,8.61A29.22,29.22,0,0,0,46.48,17.29ZM21.25,31.86,13.73,27.5a37.72,37.72,0,0,1,2.73-4.1l6.88,5.29A28.92,28.92,0,0,0,21.25,31.86ZM18.41,53.8,10,56a37.51,37.51,0,0,1-1-4.82l8.61-1.11A28.8,28.8,0,0,0,18.41,53.8Zm0-15L10,36.57a37.27,37.27,0,0,1,1.57-4.65l8,3.33A28.78,28.78,0,0,0,18.38,38.82Zm16.85-19.3-3.32-8A37.4,37.4,0,0,1,36.58,9.9l2.24,8.39A28.77,28.77,0,0,0,35.24,19.51ZM28.7,23.32l-5.29-6.89a37.68,37.68,0,0,1,4.09-2.75l4.35,7.52A29,29,0,0,0,28.7,23.32Zm0,45.92-5.3,6.88a37.92,37.92,0,0,1-3.7-3.25l6.14-6.13A29.22,29.22,0,0,0,28.75,69.24Zm23-42.77L54,18.29a28.76,28.76,0,0,1,3.58,1.22l-3.27,7.82A20.32,20.32,0,0,0,51.74,26.47ZM26.6,51.62,18.41,53.8a28.8,28.8,0,0,1-.74-3.7L26.08,49A20.42,20.42,0,0,0,26.6,51.62Zm3.52,7.11L23.4,63.89a29.08,29.08,0,0,1-2.1-3.14l7.34-4.24A20.45,20.45,0,0,0,30.12,58.73ZM43.63,26l-1.1-8.4a29.12,29.12,0,0,1,3.86-.26h.08v8.48h-.09A20.66,20.66,0,0,0,43.63,26Zm-5.14,1.39-3.25-7.83a28.77,28.77,0,0,1,3.58-1.22L41,26.48A20.36,20.36,0,0,0,38.48,27.34Zm-8.42,6.52L23.35,28.7a29.12,29.12,0,0,1,2.5-2.87l6,6A20.56,20.56,0,0,0,30.07,33.87ZM26.08,49l-8.4,1.09a29.18,29.18,0,0,1-.26-3.8h8.48A20.62,20.62,0,0,0,26.08,49Z"/><path class="cls-1" d="M36.09,28.54,31.85,21.2a29,29,0,0,0-3.15,2.12L33.86,30A20.55,20.55,0,0,1,36.09,28.54Zm-10.2,38.2-6.14,6.13a37.79,37.79,0,0,1-3.24-3.7l6.89-5.28A29.13,29.13,0,0,0,25.89,66.74Zm20.5-49.46h.08V8.61h-.08a38,38,0,0,0-5,.33l1.12,8.61A29.12,29.12,0,0,1,46.39,17.28ZM21.25,31.86,13.73,27.5a37.55,37.55,0,0,0-2.17,4.41l8,3.33A28.84,28.84,0,0,1,21.25,31.86ZM60.93,21.2l4.37-7.51a37.56,37.56,0,0,0-4.41-2.19l-3.35,8A29,29,0,0,1,60.93,21.2ZM18.41,53.8,10,56a37.41,37.41,0,0,0,1.58,4.65l8-3.32A28.7,28.7,0,0,1,18.41,53.8ZM30.07,33.87,23.35,28.7a28.92,28.92,0,0,0-2.1,3.16l7.33,4.25A20.56,20.56,0,0,1,30.07,33.87Zm-4.17,12.4a20.67,20.67,0,0,1,.18-2.64l-8.4-1.1a29.17,29.17,0,0,0-.25,3.74v0h8.48ZM51.74,26.47,54,18.29a28.88,28.88,0,0,0-3.71-.74l-1.12,8.4A20.48,20.48,0,0,1,51.74,26.47Z"/><path class="cls-1" d="M39,66.29a2.87,2.87,0,1,1,2.61-2.89A2.61,2.61,0,0,1,39,66.29ZM39,61c-1.13,0-1.85,1-1.85,2.38,0,1.55.85,2.4,1.86,2.4,1.16,0,1.83-1,1.83-2.42C40.87,62.21,40.29,61,39,61Z"/><path class="cls-1" d="M45.83,66.13h-.69V63.91a3.29,3.29,0,0,0-.05-.83.75.75,0,0,0-.77-.51,1.23,1.23,0,0,0-1,.65v2.9h-.69v-3.9h.69v.54a1.56,1.56,0,0,1,1.33-.7,1.28,1.28,0,0,1,.9.29,1.25,1.25,0,0,1,.33,1Z"/><path class="cls-1" d="M47.71,64.91c0,.5,0,1,.55,1a1,1,0,0,0,.47-.13l.11.18a1.2,1.2,0,0,1-.84.34,1.16,1.16,0,0,1-.64-.18c-.31-.22-.34-.54-.34-1V62.67h-.54v-.44H47v-1h.7v1h.82v.44h-.82Z"/><path class="cls-1" d="M52.23,66.13h-.67v-.46a1.39,1.39,0,0,1-1.21.61A1.24,1.24,0,0,1,49,65.06c0-.65.51-1.38,1.72-1.38a4.25,4.25,0,0,1,.86.11,1.37,1.37,0,0,0-.18-.81.87.87,0,0,0-.8-.38,1.34,1.34,0,0,0-1.19.7l-.2-.07a1.46,1.46,0,0,1,1.55-1.16,1.49,1.49,0,0,1,1.19.51,1.78,1.78,0,0,1,.29,1.21Zm-.67-1.88a3.22,3.22,0,0,0-.78-.11c-.8,0-1.07.5-1.07.88a.82.82,0,0,0,.86.8,1.4,1.4,0,0,0,1-.48Z"/><path class="cls-1" d="M53.86,66.13h-.7v-3.9h.7v.54a1.24,1.24,0,0,1,1-.63.88.88,0,0,1,.41.09v.63a1.44,1.44,0,0,0-.6-.16,1,1,0,0,0-.8.47Z"/><path class="cls-1" d="M56.15,60.67a.39.39,0,0,1,.4.4.4.4,0,0,1-.41.43.4.4,0,0,1-.4-.41A.4.4,0,0,1,56.15,60.67Zm.34,5.46h-.7v-3.9h.7Z"/><path class="cls-1" d="M60.48,65.62a1.82,1.82,0,0,1-1.49.67,1.87,1.87,0,0,1-1.22-.42,2.11,2.11,0,0,1-.63-1.62,1.9,1.9,0,0,1,1.92-2.17,1.85,1.85,0,0,1,1.84,2.05A2.43,2.43,0,0,1,60.48,65.62ZM59,62.5c-.85,0-1.15.83-1.15,1.65a2.65,2.65,0,0,0,.15,1,1,1,0,0,0,1,.73c.6,0,1.14-.45,1.14-1.7C60.16,63.29,59.82,62.5,59,62.5Z"/><path class="cls-1" d="M65,66.13h-.73v-5.4H65Z"/><path class="cls-1" d="M69.25,66.13h-.69V63.91a3.29,3.29,0,0,0-.05-.83.76.76,0,0,0-.77-.51,1.23,1.23,0,0,0-1,.65v2.9H66v-3.9h.69v.54a1.56,1.56,0,0,1,1.33-.7,1.28,1.28,0,0,1,.9.29,1.25,1.25,0,0,1,.33,1Z"/><path class="cls-1" d="M72.7,63.22a1.2,1.2,0,0,0-1.13-.66c-.5,0-.83.25-.83.6s.26.47.66.6l.41.12c.39.11,1.18.34,1.18,1.17a1.11,1.11,0,0,1-.43.89,1.76,1.76,0,0,1-1.13.34A1.81,1.81,0,0,1,70.35,66a1.36,1.36,0,0,1-.51-.89L70,65a1.62,1.62,0,0,0,.34.43,1.57,1.57,0,0,0,1,.36c.53,0,.87-.26.87-.65a.63.63,0,0,0-.39-.57,5.65,5.65,0,0,0-.77-.27C70.72,64.19,70,64,70,63.23s.54-1.16,1.42-1.16a1.72,1.72,0,0,1,1,.27,1.09,1.09,0,0,1,.47.82Z"/><path class="cls-1" d="M74.47,64.91c0,.5,0,1,.55,1a1,1,0,0,0,.47-.13l.11.18a1.2,1.2,0,0,1-.84.34,1.16,1.16,0,0,1-.64-.18c-.31-.22-.34-.54-.34-1V62.67h-.54v-.44h.54v-1h.7v1h.82v.44h-.82Z"/><path class="cls-1" d="M76.25,60.67a.39.39,0,0,1,.4.4.4.4,0,0,1-.41.43.4.4,0,0,1-.4-.41A.4.4,0,0,1,76.25,60.67Zm.34,5.46h-.7v-3.9h.7Z"/><path class="cls-1" d="M78.46,64.91c0,.5,0,1,.55,1a1,1,0,0,0,.47-.13l.11.18a1.2,1.2,0,0,1-.84.34,1.16,1.16,0,0,1-.64-.18c-.31-.22-.34-.54-.34-1V62.67h-.54v-.44h.54v-1h.7v1h.82v.44h-.82Z"/><path class="cls-1" d="M83.12,62.23v3.9h-.7v-.49a1.35,1.35,0,0,1-1.22.65,1.39,1.39,0,0,1-1.06-.44,1.56,1.56,0,0,1-.27-1.06V62.23h.7V64.5a2.09,2.09,0,0,0,.11.87.79.79,0,0,0,.73.43,1.3,1.3,0,0,0,1-.52V62.23Z"/><path class="cls-1" d="M84.84,64.91c0,.5,0,1,.55,1a1,1,0,0,0,.47-.13L86,66a1.2,1.2,0,0,1-.84.34,1.16,1.16,0,0,1-.64-.18c-.31-.22-.34-.54-.34-1V62.67h-.54v-.44h.54v-1h.7v1h.82v.44h-.82Z"/><path class="cls-1" d="M86.66,64.18A1.92,1.92,0,0,0,87,65.25a1.31,1.31,0,0,0,1.06.51,1.57,1.57,0,0,0,1.35-.8l.19.08a1.62,1.62,0,0,1-1.71,1.25,1.91,1.91,0,0,1-2-2.09,2,2,0,0,1,1.94-2.13,1.78,1.78,0,0,1,1.22.44,2.15,2.15,0,0,1,.57,1.67ZM89,63.76a1.14,1.14,0,0,0-1.12-1.21,1.23,1.23,0,0,0-1.19,1.21Z"/><path class="cls-1" d="M37.85,74.13h-.7V70.68H36.6v-.44h.55v-.48a1.07,1.07,0,0,1,.35-1,1.16,1.16,0,0,1,.69-.21.94.94,0,0,1,.77.34l-.12.16a1,1,0,0,0-.42-.1.54.54,0,0,0-.48.24,1.28,1.28,0,0,0-.08.65v.38h.8v.44h-.8Z"/><path class="cls-1" d="M42.08,73.62a1.82,1.82,0,0,1-1.49.67,1.87,1.87,0,0,1-1.22-.42,2.11,2.11,0,0,1-.63-1.62,1.9,1.9,0,0,1,1.92-2.17,1.85,1.85,0,0,1,1.84,2.05A2.43,2.43,0,0,1,42.08,73.62ZM40.63,70.5c-.85,0-1.15.83-1.15,1.65a2.66,2.66,0,0,0,.15,1,1,1,0,0,0,1,.73c.6,0,1.14-.45,1.14-1.7C41.76,71.29,41.42,70.5,40.63,70.5Z"/><path class="cls-1" d="M44,74.13h-.7v-3.9H44v.54a1.24,1.24,0,0,1,1-.63.88.88,0,0,1,.41.09v.63a1.44,1.44,0,0,0-.6-.16,1,1,0,0,0-.8.47Z"/><path class="cls-1" d="M52.27,73.83a2.22,2.22,0,0,1-1.45.46,2.6,2.6,0,0,1-2.63-2.84,2.65,2.65,0,0,1,2.68-2.89A2.14,2.14,0,0,1,52.3,69a1.58,1.58,0,0,1,.55,1l-.2.09a1.9,1.9,0,0,0-1.71-1c-1.32,0-2,1-2,2.33a2.07,2.07,0,0,0,2,2.33,2,2,0,0,0,1.74-1l.21.08A1.89,1.89,0,0,1,52.27,73.83Z"/><path class="cls-1" d="M56.56,74.13h-.67v-.46a1.39,1.39,0,0,1-1.21.61,1.24,1.24,0,0,1-1.38-1.22c0-.65.51-1.38,1.72-1.38a4.25,4.25,0,0,1,.86.11,1.37,1.37,0,0,0-.18-.81.87.87,0,0,0-.8-.38,1.34,1.34,0,0,0-1.19.7l-.2-.07a1.46,1.46,0,0,1,1.55-1.16,1.49,1.49,0,0,1,1.19.51,1.78,1.78,0,0,1,.29,1.21Zm-.67-1.88a3.22,3.22,0,0,0-.78-.11c-.8,0-1.07.5-1.07.88a.82.82,0,0,0,.86.8,1.41,1.41,0,0,0,1-.48Z"/><path class="cls-1" d="M60.74,74.13h-.69V71.92a3.27,3.27,0,0,0-.05-.83.75.75,0,0,0-.77-.51,1.23,1.23,0,0,0-1,.65v2.9H57.5v-3.9h.69v.54a1.56,1.56,0,0,1,1.33-.7,1.28,1.28,0,0,1,.9.29,1.25,1.25,0,0,1,.33,1Z"/><path class="cls-1" d="M64.39,73.91a1.66,1.66,0,0,1-1.14.38,1.85,1.85,0,0,1-1.85-2.05,2,2,0,0,1,1.93-2.17,1.74,1.74,0,0,1,1,.3,1.37,1.37,0,0,1,.56.95l-.21.07a1.66,1.66,0,0,0-.49-.6,1.34,1.34,0,0,0-.74-.23c-.7,0-1.32.56-1.32,1.6s.63,1.61,1.29,1.61a1.31,1.31,0,0,0,.76-.24,1.48,1.48,0,0,0,.51-.59l.21.07A1.72,1.72,0,0,1,64.39,73.91Z"/><path class="cls-1" d="M66,72.18a1.92,1.92,0,0,0,.34,1.07,1.31,1.31,0,0,0,1.06.51,1.57,1.57,0,0,0,1.35-.8L69,73a1.62,1.62,0,0,1-1.71,1.25,1.91,1.91,0,0,1-2-2.09,2,2,0,0,1,1.94-2.13,1.78,1.78,0,0,1,1.22.44A2.15,2.15,0,0,1,69,72.18Zm2.33-.42a1.14,1.14,0,0,0-1.12-1.21A1.23,1.23,0,0,0,66,71.76Z"/><path class="cls-1" d="M70.41,74.13h-.7v-3.9h.7v.54a1.24,1.24,0,0,1,1-.63.88.88,0,0,1,.41.09v.63a1.44,1.44,0,0,0-.6-.16,1,1,0,0,0-.8.47Z"/><path class="cls-1" d="M78.91,74.13H78.1l-1.45-2.49a3.73,3.73,0,0,1-.69,0l-.36,0v2.46h-.73v-5.4h1.45a2.48,2.48,0,0,1,1.52.31,1.29,1.29,0,0,1,.53,1.07,1.47,1.47,0,0,1-.28.86,1.52,1.52,0,0,1-.73.52ZM75.61,71.4c1.25,0,2-.47,2-1.25a.91.91,0,0,0-.22-.6,1.24,1.24,0,0,0-1-.35h-.75Z"/><path class="cls-1" d="M79.52,72.18a1.92,1.92,0,0,0,.34,1.07,1.31,1.31,0,0,0,1.06.51,1.57,1.57,0,0,0,1.35-.8l.19.08a1.62,1.62,0,0,1-1.71,1.25,1.91,1.91,0,0,1-2-2.09,2,2,0,0,1,1.94-2.13,1.78,1.78,0,0,1,1.22.44,2.15,2.15,0,0,1,.57,1.67Zm2.33-.42a1.14,1.14,0,0,0-1.12-1.21,1.23,1.23,0,0,0-1.19,1.21Z"/><path class="cls-1" d="M85.67,71.22a1.2,1.2,0,0,0-1.13-.66c-.5,0-.83.25-.83.6s.26.47.66.6l.41.12c.39.11,1.18.34,1.18,1.17a1.11,1.11,0,0,1-.43.89,1.76,1.76,0,0,1-1.13.34A1.81,1.81,0,0,1,83.32,74a1.36,1.36,0,0,1-.51-.89L83,73a1.62,1.62,0,0,0,.34.43,1.57,1.57,0,0,0,1,.36c.53,0,.87-.26.87-.65a.63.63,0,0,0-.39-.57,5.65,5.65,0,0,0-.77-.27C83.69,72.19,83,72,83,71.23s.54-1.16,1.42-1.16a1.72,1.72,0,0,1,1,.27,1.09,1.09,0,0,1,.47.82Z"/><path class="cls-1" d="M87.18,72.18a1.92,1.92,0,0,0,.34,1.07,1.31,1.31,0,0,0,1.06.51,1.57,1.57,0,0,0,1.35-.8l.19.08a1.62,1.62,0,0,1-1.71,1.25,1.91,1.91,0,0,1-2-2.09,2,2,0,0,1,1.94-2.13,1.78,1.78,0,0,1,1.22.44,2.15,2.15,0,0,1,.57,1.67Zm2.33-.42a1.14,1.14,0,0,0-1.12-1.21,1.23,1.23,0,0,0-1.19,1.21Z"/><path class="cls-1" d="M93.68,74.13H93v-.46a1.39,1.39,0,0,1-1.21.61,1.24,1.24,0,0,1-1.38-1.22c0-.65.51-1.38,1.72-1.38a4.25,4.25,0,0,1,.86.11,1.37,1.37,0,0,0-.18-.81.87.87,0,0,0-.8-.38,1.34,1.34,0,0,0-1.19.7l-.2-.07a1.46,1.46,0,0,1,1.55-1.16,1.49,1.49,0,0,1,1.19.51,1.78,1.78,0,0,1,.29,1.21ZM93,72.25a3.22,3.22,0,0,0-.78-.11c-.8,0-1.07.5-1.07.88a.82.82,0,0,0,.86.8,1.41,1.41,0,0,0,1-.48Z"/><path class="cls-1" d="M95.16,74.13h-.7v-3.9h.7v.54a1.24,1.24,0,0,1,1-.63.88.88,0,0,1,.41.09v.63a1.44,1.44,0,0,0-.6-.16,1,1,0,0,0-.8.47Z"/><path class="cls-1" d="M99.6,73.91a1.66,1.66,0,0,1-1.14.38,1.85,1.85,0,0,1-1.85-2.05,2,2,0,0,1,1.93-2.17,1.74,1.74,0,0,1,1,.3,1.37,1.37,0,0,1,.56.95l-.21.07a1.66,1.66,0,0,0-.49-.6,1.34,1.34,0,0,0-.74-.23c-.7,0-1.32.56-1.32,1.6s.63,1.61,1.29,1.61a1.31,1.31,0,0,0,.76-.24,1.48,1.48,0,0,0,.51-.59l.21.07A1.72,1.72,0,0,1,99.6,73.91Z"/><path class="cls-1" d="M103.94,74.13h-.7V71.64c0-.38,0-1.06-.78-1.06a1.09,1.09,0,0,0-.63.2,1.59,1.59,0,0,0-.44.47v2.87h-.7V68.72h.7v2.1a1.64,1.64,0,0,1,1.36-.74,1.24,1.24,0,0,1,.86.31,1.22,1.22,0,0,1,.33,1Z"/><rect class="cls-4" x="124.08" y="35.21" width="1" height="38.92"/><text class="cls-5" transform="translate(139.08 49.95)">Genomics and<tspan x="0" y="24">Bioinformatics</tspan></text></svg>