<svg id="Artwork" xmlns="http://www.w3.org/2000/svg" viewBox="0 0 485.04 351.85"><defs><style>.cls-1{fill:#fff;}</style></defs><title>logo-ontario-institute-for-cancer-research-white</title><path class="cls-1" d="M155.16,204.77v-.27c0-27.08,20.89-49.76,50.44-49.76s50.17,22.4,50.17,49.48v.27c0,27.08-20.89,49.76-50.44,49.76S155.16,231.84,155.16,204.77Zm82.88,0v-.27c0-18.69-13.61-34.23-32.71-34.23s-32.44,15.26-32.44,34v.27c0,18.69,13.61,34.23,32.71,34.23S238,223.46,238,204.77Z"/><path class="cls-1" d="M270.34,156.38h16.91V252.6H270.34Z"/><path class="cls-1" d="M301.81,204.77v-.27c0-27.35,20.48-49.76,49.62-49.76,17.73,0,28.45,6.19,37.66,15l-10.86,12.51c-7.7-7.15-15.95-12-26.94-12-18.42,0-31.75,15.12-31.75,34v.27c0,18.83,13.33,34.23,31.75,34.23,11.82,0,19.38-4.81,27.63-12.51l10.86,11c-10,10.45-21,17-39,17C322.71,254.25,301.81,232.39,301.81,204.77Z"/><path class="cls-1" d="M403.39,156.38h42.88c12.1,0,21.58,3.57,27.77,9.62,5.09,5.22,8,12.37,8,20.76V187c0,15.81-9.48,25.29-23,29.14l26,36.42H465.1l-23.64-33.54H420.3V252.6H403.39ZM445,204.08c12.1,0,19.79-6.32,19.79-16.08v-.27c0-10.31-7.42-15.94-19.93-15.94H420.3v32.3Z"/><path class="cls-1" d="M116,194.1,78.6,189.2a128.22,128.22,0,0,1,3.21-16.48l36.44,9.76A90.54,90.54,0,0,0,116,194.1ZM61.3,289.63,27.5,309.14a206.73,206.73,0,0,0,15,22.42l31-23.76A167.45,167.45,0,0,1,61.3,289.63Zm26.4-202L60.43,60.36A207.27,207.27,0,0,1,80.71,42.59l23.46,30.55A168.19,168.19,0,0,0,87.7,87.64ZM270.92,51.16l14.75-35.28a204.07,204.07,0,0,0-25.51-8.73l-10,36.93A166,166,0,0,1,270.92,51.16Zm-232,154.92L0,206.11s0,.05,0,.08a208,208,0,0,0,1.72,26.75l38.61-5A168.78,168.78,0,0,1,38.88,206.08ZM206.44,38.3h.36l0-38.3h-.58a207.82,207.82,0,0,0-26.9,1.75l5,38A169.06,169.06,0,0,1,206.44,38.3ZM189.25,78.09l-5-38.32a167.19,167.19,0,0,0-21.5,4.3l10,37.33A128,128,0,0,1,189.25,78.09ZM127.7,103.78,104.17,73.14A168.19,168.19,0,0,0,87.7,87.64L115,115A129.56,129.56,0,0,1,127.7,103.78Zm157.46,0,23.62-30.57a167.7,167.7,0,0,0-18.22-12.27l-19.44,33.4A129.77,129.77,0,0,1,285.16,103.76Zm-203.35,69-37.31-10a166.37,166.37,0,0,0-4.22,21.45l38.33,5A128.22,128.22,0,0,1,81.81,172.73ZM122,171.32,87.16,156.85a128.06,128.06,0,0,0-5.35,15.88l36.44,9.76A90.47,90.47,0,0,1,122,171.32Zm49.25-49.64L156.8,86.83a128.24,128.24,0,0,0-15.07,7.51L160.62,127A90.78,90.78,0,0,1,171.24,121.67ZM122.18,240.86,87.32,255.28a128.49,128.49,0,0,0,7.45,15l32.66-18.86A90.6,90.6,0,0,1,122.18,240.86ZM44.5,162.73,7,152.69a205.32,205.32,0,0,0-5.26,26.44l38.5,5A166.37,166.37,0,0,1,44.5,162.73ZM94.77,270.3,61.3,289.63A167.45,167.45,0,0,0,73.46,307.8l30.65-23.51A129.42,129.42,0,0,1,94.77,270.3Zm99.36-154.83-4.88-37.39a128,128,0,0,0-16.53,3.31l9.73,36.44A90.72,90.72,0,0,1,194.13,115.48Z"/><path class="cls-1" d="M73.27,104.17,42.65,80.63a206.43,206.43,0,0,0-15,22.39l33.47,19.38A167.86,167.86,0,0,1,73.27,104.17ZM44.6,249.36l-37.66,10a205,205,0,0,1-5.22-26.45l38.61-5A166.9,166.9,0,0,0,44.6,249.36Zm43.29,74.9L60.25,351.85a207.08,207.08,0,0,1-17.76-20.29l31-23.76A168.14,168.14,0,0,0,87.89,324.27ZM290.56,60.92l19.23-33a206.17,206.17,0,0,1,22.35,15.05L308.78,73.18A167.7,167.7,0,0,0,290.56,60.92ZM142,51.14,127.3,15.65A204.05,204.05,0,0,1,152.85,7l9.91,37.08A166.43,166.43,0,0,0,142,51.14Zm64.8,25.78,0-38.62a169.16,169.16,0,0,1,21.87,1.47l-5.11,38.31A130,130,0,0,0,206.82,76.92ZM94.57,141.76,61.12,122.39a167.86,167.86,0,0,1,12.15-18.22l30.62,23.54A128.69,128.69,0,0,0,94.57,141.76ZM81.93,239.42,44.6,249.36a166.9,166.9,0,0,1-4.27-21.43l38.33-5A128.16,128.16,0,0,0,81.93,239.42Zm-.12-66.69-37.31-10a165.85,165.85,0,0,1,7-20.7l35.68,14.82A128.06,128.06,0,0,0,81.81,172.73Zm75-85.9L142,51.14a166.43,166.43,0,0,1,20.74-7.08l10,37.33A128,128,0,0,0,156.8,86.83Zm-29.1,16.95L104.17,73.14a167.69,167.69,0,0,1,18.21-12.25l19.35,33.45A129,129,0,0,0,127.7,103.78Zm.22,204.33-23.58,30.6a168.74,168.74,0,0,1-16.45-14.45L115.22,297A130,130,0,0,0,127.92,308.11ZM230.24,117.78l9.85-36.41A128,128,0,0,1,256,86.8l-14.55,34.81A90.41,90.41,0,0,0,230.24,117.78ZM118.38,229.71l-36.45,9.71A128.16,128.16,0,0,1,78.66,223l37.4-4.84A90.85,90.85,0,0,0,118.38,229.71ZM134,261.34l-29.92,23a129.42,129.42,0,0,1-9.35-14l32.66-18.86A91,91,0,0,0,134,261.34Zm60.09-145.86-4.88-37.39a129.59,129.59,0,0,1,17.19-1.18h.38l0,37.72h-.39A92,92,0,0,0,194.13,115.48Zm-22.89,6.2L156.8,86.83a128,128,0,0,1,15.93-5.44l9.73,36.44A90.59,90.59,0,0,0,171.24,121.67Zm-37.46,29-29.9-23A129.59,129.59,0,0,1,115,115l26.67,26.67A91.47,91.47,0,0,0,133.79,150.7Zm-17.73,67.44L78.66,223a129.83,129.83,0,0,1-1.16-16.92l37.72,0A91.76,91.76,0,0,0,116.06,218.13Z"/><path class="cls-1" d="M160.62,127,141.73,94.34a129,129,0,0,0-14,9.43l23,29.91A91.46,91.46,0,0,1,160.62,127Zm-45.4,170L87.89,324.27A168.14,168.14,0,0,1,73.46,307.8l30.65-23.51A129.63,129.63,0,0,0,115.22,297ZM206.44,76.91h.38l0-38.62h-.36a169.06,169.06,0,0,0-22.19,1.46l5,38.32A129.59,129.59,0,0,1,206.44,76.91ZM94.57,141.76,61.12,122.39A167.08,167.08,0,0,0,51.48,142l35.68,14.82A128.35,128.35,0,0,1,94.57,141.76ZM271.11,94.32l19.44-33.4a167.12,167.12,0,0,0-19.64-9.76L256,86.8A129,129,0,0,1,271.11,94.32ZM81.93,239.42,44.6,249.36a166.47,166.47,0,0,0,7,20.68l35.7-14.76A127.73,127.73,0,0,1,81.93,239.42Zm51.86-88.72-29.9-23a128.69,128.69,0,0,0-9.32,14.05l32.64,18.89A91.51,91.51,0,0,1,133.79,150.7Zm-18.58,55.16A92,92,0,0,1,116,194.1L78.6,189.2a129.82,129.82,0,0,0-1.11,16.65c0,.07,0,.14,0,.2l37.72,0C115.22,206,115.21,205.92,115.21,205.86Zm115-88.07,9.85-36.41a128.52,128.52,0,0,0-16.52-3.3l-5,37.38A91.12,91.12,0,0,1,230.24,117.78Z"/><path class="cls-1" d="M173.75,295c-6.91,0-11.75-5-11.75-12.67,0-6.81,4-12.81,11.72-12.81,7.94,0,11.65,6.37,11.65,12.64C185.36,289.48,181,295,173.75,295Zm0-23.36c-5,0-8.24,4.56-8.24,10.59,0,6.88,3.78,10.66,8.28,10.66,5.18,0,8.14-4.63,8.14-10.76C181.89,276.82,179.27,271.6,173.71,271.6Z"/><path class="cls-1" d="M204,294.25h-3.07v-9.84a14.63,14.63,0,0,0-.24-3.68,3.36,3.36,0,0,0-3.41-2.28,5.46,5.46,0,0,0-4.67,2.89v12.91h-3.06V276.92h3.06v2.42a6.92,6.92,0,0,1,5.93-3.13,5.71,5.71,0,0,1,4,1.29c1.43,1.33,1.46,3,1.46,4.56Z"/><path class="cls-1" d="M212.3,288.84c0,2.21,0,4.39,2.45,4.39a4.53,4.53,0,0,0,2.08-.58l.48.82a5.36,5.36,0,0,1-3.75,1.5,5.15,5.15,0,0,1-2.83-.82c-1.4-1-1.53-2.38-1.53-4.46v-10.8h-2.38v-2h2.38v-4.6h3.1v4.6h3.64v2H212.3Z"/><path class="cls-1" d="M232.39,294.25h-3v-2a6.18,6.18,0,0,1-5.38,2.72c-4.05,0-6.13-2.59-6.13-5.41s2.25-6.13,7.66-6.13a18.89,18.89,0,0,1,3.85.48,6.09,6.09,0,0,0-.78-3.61,3.87,3.87,0,0,0-3.54-1.67,6,6,0,0,0-5.31,3.1,9.06,9.06,0,0,1-.89-.31c.92-3.44,3.27-5.18,6.91-5.18a6.61,6.61,0,0,1,5.31,2.25c1.29,1.63,1.29,3.44,1.29,5.38Zm-3-8.38a14.32,14.32,0,0,0-3.47-.48c-3.58,0-4.77,2.25-4.77,3.92a3.64,3.64,0,0,0,3.85,3.58,6.25,6.25,0,0,0,4.39-2.15Z"/><path class="cls-1" d="M239.68,294.25h-3.13V276.92h3.13v2.38c.58-.82,1.94-2.79,4.43-2.79a3.91,3.91,0,0,1,1.81.41v2.79a6.42,6.42,0,0,0-2.66-.71,4.47,4.47,0,0,0-3.58,2.08Z"/><path class="cls-1" d="M249.87,270a1.76,1.76,0,0,1,1.77,1.77,1.79,1.79,0,0,1-1.84,1.91,1.77,1.77,0,0,1-1.77-1.81A1.8,1.8,0,0,1,249.87,270Zm1.5,24.28h-3.1V276.88h3.1Z"/><path class="cls-1" d="M269.14,292a8.08,8.08,0,0,1-6.64,3,8.33,8.33,0,0,1-5.45-1.87c-2.59-2.25-2.79-5.62-2.79-7.22,0-6.68,3.92-9.67,8.55-9.67,5.07,0,8.21,3.81,8.21,9.13A10.82,10.82,0,0,1,269.14,292Zm-6.47-13.9c-3.78,0-5.11,3.71-5.11,7.36a11.81,11.81,0,0,0,.68,4.36,4.65,4.65,0,0,0,4.39,3.27c2.66,0,5.07-2,5.07-7.56C267.71,281.62,266.18,278.11,262.67,278.11Z"/><path class="cls-1" d="M289.06,294.25H285.8v-24h3.27Z"/><path class="cls-1" d="M308.14,294.25h-3.06v-9.84a14.63,14.63,0,0,0-.24-3.68,3.36,3.36,0,0,0-3.41-2.28,5.46,5.46,0,0,0-4.67,2.89v12.91H293.7V276.92h3.07v2.42a6.92,6.92,0,0,1,5.93-3.13,5.71,5.71,0,0,1,4,1.29c1.43,1.33,1.46,3,1.46,4.56Z"/><path class="cls-1" d="M323.5,281.31a5.35,5.35,0,0,0-5-2.93c-2.25,0-3.71,1.12-3.71,2.66s1.16,2.11,2.93,2.69l1.81.54c1.74.51,5.24,1.53,5.24,5.21a4.94,4.94,0,0,1-1.91,4,7.82,7.82,0,0,1-5,1.5,8.06,8.06,0,0,1-4.77-1.36,6,6,0,0,1-2.28-4c.27-.1.68-.2.92-.31a7.2,7.2,0,0,0,1.5,1.91,7,7,0,0,0,4.53,1.6c2.35,0,3.88-1.16,3.88-2.89a2.81,2.81,0,0,0-1.74-2.55,25.13,25.13,0,0,0-3.44-1.19c-1.74-.54-4.73-1.5-4.73-4.84,0-2.89,2.38-5.14,6.3-5.14a7.67,7.67,0,0,1,4.29,1.19,4.86,4.86,0,0,1,2.11,3.64Z"/><path class="cls-1" d="M331.4,288.84c0,2.21,0,4.39,2.45,4.39a4.54,4.54,0,0,0,2.08-.58l.48.82a5.36,5.36,0,0,1-3.75,1.5,5.16,5.16,0,0,1-2.83-.82c-1.4-1-1.53-2.38-1.53-4.46v-10.8h-2.38v-2h2.38v-4.6h3.1v4.6H335v2H331.4Z"/><path class="cls-1" d="M339.3,270a1.76,1.76,0,0,1,1.77,1.77,1.79,1.79,0,0,1-1.84,1.91,1.77,1.77,0,0,1-1.77-1.81A1.8,1.8,0,0,1,339.3,270Zm1.5,24.28h-3.1V276.88h3.1Z"/><path class="cls-1" d="M349.14,288.84c0,2.21,0,4.39,2.45,4.39a4.54,4.54,0,0,0,2.08-.58l.48.82a5.36,5.36,0,0,1-3.75,1.5,5.15,5.15,0,0,1-2.83-.82c-1.4-1-1.53-2.38-1.53-4.46v-10.8h-2.38v-2H346v-4.6h3.1v4.6h3.64v2h-3.64Z"/><path class="cls-1" d="M369.88,276.92v17.33h-3.1v-2.18a6,6,0,0,1-5.41,2.89,6.19,6.19,0,0,1-4.73-1.94c-1-1.26-1.19-2.76-1.19-4.7V276.92h3.1V287a9.31,9.31,0,0,0,.48,3.88,3.51,3.51,0,0,0,3.27,1.91,5.8,5.8,0,0,0,4.5-2.32V276.92Z"/><path class="cls-1" d="M377.54,288.84c0,2.21,0,4.39,2.45,4.39a4.54,4.54,0,0,0,2.08-.58l.48.82a5.36,5.36,0,0,1-3.75,1.5,5.16,5.16,0,0,1-2.83-.82c-1.4-1-1.53-2.38-1.53-4.46v-10.8h-2.38v-2h2.38v-4.6h3.1v4.6h3.64v2h-3.64Z"/><path class="cls-1" d="M385.62,285.6a8.56,8.56,0,0,0,1.5,4.77,5.83,5.83,0,0,0,4.7,2.25,7,7,0,0,0,6-3.54,8.92,8.92,0,0,0,.85.34c-.34,1.23-1.67,5.55-7.63,5.55-4.6,0-8.68-3.1-8.68-9.3,0-6,4-9.47,8.65-9.47a7.92,7.92,0,0,1,5.41,2c2.69,2.49,2.59,6.2,2.55,7.42ZM396,283.73c-.24-4.36-3.3-5.38-5-5.38-2.08,0-4.84,1.4-5.31,5.38Z"/><path class="cls-1" d="M168.44,329.86h-3.1V314.5h-2.45v-2h2.45v-2.15c0-1.57,0-3.17,1.57-4.33a5.18,5.18,0,0,1,3.07-1,4.18,4.18,0,0,1,3.41,1.5c-.14.21-.41.51-.54.72a4.44,4.44,0,0,0-1.87-.44,2.39,2.39,0,0,0-2.15,1.09c-.37.61-.37,1.4-.37,2.9v1.67H172v2h-3.58Z"/><path class="cls-1" d="M187.27,327.61a8.08,8.08,0,0,1-6.64,3,8.33,8.33,0,0,1-5.45-1.87c-2.59-2.25-2.79-5.62-2.79-7.22,0-6.68,3.92-9.67,8.55-9.67,5.07,0,8.21,3.81,8.21,9.13A10.82,10.82,0,0,1,187.27,327.61Zm-6.47-13.9c-3.78,0-5.11,3.71-5.11,7.36a11.82,11.82,0,0,0,.68,4.36,4.65,4.65,0,0,0,4.39,3.27c2.66,0,5.07-2,5.07-7.56C185.84,317.22,184.31,313.72,180.8,313.72Z"/><path class="cls-1" d="M195.82,329.86h-3.13V312.52h3.13v2.38c.58-.82,1.94-2.79,4.43-2.79a3.91,3.91,0,0,1,1.81.41v2.79a6.42,6.42,0,0,0-2.66-.71,4.47,4.47,0,0,0-3.58,2.08Z"/><path class="cls-1" d="M232.6,328.53a9.87,9.87,0,0,1-6.44,2c-7.94,0-11.68-6.16-11.68-12.63,0-6.78,4.05-12.84,11.92-12.84a9.51,9.51,0,0,1,6.33,2.08,7,7,0,0,1,2.45,4.29l-.89.41a8.47,8.47,0,0,0-7.59-4.43c-5.89,0-8.75,4.5-8.75,10.39,0,6.61,4,10.39,8.79,10.39a9.09,9.09,0,0,0,7.73-4.43l.92.38A8.41,8.41,0,0,1,232.6,328.53Z"/><path class="cls-1" d="M251.71,329.86h-3v-2a6.18,6.18,0,0,1-5.38,2.72c-4.05,0-6.13-2.59-6.13-5.41s2.25-6.13,7.66-6.13a18.9,18.9,0,0,1,3.85.48,6.09,6.09,0,0,0-.78-3.61,3.87,3.87,0,0,0-3.54-1.67,6,6,0,0,0-5.31,3.1,9.07,9.07,0,0,1-.89-.31c.92-3.44,3.27-5.18,6.91-5.18a6.61,6.61,0,0,1,5.31,2.25c1.29,1.63,1.29,3.44,1.29,5.38Zm-3-8.38a14.33,14.33,0,0,0-3.47-.48c-3.58,0-4.77,2.25-4.77,3.92a3.64,3.64,0,0,0,3.85,3.58,6.25,6.25,0,0,0,4.39-2.15Z"/><path class="cls-1" d="M270.3,329.86h-3.06V320a14.57,14.57,0,0,0-.24-3.68,3.36,3.36,0,0,0-3.41-2.28,5.46,5.46,0,0,0-4.67,2.89v12.91h-3.06V312.52h3.06v2.42a6.92,6.92,0,0,1,5.93-3.13,5.71,5.71,0,0,1,4,1.29c1.43,1.33,1.46,3,1.46,4.56Z"/><path class="cls-1" d="M286.51,328.87a7.37,7.37,0,0,1-5.07,1.7c-4.94,0-8.24-3.61-8.24-9.13s3.24-9.64,8.58-9.64a7.75,7.75,0,0,1,4.5,1.33,6.11,6.11,0,0,1,2.49,4.22c-.27.1-.68.24-1,.31a7.37,7.37,0,0,0-2.18-2.66,6,6,0,0,0-3.3-1c-3.1,0-5.86,2.49-5.86,7.12,0,4.8,2.79,7.19,5.72,7.19a5.83,5.83,0,0,0,3.37-1.06,6.6,6.6,0,0,0,2.25-2.62c.27.1.68.24,1,.31A7.67,7.67,0,0,1,286.51,328.87Z"/><path class="cls-1" d="M293.83,321.21a8.56,8.56,0,0,0,1.5,4.77,5.83,5.83,0,0,0,4.7,2.25,7,7,0,0,0,6-3.54,8.84,8.84,0,0,0,.85.34c-.34,1.23-1.67,5.55-7.63,5.55-4.6,0-8.68-3.1-8.68-9.3,0-6,4-9.47,8.65-9.47a7.93,7.93,0,0,1,5.42,2c2.69,2.49,2.59,6.2,2.55,7.42Zm10.35-1.87c-.24-4.36-3.3-5.38-5-5.38-2.08,0-4.84,1.4-5.31,5.38Z"/><path class="cls-1" d="M313.32,329.86h-3.13V312.52h3.13v2.38c.58-.82,1.94-2.79,4.43-2.79a3.91,3.91,0,0,1,1.8.41v2.79a6.42,6.42,0,0,0-2.66-.71,4.47,4.47,0,0,0-3.58,2.08Z"/><path class="cls-1" d="M351.15,329.86h-3.61l-6.44-11.07a16.59,16.59,0,0,1-3.07.2c-.71,0-1.09,0-1.6-.07v10.93h-3.27v-24h6.47c3.47,0,5.21.31,6.74,1.36a5.75,5.75,0,0,1,2.35,4.77,6.56,6.56,0,0,1-1.23,3.85,6.77,6.77,0,0,1-3.24,2.32ZM336.44,317.7c5.55.07,8.92-2.11,8.92-5.55a4.07,4.07,0,0,0-1-2.69c-1.09-1.26-2.59-1.57-4.6-1.57h-3.34Z"/><path class="cls-1" d="M353.88,321.21a8.56,8.56,0,0,0,1.5,4.77,5.83,5.83,0,0,0,4.7,2.25,7,7,0,0,0,6-3.54,9,9,0,0,0,.85.34c-.34,1.23-1.67,5.55-7.63,5.55-4.6,0-8.68-3.1-8.68-9.3,0-6,4-9.47,8.65-9.47a7.92,7.92,0,0,1,5.42,2c2.69,2.49,2.59,6.2,2.55,7.42Zm10.35-1.87c-.24-4.36-3.3-5.38-5-5.38-2.08,0-4.84,1.4-5.31,5.38Z"/><path class="cls-1" d="M381.23,316.92a5.35,5.35,0,0,0-5-2.93c-2.25,0-3.71,1.12-3.71,2.66s1.16,2.11,2.93,2.69l1.81.54c1.74.51,5.24,1.53,5.24,5.21a4.94,4.94,0,0,1-1.91,4,7.82,7.82,0,0,1-5,1.5,8.05,8.05,0,0,1-4.77-1.36,6,6,0,0,1-2.28-4c.27-.1.68-.2.92-.31a7.2,7.2,0,0,0,1.5,1.91,7,7,0,0,0,4.53,1.6c2.35,0,3.88-1.16,3.88-2.89a2.81,2.81,0,0,0-1.74-2.55,25.12,25.12,0,0,0-3.44-1.19c-1.74-.55-4.73-1.5-4.73-4.84,0-2.89,2.38-5.14,6.3-5.14A7.67,7.67,0,0,1,380,313a4.86,4.86,0,0,1,2.11,3.64Z"/><path class="cls-1" d="M387.93,321.21a8.56,8.56,0,0,0,1.5,4.77,5.83,5.83,0,0,0,4.7,2.25,7,7,0,0,0,6-3.54,8.84,8.84,0,0,0,.85.34c-.34,1.23-1.67,5.55-7.63,5.55-4.6,0-8.68-3.1-8.68-9.3,0-6,4-9.47,8.65-9.47a7.93,7.93,0,0,1,5.42,2c2.69,2.49,2.59,6.2,2.55,7.42Zm10.35-1.87c-.24-4.36-3.3-5.38-5-5.38-2.08,0-4.84,1.4-5.31,5.38Z"/><path class="cls-1" d="M416.85,329.86h-3v-2a6.18,6.18,0,0,1-5.38,2.72c-4.05,0-6.13-2.59-6.13-5.41S404.59,319,410,319a18.9,18.9,0,0,1,3.85.48,6.1,6.1,0,0,0-.78-3.61,3.87,3.87,0,0,0-3.54-1.67,6,6,0,0,0-5.31,3.1,9.15,9.15,0,0,1-.89-.31c.92-3.44,3.27-5.18,6.91-5.18a6.61,6.61,0,0,1,5.31,2.25c1.29,1.63,1.29,3.44,1.29,5.38Zm-3-8.38a14.32,14.32,0,0,0-3.47-.48c-3.58,0-4.77,2.25-4.77,3.92a3.64,3.64,0,0,0,3.85,3.58,6.25,6.25,0,0,0,4.39-2.15Z"/><path class="cls-1" d="M423.46,329.86h-3.13V312.52h3.13v2.38c.58-.82,1.94-2.79,4.43-2.79a3.91,3.91,0,0,1,1.8.41v2.79a6.42,6.42,0,0,0-2.66-.71,4.47,4.47,0,0,0-3.58,2.08Z"/><path class="cls-1" d="M443.21,328.87a7.37,7.37,0,0,1-5.07,1.7c-4.94,0-8.24-3.61-8.24-9.13s3.24-9.64,8.58-9.64a7.74,7.74,0,0,1,4.5,1.33,6.11,6.11,0,0,1,2.49,4.22c-.27.1-.68.24-1,.31a7.37,7.37,0,0,0-2.18-2.66,6,6,0,0,0-3.3-1c-3.1,0-5.86,2.49-5.86,7.12,0,4.8,2.79,7.19,5.72,7.19a5.83,5.83,0,0,0,3.37-1.06,6.6,6.6,0,0,0,2.25-2.62c.27.1.68.24,1,.31A7.67,7.67,0,0,1,443.21,328.87Z"/><path class="cls-1" d="M462.52,329.86h-3.1V318.79c0-1.7,0-4.7-3.47-4.7a4.83,4.83,0,0,0-2.79.89,7.07,7.07,0,0,0-2,2.11v12.77h-3.1V305.78h3.1v9.33a7.3,7.3,0,0,1,6.06-3.3,5.53,5.53,0,0,1,3.81,1.36,5.43,5.43,0,0,1,1.46,4.36Z"/></svg>