<svg xmlns="http://www.w3.org/2000/svg" viewBox="0 0 284.8 68.56"><defs><style>.cls-1{fill:#c2c1c0;}.cls-2{isolation:isolate;}.cls-3{fill:#010101;}.cls-4{fill:#65bc46;}.cls-5{fill:#231f20;}</style></defs><title>Artwork (3)</title><g id="Layer_2" data-name="Layer 2"><g id="Artwork"><rect class="cls-1" x="110.68" y="28.05" width="1" height="38.92"/><g class="cls-2"><g class="cls-2"><path class="cls-3" d="M133.25,34.37h5.95v7.77a17.53,17.53,0,0,1-2.72.66,17.24,17.24,0,0,1-2.61.19,6.59,6.59,0,0,1-5.18-2,8.27,8.27,0,0,1-1.79-5.73A7.56,7.56,0,0,1,129,29.61a7.92,7.92,0,0,1,5.76-2,11.22,11.22,0,0,1,4.45.92l-1.06,2.55a7.48,7.48,0,0,0-3.41-.82,4.21,4.21,0,0,0-3.3,1.38,5.34,5.34,0,0,0-1.24,3.72,6,6,0,0,0,1,3.73,3.44,3.44,0,0,0,2.9,1.29,10,10,0,0,0,2-.21V37h-2.84Z"/><path class="cls-3" d="M148.13,43a5.91,5.91,0,0,1-4.33-1.53,5.78,5.78,0,0,1-1.56-4.32,6.38,6.38,0,0,1,1.45-4.46,5.11,5.11,0,0,1,4-1.57,5,5,0,0,1,3.78,1.38,5.21,5.21,0,0,1,1.36,3.83v1.51h-7.4a3,3,0,0,0,.79,2.08,2.78,2.78,0,0,0,2.07.75,8.79,8.79,0,0,0,2-.21,9.79,9.79,0,0,0,1.93-.69v2.42a7.4,7.4,0,0,1-1.75.61A11.35,11.35,0,0,1,148.13,43Zm-.44-9.66a2,2,0,0,0-1.56.63,3,3,0,0,0-.65,1.79h4.39a2.59,2.59,0,0,0-.6-1.79A2.06,2.06,0,0,0,147.69,33.33Z"/><path class="cls-3" d="M166.35,42.79h-3.13v-6.7a3.15,3.15,0,0,0-.44-1.86,1.6,1.6,0,0,0-1.4-.62,2.12,2.12,0,0,0-1.9.87,5.47,5.47,0,0,0-.58,2.91v5.4h-3.13V31.32h2.39l.42,1.47h.17a3.33,3.33,0,0,1,1.44-1.26,5,5,0,0,1,2.09-.42,4,4,0,0,1,3,1.08,4.33,4.33,0,0,1,1,3.12Z"/><path class="cls-3" d="M180.41,37a6.13,6.13,0,0,1-1.48,4.38A5.35,5.35,0,0,1,174.82,43a5.76,5.76,0,0,1-2.91-.72A4.82,4.82,0,0,1,170,40.19a7,7,0,0,1-.68-3.16,6.13,6.13,0,0,1,1.47-4.37,5.41,5.41,0,0,1,4.12-1.55,5.86,5.86,0,0,1,2.91.71,4.74,4.74,0,0,1,1.94,2.07A6.89,6.89,0,0,1,180.41,37Zm-7.93,0a4.84,4.84,0,0,0,.56,2.58,2,2,0,0,0,1.82.87,2,2,0,0,0,1.8-.87,4.83,4.83,0,0,0,.55-2.58,4.83,4.83,0,0,0-.55-2.55,2,2,0,0,0-1.82-.85,2,2,0,0,0-1.8.85A4.68,4.68,0,0,0,172.48,37Z"/><path class="cls-3" d="M193.68,42.79h-3.13v-6.7a3.42,3.42,0,0,0-.41-1.86,1.48,1.48,0,0,0-1.31-.62,1.91,1.91,0,0,0-1.75.88,5.83,5.83,0,0,0-.54,2.9v5.4h-3.13V31.32h2.39l.42,1.47h.18a3.13,3.13,0,0,1,1.33-1.24,4.43,4.43,0,0,1,2-.44c1.72,0,2.88.56,3.49,1.68h.27a3,3,0,0,1,1.36-1.24,4.45,4.45,0,0,1,2-.44,4,4,0,0,1,2.94,1,4.35,4.35,0,0,1,1,3.2v7.48h-3.13v-6.7a3.32,3.32,0,0,0-.42-1.86,1.47,1.47,0,0,0-1.31-.62,1.94,1.94,0,0,0-1.71.82,4.64,4.64,0,0,0-.57,2.6Z"/><path class="cls-3" d="M204.32,28.36c0-1,.57-1.53,1.7-1.53s1.71.51,1.71,1.53a1.51,1.51,0,0,1-.43,1.13,1.79,1.79,0,0,1-1.28.41C204.89,29.9,204.32,29.38,204.32,28.36Zm3.26,14.43h-3.13V31.32h3.13Z"/><path class="cls-3" d="M215.94,43q-5.35,0-5.35-5.87A6.28,6.28,0,0,1,212,32.65a5.45,5.45,0,0,1,4.17-1.54,7.94,7.94,0,0,1,3.57.78l-.92,2.42a13.61,13.61,0,0,0-1.37-.49,4.36,4.36,0,0,0-1.28-.19c-1.62,0-2.44,1.15-2.44,3.46s.82,3.37,2.44,3.37a5.64,5.64,0,0,0,1.68-.24,5.74,5.74,0,0,0,1.53-.76v2.68a5.14,5.14,0,0,1-1.53.67A8.86,8.86,0,0,1,215.94,43Z"/><path class="cls-3" d="M230.5,39.38a3.16,3.16,0,0,1-1.23,2.69,6.07,6.07,0,0,1-3.66.92,11.81,11.81,0,0,1-2.14-.17,8.1,8.1,0,0,1-1.65-.5V39.74a11.61,11.61,0,0,0,2,.69,8.09,8.09,0,0,0,1.92.27c1.13,0,1.7-.32,1.7-1a.81.81,0,0,0-.22-.6,3.23,3.23,0,0,0-.78-.52c-.37-.2-.86-.42-1.48-.69a9,9,0,0,1-1.94-1,2.88,2.88,0,0,1-.91-1.08,3.72,3.72,0,0,1-.28-1.5A2.74,2.74,0,0,1,223,31.94a5.83,5.83,0,0,1,3.36-.83,9.49,9.49,0,0,1,4,.9l-.94,2.25c-.57-.24-1.11-.44-1.61-.6a5,5,0,0,0-1.53-.24q-1.38,0-1.38.75a.88.88,0,0,0,.45.73,10.93,10.93,0,0,0,1.95.91,9.38,9.38,0,0,1,2,1,3,3,0,0,1,.92,1.08A3.32,3.32,0,0,1,230.5,39.38Z"/><path class="cls-3" d="M246.51,42.79l-.6-1.56h-.08a4.71,4.71,0,0,1-1.63,1.38A5.36,5.36,0,0,1,242,43a3.53,3.53,0,0,1-2.6-.94,3.65,3.65,0,0,1-.95-2.69,3,3,0,0,1,1.28-2.69,7.37,7.37,0,0,1,3.85-1l2-.06v-.5a1.56,1.56,0,0,0-1.78-1.75,8.15,8.15,0,0,0-3.23.83l-1-2.11a9.32,9.32,0,0,1,4.39-1,5.47,5.47,0,0,1,3.54,1,3.72,3.72,0,0,1,1.23,3.06v7.64Zm-.92-5.32-1.21.05a3.8,3.8,0,0,0-2,.49,1.56,1.56,0,0,0-.67,1.37c0,.88.51,1.32,1.52,1.32a2.38,2.38,0,0,0,1.74-.62,2.21,2.21,0,0,0,.65-1.66Z"/><path class="cls-3" d="M262.92,42.79h-3.13v-6.7a3.15,3.15,0,0,0-.44-1.86,1.6,1.6,0,0,0-1.4-.62,2.12,2.12,0,0,0-1.9.87,5.47,5.47,0,0,0-.58,2.91v5.4h-3.13V31.32h2.39l.42,1.47h.17a3.33,3.33,0,0,1,1.44-1.26,5,5,0,0,1,2.09-.42,4,4,0,0,1,3,1.08,4.34,4.34,0,0,1,1,3.12Z"/><path class="cls-3" d="M270.19,43A3.69,3.69,0,0,1,267,41.42a7.19,7.19,0,0,1-1.16-4.35A7.16,7.16,0,0,1,267,32.68a3.8,3.8,0,0,1,3.23-1.57,3.74,3.74,0,0,1,3.3,1.68h.11a12.65,12.65,0,0,1-.24-2.29V26.83h3.14v16h-2.4l-.61-1.49h-.13A3.57,3.57,0,0,1,270.19,43Zm1.1-2.49a2.08,2.08,0,0,0,1.75-.7,4,4,0,0,0,.61-2.37v-.34a4.67,4.67,0,0,0-.56-2.64,2.13,2.13,0,0,0-1.86-.8,1.82,1.82,0,0,0-1.62.89,4.7,4.7,0,0,0-.58,2.58,4.55,4.55,0,0,0,.58,2.53A1.91,1.91,0,0,0,271.29,40.5Z"/></g><g class="cls-2"><path class="cls-3" d="M127.56,51.79h4.67a9.05,9.05,0,0,1,4.63.91,3.17,3.17,0,0,1,1.44,2.89,3.63,3.63,0,0,1-.63,2.2,2.52,2.52,0,0,1-1.68,1v.1a3.31,3.31,0,0,1,2.06,1.19,4.34,4.34,0,0,1-.85,5.52,6.46,6.46,0,0,1-4,1.15h-5.61Zm3.18,5.94h1.85a3.35,3.35,0,0,0,1.87-.4A1.5,1.5,0,0,0,135,56a1.33,1.33,0,0,0-.63-1.24,4.08,4.08,0,0,0-2-.37h-1.67Zm0,2.52v3.91h2.07a3.11,3.11,0,0,0,1.94-.5,1.86,1.86,0,0,0,.63-1.54c0-1.24-.89-1.87-2.67-1.87Z"/><path class="cls-3" d="M141.71,52.36c0-1,.57-1.53,1.7-1.53s1.71.51,1.71,1.53a1.51,1.51,0,0,1-.43,1.13,1.79,1.79,0,0,1-1.28.41C142.28,53.9,141.71,53.38,141.71,52.36ZM145,66.79h-3.12V55.32H145Z"/><path class="cls-3" d="M159.09,61a6.13,6.13,0,0,1-1.48,4.38A5.35,5.35,0,0,1,153.5,67a5.76,5.76,0,0,1-2.91-.72,4.82,4.82,0,0,1-1.94-2.08A7,7,0,0,1,148,61a6.17,6.17,0,0,1,1.46-4.37,5.41,5.41,0,0,1,4.12-1.55,5.87,5.87,0,0,1,2.92.71,4.78,4.78,0,0,1,1.93,2.07A6.76,6.76,0,0,1,159.09,61Zm-7.92,0a4.85,4.85,0,0,0,.55,2.58,2,2,0,0,0,1.82.87,2,2,0,0,0,1.8-.87,4.83,4.83,0,0,0,.55-2.58,4.74,4.74,0,0,0-.55-2.55,2,2,0,0,0-1.82-.85,2,2,0,0,0-1.8.85A4.69,4.69,0,0,0,151.17,61Z"/><path class="cls-3" d="M162,52.36c0-1,.57-1.53,1.7-1.53s1.71.51,1.71,1.53a1.51,1.51,0,0,1-.43,1.13,1.79,1.79,0,0,1-1.28.41C162.53,53.9,162,53.38,162,52.36Zm3.26,14.43H162.1V55.32h3.12Z"/><path class="cls-3" d="M179.51,66.79h-3.13v-6.7a3.23,3.23,0,0,0-.44-1.86,1.62,1.62,0,0,0-1.41-.62,2.11,2.11,0,0,0-1.89.87,5.46,5.46,0,0,0-.59,2.91v5.4h-3.13V55.32h2.39l.42,1.47h.18a3.33,3.33,0,0,1,1.44-1.26,5,5,0,0,1,2.09-.42,4,4,0,0,1,3,1.08,4.34,4.34,0,0,1,1,3.12Z"/><path class="cls-3" d="M189.48,57.67h-2.7v9.12h-3.13V57.67h-1.72V56.16l1.72-.84v-.84a3.77,3.77,0,0,1,1-2.86,4.44,4.44,0,0,1,3.09-.9,8.05,8.05,0,0,1,2.88.48l-.8,2.3a5.79,5.79,0,0,0-1.74-.3,1.14,1.14,0,0,0-1,.39,1.7,1.7,0,0,0-.29,1v.72h2.7Z"/><path class="cls-3" d="M202.12,61a6.17,6.17,0,0,1-1.48,4.38A5.38,5.38,0,0,1,196.53,67a5.83,5.83,0,0,1-2.92-.72,4.8,4.8,0,0,1-1.93-2.08A7,7,0,0,1,191,61a6.13,6.13,0,0,1,1.47-4.37,5.4,5.4,0,0,1,4.12-1.55,5.86,5.86,0,0,1,2.91.71,4.8,4.8,0,0,1,1.94,2.07A6.89,6.89,0,0,1,202.12,61Zm-7.93,0a4.84,4.84,0,0,0,.56,2.58,2,2,0,0,0,1.82.87,2,2,0,0,0,1.8-.87,4.92,4.92,0,0,0,.55-2.58,4.73,4.73,0,0,0-.56-2.55,2.35,2.35,0,0,0-3.62,0A4.69,4.69,0,0,0,194.19,61Z"/><path class="cls-3" d="M211.52,55.11a5.13,5.13,0,0,1,1,.09l-.23,2.93a3.5,3.5,0,0,0-.92-.1,3.35,3.35,0,0,0-2.34.77,2.76,2.76,0,0,0-.83,2.15v5.84h-3.13V55.32h2.37l.46,1.93h.15a4.38,4.38,0,0,1,1.44-1.55A3.53,3.53,0,0,1,211.52,55.11Z"/><path class="cls-3" d="M225.34,66.79h-3.13v-6.7a3.42,3.42,0,0,0-.41-1.86,1.48,1.48,0,0,0-1.31-.62,1.88,1.88,0,0,0-1.74.88,5.7,5.7,0,0,0-.55,2.9v5.4h-3.12V55.32h2.38l.43,1.47h.17a3.19,3.19,0,0,1,1.33-1.24,4.43,4.43,0,0,1,2-.44c1.72,0,2.88.56,3.49,1.68h.27a3.09,3.09,0,0,1,1.36-1.24,4.48,4.48,0,0,1,2-.44,4,4,0,0,1,3,1,4.4,4.4,0,0,1,1,3.2v7.48h-3.14v-6.7a3.32,3.32,0,0,0-.42-1.86,1.45,1.45,0,0,0-1.3-.62,1.94,1.94,0,0,0-1.72.82,4.64,4.64,0,0,0-.57,2.6Z"/><path class="cls-3" d="M243.4,66.79l-.61-1.56h-.08a4.71,4.71,0,0,1-1.63,1.38,5.33,5.33,0,0,1-2.18.38,3.49,3.49,0,0,1-2.59-.94,3.61,3.61,0,0,1-.95-2.69,3,3,0,0,1,1.27-2.69,7.37,7.37,0,0,1,3.85-1l2-.06v-.5a1.56,1.56,0,0,0-1.78-1.75,8.19,8.19,0,0,0-3.23.83l-1-2.11a9.35,9.35,0,0,1,4.39-1,5.47,5.47,0,0,1,3.54,1,3.72,3.72,0,0,1,1.23,3.06v7.64Zm-.93-5.32-1.21.05a3.83,3.83,0,0,0-2,.49,1.55,1.55,0,0,0-.66,1.37c0,.88.5,1.32,1.51,1.32a2.38,2.38,0,0,0,1.74-.62,2.18,2.18,0,0,0,.65-1.66Z"/><path class="cls-3" d="M254.05,64.5a6.78,6.78,0,0,0,2-.36v2.33a7,7,0,0,1-2.87.52,3.56,3.56,0,0,1-2.74-.95,4.12,4.12,0,0,1-.85-2.84V57.67h-1.5V56.35l1.72-1.05.91-2.42h2v2.44h3.21v2.35h-3.21V63.2a1.21,1.21,0,0,0,.37,1A1.49,1.49,0,0,0,254.05,64.5Z"/><path class="cls-3" d="M258.62,52.36c0-1,.57-1.53,1.7-1.53s1.71.51,1.71,1.53a1.47,1.47,0,0,1-.43,1.13,1.79,1.79,0,0,1-1.28.41C259.19,53.9,258.62,53.38,258.62,52.36Zm3.26,14.43h-3.12V55.32h3.12Z"/><path class="cls-3" d="M270.24,67q-5.36,0-5.35-5.87a6.28,6.28,0,0,1,1.45-4.47,5.47,5.47,0,0,1,4.18-1.54,8,8,0,0,1,3.57.78l-.93,2.42a13.61,13.61,0,0,0-1.37-.49,4.35,4.35,0,0,0-1.27-.19c-1.63,0-2.44,1.15-2.44,3.46s.81,3.37,2.44,3.37a5.57,5.57,0,0,0,1.67-.24,6,6,0,0,0,1.54-.76v2.68a5.3,5.3,0,0,1-1.54.67A8.74,8.74,0,0,1,270.24,67Z"/><path class="cls-3" d="M284.8,63.38a3.16,3.16,0,0,1-1.23,2.69,6.05,6.05,0,0,1-3.66.92,11.61,11.61,0,0,1-2.13-.17,7.73,7.73,0,0,1-1.65-.5V63.74a11.49,11.49,0,0,0,2,.69,8.16,8.16,0,0,0,1.92.27c1.14,0,1.7-.32,1.7-1a.81.81,0,0,0-.22-.6,3.23,3.23,0,0,0-.78-.52c-.37-.2-.86-.42-1.48-.69a9,9,0,0,1-1.94-1,2.85,2.85,0,0,1-.9-1.08,3.56,3.56,0,0,1-.28-1.5,2.73,2.73,0,0,1,1.18-2.37,5.83,5.83,0,0,1,3.36-.83,9.57,9.57,0,0,1,4,.9l-.95,2.25c-.57-.24-1.11-.44-1.61-.6a4.93,4.93,0,0,0-1.52-.24c-.93,0-1.39.25-1.39.75a.88.88,0,0,0,.45.73,11.72,11.72,0,0,0,1.95.91,9.12,9.12,0,0,1,2,1,2.93,2.93,0,0,1,.92,1.08A3.32,3.32,0,0,1,284.8,63.38Z"/></g></g><path class="cls-4" d="M40.3,7.46V0h-.11a41.06,41.06,0,0,0-5.24.34l1,7.41a32.31,32.31,0,0,1,4.32-.29Z"/><path class="cls-4" d="M15.32,36.87l7.28,1A18.8,18.8,0,0,1,23,35.56a18.59,18.59,0,0,1,.73-2.18L17,30.56l-7-2.88a32.34,32.34,0,0,0-1.36,4l-7.3-2a39.92,39.92,0,0,0-1,5.16l7.51,1Z"/><path class="cls-4" d="M50.7,1.39l-2,7.2a30.5,30.5,0,0,1,4,1.38L55.67,3.1A38.85,38.85,0,0,0,50.7,1.39Z"/><path class="cls-4" d="M24.93,60a25.51,25.51,0,0,1-2.48-2.17l-5.32,5.32A30.49,30.49,0,0,0,20.33,66Z"/><path class="cls-4" d="M16,46.65l7.1-1.89a18.58,18.58,0,0,1-.62-4.61H15.1a24,24,0,0,0,.23,3.3l-7.47,1a33.37,33.37,0,0,1-.28-4.26H0v0a38.86,38.86,0,0,0,.34,5.21,39.89,39.89,0,0,0,1,5.16l7.34-2Z"/><path class="cls-4" d="M26.12,50.93A19.07,19.07,0,0,1,24.83,49a18.78,18.78,0,0,1-1-2.06L17,49.75a24,24,0,0,0,1.45,2.92l-6.53,3.77-6.58,3.8a41.54,41.54,0,0,0,2.92,4.37,40.58,40.58,0,0,0,3.46,4l5.39-5.37A31.65,31.65,0,0,1,14.32,60l6-4.58Z"/><path class="cls-4" d="M44.87,23a16,16,0,0,1,2.18.75l2.84-6.79a24.7,24.7,0,0,0-3.11-1.05Z"/><path class="cls-4" d="M36.88,15.22l-1-7.47a32,32,0,0,0-4.19.84L29.79,1.36a40,40,0,0,0-5,1.69L27.67,10l2.89,7a25.13,25.13,0,0,0-2.94,1.46l3.68,6.37a16.68,16.68,0,0,1,2.07-1A18.23,18.23,0,0,1,35.56,23a18.61,18.61,0,0,1,2.27-.46,19,19,0,0,1,2.4-.16h.08V15h-.07A24.69,24.69,0,0,0,36.88,15.22Z"/><path class="cls-4" d="M40.3,15a24.9,24.9,0,0,1,3.26.22l1-7.46a33.25,33.25,0,0,0-4.26-.29Z"/><path class="cls-4" d="M20.3,14.25,15.73,8.3a39.44,39.44,0,0,0-4,3.46l5.31,5.32,5.32,5.32a25,25,0,0,1,5.21-4l-3.77-6.51A31.4,31.4,0,0,0,20.3,14.25Z"/><path class="cls-4" d="M26.07,29.37a16.28,16.28,0,0,1,1.54-1.77l-5.2-5.2a24.49,24.49,0,0,0-2.17,2.49Z"/><path class="cls-4" d="M8.31,15.71a41.41,41.41,0,0,0-2.92,4.36l6.52,3.78,6.52,3.78a25.45,25.45,0,0,1,1.81-2.74l-6-4.59Z"/><path class="cls-4" d="M60.37,5.43l-3.75,6.44-3.79,6.51a25.2,25.2,0,0,1,2.74,1.84l4.6-6,4.55-5.89A40.43,40.43,0,0,0,60.37,5.43Z"/><path class="cls-5" d="M56.62,11.87A33.27,33.27,0,0,0,52.79,10l-2.9,6.94a25.19,25.19,0,0,1,2.94,1.47Z"/><path class="cls-5" d="M43.56,15.21l-1,7.29a17,17,0,0,1,2.28.45l1.91-7.09A24.15,24.15,0,0,0,43.56,15.21Z"/><path class="cls-5" d="M40.23,7.46a32.31,32.31,0,0,0-4.32.29l1,7.47A24.69,24.69,0,0,1,40.23,15h.07V7.46Z"/><path class="cls-5" d="M10,27.68l7,2.88a25.73,25.73,0,0,1,1.45-2.93l-6.52-3.78A33.14,33.14,0,0,0,10,27.68Z"/><path class="cls-5" d="M17.13,63.19l5.32-5.32a25.46,25.46,0,0,1-2.16-2.47l-6,4.58A31.65,31.65,0,0,0,17.13,63.19Z"/><path class="cls-5" d="M18.43,27.63l6.36,3.68a15.86,15.86,0,0,1,1.28-1.94l-5.83-4.48A25.45,25.45,0,0,0,18.43,27.63Z"/><path class="cls-5" d="M15.1,40.11v0h7.35v0a19.42,19.42,0,0,1,.15-2.29l-7.28-1A24.71,24.71,0,0,0,15.1,40.11Z"/><path class="cls-5" d="M10.06,52.62l7-2.87a23.54,23.54,0,0,1-1-3.1L8.69,48.59A32.38,32.38,0,0,0,10.06,52.62Z"/><path class="cls-5" d="M24.88,20.22l4.48,5.83a16.83,16.83,0,0,1,1.94-1.3l-3.68-6.37A26.74,26.74,0,0,0,24.88,20.22Z"/><path class="cls-5" d="M33.77,58.34a2.7,2.7,0,0,1-1-.2,2.36,2.36,0,0,1-.8-.54,2.52,2.52,0,0,1-.53-.82,2.81,2.81,0,0,1,0-2,2.42,2.42,0,0,1,.53-.82,2.36,2.36,0,0,1,.8-.54,2.7,2.7,0,0,1,1-.2,2.63,2.63,0,0,1,1,.2,2.3,2.3,0,0,1,.81.54,2.58,2.58,0,0,1,.53.82,2.81,2.81,0,0,1,0,2,2.69,2.69,0,0,1-.53.82,2.3,2.3,0,0,1-.81.54A2.63,2.63,0,0,1,33.77,58.34Zm0-.63a1.84,1.84,0,0,0,.76-.15,1.76,1.76,0,0,0,1-1,2.13,2.13,0,0,0,.13-.76,2.08,2.08,0,0,0-.13-.75,1.83,1.83,0,0,0-.37-.62,1.77,1.77,0,0,0-.59-.42,1.7,1.7,0,0,0-.76-.16,1.79,1.79,0,0,0-1.34.58,1.83,1.83,0,0,0-.37.62,2.08,2.08,0,0,0-.13.75,2.13,2.13,0,0,0,.13.76,1.93,1.93,0,0,0,.37.62,1.74,1.74,0,0,0,1.34.57Z"/><path class="cls-5" d="M37.16,54.93h.63v.51h0a.89.89,0,0,1,.41-.43,1.3,1.3,0,0,1,.67-.16,1.33,1.33,0,0,1,.45.07,1,1,0,0,1,.38.23,1,1,0,0,1,.26.39,1.4,1.4,0,0,1,.1.56v2.11h-.62V56.27a1.13,1.13,0,0,0-.07-.39.76.76,0,0,0-.16-.26.58.58,0,0,0-.24-.14.87.87,0,0,0-.28,0,1,1,0,0,0-.36.06.72.72,0,0,0-.29.2,1,1,0,0,0-.2.34,1.83,1.83,0,0,0-.06.49v1.69h-.63Z"/><path class="cls-5" d="M42.79,55.47H41.9v1.76a1,1,0,0,0,.06.25.38.38,0,0,0,.14.17.49.49,0,0,0,.27.06.93.93,0,0,0,.23,0,.65.65,0,0,0,.21-.07v.56a.71.71,0,0,1-.29.09,1.42,1.42,0,0,1-.27,0,1.25,1.25,0,0,1-.56-.1.72.72,0,0,1-.29-.25.89.89,0,0,1-.11-.36c0-.13,0-.26,0-.4V55.47h-.72v-.54h.72V54h.62v.92h.89Z"/><path class="cls-5" d="M43.58,55.33a1.79,1.79,0,0,1,.61-.36,2.09,2.09,0,0,1,.69-.12,1.89,1.89,0,0,1,.62.09,1.18,1.18,0,0,1,.43.24.92.92,0,0,1,.24.35,1,1,0,0,1,.08.41v1.68c0,.11,0,.22,0,.32s0,.18,0,.27h-.55a4.1,4.1,0,0,1,0-.5h0a1.05,1.05,0,0,1-.49.45,1.51,1.51,0,0,1-.65.13,1.56,1.56,0,0,1-.44-.06,1,1,0,0,1-.36-.18.93.93,0,0,1-.25-.31,1.07,1.07,0,0,1,0-1,1.2,1.2,0,0,1,.39-.35,1.91,1.91,0,0,1,.57-.19,4,4,0,0,1,.71-.06h.45V56a.56.56,0,0,0-.05-.25.64.64,0,0,0-.14-.22.78.78,0,0,0-.24-.16,1,1,0,0,0-.35-.06,1.42,1.42,0,0,0-.31,0,1.45,1.45,0,0,0-.25.09.82.82,0,0,0-.2.12l-.17.13Zm1.76,1.3-.45,0a2.2,2.2,0,0,0-.42.09.87.87,0,0,0-.32.2.43.43,0,0,0-.12.31.47.47,0,0,0,.19.41.89.89,0,0,0,.52.13.94.94,0,0,0,.43-.09,1,1,0,0,0,.3-.22,1,1,0,0,0,.15-.31,1,1,0,0,0,.05-.34v-.21Z"/><path class="cls-5" d="M47.18,54.93h.62v.51h0A.78.78,0,0,1,48,55.2a1.3,1.3,0,0,1,.23-.18,1.43,1.43,0,0,1,.28-.13,1.15,1.15,0,0,1,.31,0,.86.86,0,0,1,.28,0l0,.67-.15,0-.16,0a.94.94,0,0,0-.7.26,1.14,1.14,0,0,0-.24.8v1.64h-.62Z"/><path class="cls-5" d="M49.58,53.76a.42.42,0,0,1,.13-.32A.45.45,0,0,1,50,53.3a.45.45,0,0,1,.33.14.42.42,0,0,1,.13.32.44.44,0,0,1-.13.32.44.44,0,0,1-.33.13.44.44,0,0,1-.45-.45Zm.14,1.17h.63v3.28h-.63Z"/><path class="cls-5" d="M51.12,56.57a1.67,1.67,0,0,1,.14-.67,1.72,1.72,0,0,1,.37-.55,1.9,1.9,0,0,1,.55-.37,1.87,1.87,0,0,1,1.37,0,1.77,1.77,0,0,1,.55.37,1.75,1.75,0,0,1,.38.55,1.67,1.67,0,0,1,.13.67,1.72,1.72,0,0,1-.13.68,1.82,1.82,0,0,1-.93.91,1.75,1.75,0,0,1-1.92-.37,1.58,1.58,0,0,1-.37-.54A1.72,1.72,0,0,1,51.12,56.57Zm.67,0a1.35,1.35,0,0,0,.07.46,1.09,1.09,0,0,0,.22.36,1,1,0,0,0,.34.24,1.06,1.06,0,0,0,.45.08,1.12,1.12,0,0,0,.45-.08,1.16,1.16,0,0,0,.34-.24,1.07,1.07,0,0,0,.21-.36,1.34,1.34,0,0,0,.08-.46,1.39,1.39,0,0,0-.08-.46,1.07,1.07,0,0,0-.21-.36,1.1,1.1,0,0,0-.79-.32,1.06,1.06,0,0,0-.45.09.93.93,0,0,0-.34.23,1.09,1.09,0,0,0-.22.36A1.39,1.39,0,0,0,51.79,56.57Z"/><path class="cls-5" d="M57.54,53.31h.67v4.9h-.67Z"/><path class="cls-5" d="M59.28,54.93h.62v.51h0a.89.89,0,0,1,.41-.43,1.3,1.3,0,0,1,.67-.16,1.41,1.41,0,0,1,.45.07,1,1,0,0,1,.38.23,1,1,0,0,1,.26.39,1.6,1.6,0,0,1,.1.56v2.11h-.63V56.27a1.14,1.14,0,0,0-.06-.39.76.76,0,0,0-.16-.26.58.58,0,0,0-.24-.14.92.92,0,0,0-.28,0,1,1,0,0,0-.36.06.72.72,0,0,0-.29.2A.88.88,0,0,0,60,56a1.81,1.81,0,0,0-.07.49v1.69h-.62Z"/><path class="cls-5" d="M64.87,55.76a1.08,1.08,0,0,0-.28-.24.82.82,0,0,0-.4-.09.79.79,0,0,0-.38.09.31.31,0,0,0-.16.28.32.32,0,0,0,.09.23.86.86,0,0,0,.22.15,1.29,1.29,0,0,0,.28.08l.24.05a2.11,2.11,0,0,1,.38.12.87.87,0,0,1,.31.18.79.79,0,0,1,.2.27.86.86,0,0,1,.07.38.9.9,0,0,1-.12.48,1,1,0,0,1-.3.32,1.5,1.5,0,0,1-.43.18,2,2,0,0,1-.48,0,1.92,1.92,0,0,1-.71-.12,1.19,1.19,0,0,1-.55-.46l.47-.38a2.16,2.16,0,0,0,.33.27,1,1,0,0,0,.46.11,1,1,0,0,0,.24,0,.66.66,0,0,0,.21-.08.34.34,0,0,0,.16-.13.28.28,0,0,0,.06-.18.32.32,0,0,0-.09-.23.6.6,0,0,0-.21-.14,1,1,0,0,0-.25-.08L64,56.79a3.44,3.44,0,0,1-.38-.11,1.07,1.07,0,0,1-.32-.16.73.73,0,0,1-.22-.27.75.75,0,0,1-.09-.39.94.94,0,0,1,.11-.45,1,1,0,0,1,.28-.31,1.4,1.4,0,0,1,.41-.19,1.74,1.74,0,0,1,.45-.06,1.77,1.77,0,0,1,.64.12,1.08,1.08,0,0,1,.48.42Z"/><path class="cls-5" d="M68.07,55.47h-.89v1.76a1,1,0,0,0,0,.25.46.46,0,0,0,.14.17.53.53,0,0,0,.28.06.82.82,0,0,0,.22,0,.81.81,0,0,0,.22-.07v.56a.76.76,0,0,1-.29.09,1.53,1.53,0,0,1-.27,0,1.22,1.22,0,0,1-.56-.1.66.66,0,0,1-.29-.25.89.89,0,0,1-.11-.36c0-.13,0-.26,0-.4V55.47h-.72v-.54h.72V54h.63v.92h.89Z"/><path class="cls-5" d="M68.65,53.76a.43.43,0,0,1,.14-.32.42.42,0,0,1,.32-.14.45.45,0,0,1,.32.14.42.42,0,0,1,.13.32.44.44,0,0,1-.45.45.41.41,0,0,1-.32-.13A.45.45,0,0,1,68.65,53.76Zm.15,1.17h.62v3.28H68.8Z"/><path class="cls-5" d="M72.2,55.47h-.89V57a2.44,2.44,0,0,0,0,.27.7.7,0,0,0,.05.25.38.38,0,0,0,.14.17.49.49,0,0,0,.27.06.93.93,0,0,0,.23,0,.65.65,0,0,0,.21-.07v.56a.71.71,0,0,1-.28.09,1.58,1.58,0,0,1-.28,0,1.17,1.17,0,0,1-.55-.1.61.61,0,0,1-.29-.25.9.9,0,0,1-.12-.36c0-.13,0-.26,0-.4V55.47H70v-.54h.72V54h.62v.92h.89Z"/><path class="cls-5" d="M75.8,58.21h-.62v-.5h0a.9.9,0,0,1-.4.42,1.51,1.51,0,0,1-1.13.09,1,1,0,0,1-.64-.61A1.62,1.62,0,0,1,72.9,57V54.93h.62v1.94a1.14,1.14,0,0,0,.06.39.62.62,0,0,0,.17.26.65.65,0,0,0,.23.15.92.92,0,0,0,.29,0,1,1,0,0,0,.35-.06.75.75,0,0,0,.3-.2,1,1,0,0,0,.19-.34,1.45,1.45,0,0,0,.07-.49V54.93h.62Z"/><path class="cls-5" d="M78.57,55.47h-.9V57c0,.09,0,.18,0,.27a1,1,0,0,0,0,.25.46.46,0,0,0,.14.17.49.49,0,0,0,.27.06.9.9,0,0,0,.23,0,.81.81,0,0,0,.22-.07v.56a.76.76,0,0,1-.29.09,1.53,1.53,0,0,1-.27,0,1.22,1.22,0,0,1-.56-.1.66.66,0,0,1-.29-.25.89.89,0,0,1-.11-.36c0-.13,0-.26,0-.4V55.47h-.72v-.54h.72V54h.62v.92h.9Z"/><path class="cls-5" d="M79.72,56.8a.86.86,0,0,0,.09.39.89.89,0,0,0,.24.3,1.15,1.15,0,0,0,.36.2,1.41,1.41,0,0,0,.41.07,1,1,0,0,0,.51-.14,1.64,1.64,0,0,0,.39-.36l.47.36a1.71,1.71,0,0,1-1.45.67,1.75,1.75,0,0,1-.7-.13,1.55,1.55,0,0,1-.54-.36,1.68,1.68,0,0,1-.33-.55,1.87,1.87,0,0,1-.12-.68,1.72,1.72,0,0,1,.13-.68,1.67,1.67,0,0,1,.35-.55,1.7,1.7,0,0,1,.54-.36,1.68,1.68,0,0,1,.68-.13,1.61,1.61,0,0,1,.73.15,1.53,1.53,0,0,1,.5.4,1.59,1.59,0,0,1,.28.55,2.27,2.27,0,0,1,.08.63v.22Zm2-.5a1.17,1.17,0,0,0-.07-.38.9.9,0,0,0-.17-.3.93.93,0,0,0-.3-.2,1,1,0,0,0-.41-.07,1.16,1.16,0,0,0-.42.08,1.24,1.24,0,0,0-.32.23.92.92,0,0,0-.2.31.78.78,0,0,0-.07.33Z"/><path class="cls-5" d="M32.46,63h-.71v-.54h.71V61.7a1.57,1.57,0,0,1,.25-1,1.06,1.06,0,0,1,.87-.32h.22a1.09,1.09,0,0,1,.24,0L34,61a.53.53,0,0,0-.17,0l-.18,0a.65.65,0,0,0-.27.05.5.5,0,0,0-.17.15.56.56,0,0,0-.07.23,1.51,1.51,0,0,0,0,.31v.76h.74V63h-.75v2.73h-.62Z"/><path class="cls-5" d="M34.23,64.08a1.72,1.72,0,0,1,.14-.68,1.68,1.68,0,0,1,.37-.54,1.62,1.62,0,0,1,.55-.37,1.75,1.75,0,0,1,1.37,0,1.62,1.62,0,0,1,.55.37,1.68,1.68,0,0,1,.37.54,1.72,1.72,0,0,1,.14.68,1.67,1.67,0,0,1-.14.67,1.72,1.72,0,0,1-.37.55,1.81,1.81,0,0,1-1.24.5,1.72,1.72,0,0,1-.68-.14,1.75,1.75,0,0,1-.55-.36,1.72,1.72,0,0,1-.37-.55A1.67,1.67,0,0,1,34.23,64.08Zm.67,0a1.43,1.43,0,0,0,.07.46.84.84,0,0,0,.22.35,1,1,0,0,0,.33.24,1.13,1.13,0,0,0,.45.09,1.06,1.06,0,0,0,.45-.09,1,1,0,0,0,.34-.24.84.84,0,0,0,.22-.35,1.43,1.43,0,0,0,.07-.46,1.35,1.35,0,0,0-.07-.46.81.81,0,0,0-.22-.36,1,1,0,0,0-.34-.24,1.06,1.06,0,0,0-.45-.09,1.13,1.13,0,0,0-.45.09,1,1,0,0,0-.33.24.81.81,0,0,0-.22.36A1.35,1.35,0,0,0,34.9,64.08Z"/><path class="cls-5" d="M38.5,62.44h.62v.5h0a.81.81,0,0,1,.17-.24,1,1,0,0,1,.23-.18,1.39,1.39,0,0,1,.28-.12,1,1,0,0,1,.3,0,1.11,1.11,0,0,1,.28,0l0,.68-.15,0h-.15a.91.91,0,0,0-.7.25,1.14,1.14,0,0,0-.24.8v1.64H38.5Z"/><path class="cls-5" d="M46.62,61.88a1.46,1.46,0,0,0-.53-.42,1.52,1.52,0,0,0-.66-.15,1.87,1.87,0,0,0-.75.16,1.72,1.72,0,0,0-.57.43,2,2,0,0,0-.37.63,2.09,2.09,0,0,0,.35,2.12,1.74,1.74,0,0,0,.58.41,1.7,1.7,0,0,0,.76.16,1.45,1.45,0,0,0,.74-.18,1.38,1.38,0,0,0,.54-.48l.56.42a2.13,2.13,0,0,1-.19.22,1.69,1.69,0,0,1-.37.28,2.16,2.16,0,0,1-.55.25,2.35,2.35,0,0,1-.74.11,2.38,2.38,0,0,1-1.05-.22,2.57,2.57,0,0,1-.79-.58,2.38,2.38,0,0,1-.5-.82,2.42,2.42,0,0,1-.18-.91,2.76,2.76,0,0,1,.19-1.05,2.44,2.44,0,0,1,.52-.83,2.4,2.4,0,0,1,.81-.54,2.68,2.68,0,0,1,1-.2,2.44,2.44,0,0,1,.95.19,1.8,1.8,0,0,1,.76.57Z"/><path class="cls-5" d="M48,62.84a1.82,1.82,0,0,1,.61-.37,2.09,2.09,0,0,1,.69-.12,1.89,1.89,0,0,1,.62.09,1.27,1.27,0,0,1,.43.24,1,1,0,0,1,.24.35,1.2,1.2,0,0,1,.08.42v1.67c0,.12,0,.22,0,.32a2.28,2.28,0,0,0,0,.27h-.55a4,4,0,0,1,0-.49h0a1.23,1.23,0,0,1-.49.45,1.69,1.69,0,0,1-.66.13,1.49,1.49,0,0,1-.43-.06,1.43,1.43,0,0,1-.37-.19A1,1,0,0,1,48,64.28a1,1,0,0,1,.39-.35,1.82,1.82,0,0,1,.57-.19,3.88,3.88,0,0,1,.7-.06h.46v-.14a.79.79,0,0,0,0-.25.74.74,0,0,0-.14-.22.72.72,0,0,0-.25-.16.86.86,0,0,0-.34-.06,1,1,0,0,0-.32,0,1.35,1.35,0,0,0-.24.08l-.2.12-.18.13Zm1.76,1.3-.46,0a1.84,1.84,0,0,0-.42.1.81.81,0,0,0-.31.19.44.44,0,0,0-.12.32.45.45,0,0,0,.19.41,1,1,0,0,0,.52.12.94.94,0,0,0,.43-.09.72.72,0,0,0,.29-.22.77.77,0,0,0,.16-.31,1.27,1.27,0,0,0,0-.34v-.2Z"/><path class="cls-5" d="M51.59,62.44h.62v.5h0a.92.92,0,0,1,.41-.42,1.36,1.36,0,0,1,.67-.17,1.44,1.44,0,0,1,.46.08,1,1,0,0,1,.38.22,1.26,1.26,0,0,1,.26.39,1.6,1.6,0,0,1,.09.56v2.11h-.62V63.78a1.14,1.14,0,0,0-.06-.39.73.73,0,0,0-.17-.27A.72.72,0,0,0,53.4,63a.87.87,0,0,0-.28,0,.86.86,0,0,0-.36.07.77.77,0,0,0-.29.19.91.91,0,0,0-.19.35,1.41,1.41,0,0,0-.07.49v1.68h-.62Z"/><path class="cls-5" d="M57.77,63.31A1.57,1.57,0,0,0,57.4,63a1,1,0,0,0-.45-.09,1.06,1.06,0,0,0-.45.09,1,1,0,0,0-.31.26,1.2,1.2,0,0,0-.2.37,1.61,1.61,0,0,0-.06.44,1.27,1.27,0,0,0,.07.44,1,1,0,0,0,.22.35,1,1,0,0,0,.76.33.88.88,0,0,0,.45-.1,1.1,1.1,0,0,0,.35-.27l.44.44a1.42,1.42,0,0,1-.56.39,1.91,1.91,0,0,1-.68.12,1.75,1.75,0,0,1-.7-.13,1.54,1.54,0,0,1-.89-.89,1.73,1.73,0,0,1-.13-.69,1.78,1.78,0,0,1,.13-.7,1.67,1.67,0,0,1,.35-.55,1.53,1.53,0,0,1,.54-.35,1.75,1.75,0,0,1,.7-.13,1.8,1.8,0,0,1,.69.13,1.39,1.39,0,0,1,.57.39Z"/><path class="cls-5" d="M59.21,64.3a.8.8,0,0,0,.09.39,1.26,1.26,0,0,0,.25.31,1.31,1.31,0,0,0,.35.19,1.2,1.2,0,0,0,.42.07.92.92,0,0,0,.5-.14,1.86,1.86,0,0,0,.4-.35l.47.36a1.76,1.76,0,0,1-1.46.67,2,2,0,0,1-.7-.13A1.45,1.45,0,0,1,59,65.3a1.5,1.5,0,0,1-.34-.54,1.9,1.9,0,0,1-.11-.68,1.92,1.92,0,0,1,.12-.69,1.7,1.7,0,0,1,.36-.54,1.54,1.54,0,0,1,.53-.37,1.91,1.91,0,0,1,.68-.13,1.65,1.65,0,0,1,.74.15,1.62,1.62,0,0,1,.49.4,1.64,1.64,0,0,1,.28.56,2.16,2.16,0,0,1,.09.62v.22Zm2-.49a1.23,1.23,0,0,0-.06-.39.92.92,0,0,0-.18-.3.88.88,0,0,0-.29-.2,1.3,1.3,0,0,0-.41-.07.93.93,0,0,0-.42.09.83.83,0,0,0-.32.22,1.06,1.06,0,0,0-.21.31.8.8,0,0,0-.07.34Z"/><path class="cls-5" d="M62.6,62.44h.63v.5h0a.81.81,0,0,1,.17-.24,1,1,0,0,1,.23-.18,1.18,1.18,0,0,1,.28-.12,1,1,0,0,1,.3,0,1.18,1.18,0,0,1,.28,0l0,.68-.15,0h-.15a.91.91,0,0,0-.7.25,1.14,1.14,0,0,0-.24.8v1.64H62.6Z"/><path class="cls-5" d="M67.31,60.82H69a2.11,2.11,0,0,1,.77.12,1.36,1.36,0,0,1,.48.33,1.14,1.14,0,0,1,.25.44,2.06,2.06,0,0,1,.07.48,1.2,1.2,0,0,1-.09.45,1.09,1.09,0,0,1-.23.39,1.4,1.4,0,0,1-.38.3,1.38,1.38,0,0,1-.51.15l1.39,2.23H70l-1.24-2.15H68v2.15h-.67ZM68,63h.87a2.33,2.33,0,0,0,.38,0,.91.91,0,0,0,.34-.11.62.62,0,0,0,.24-.24.79.79,0,0,0,.09-.4.83.83,0,0,0-.09-.41.69.69,0,0,0-.24-.24,1.13,1.13,0,0,0-.34-.11,2.34,2.34,0,0,0-.38,0H68Z"/><path class="cls-5" d="M71.78,64.3a.71.71,0,0,0,.1.39,1,1,0,0,0,.24.31,1.31,1.31,0,0,0,.35.19,1.23,1.23,0,0,0,.42.07.92.92,0,0,0,.5-.14,1.65,1.65,0,0,0,.4-.35l.47.36a1.75,1.75,0,0,1-1.45.67,2,2,0,0,1-.71-.13,1.54,1.54,0,0,1-.53-.37,1.48,1.48,0,0,1-.33-.54,1.91,1.91,0,0,1-.12-.68,1.73,1.73,0,0,1,.13-.69,1.53,1.53,0,0,1,.35-.54,1.64,1.64,0,0,1,.53-.37,1.91,1.91,0,0,1,.68-.13,1.65,1.65,0,0,1,.74.15,1.62,1.62,0,0,1,.49.4,1.48,1.48,0,0,1,.28.56,2.16,2.16,0,0,1,.09.62v.22Zm2-.49a1.59,1.59,0,0,0-.07-.39.92.92,0,0,0-.18-.3.79.79,0,0,0-.29-.2,1.25,1.25,0,0,0-.41-.07,1,1,0,0,0-.42.09.91.91,0,0,0-.32.22,1.06,1.06,0,0,0-.21.31,1,1,0,0,0-.07.34Z"/><path class="cls-5" d="M76.89,63.26a.87.87,0,0,0-.27-.23.72.72,0,0,0-.4-.1.67.67,0,0,0-.38.1.29.29,0,0,0-.16.27.32.32,0,0,0,.09.24.69.69,0,0,0,.22.14.92.92,0,0,0,.27.08l.25.05a2.11,2.11,0,0,1,.38.12,1.09,1.09,0,0,1,.3.18.6.6,0,0,1,.2.27.9.9,0,0,1,.08.39.89.89,0,0,1-.12.47,1,1,0,0,1-.3.32,1.09,1.09,0,0,1-.43.18,2,2,0,0,1-.48.06,1.81,1.81,0,0,1-.72-.13,1.28,1.28,0,0,1-.55-.45l.47-.39a2.24,2.24,0,0,0,.34.27.85.85,0,0,0,.46.12,1,1,0,0,0,.24,0,.65.65,0,0,0,.21-.07.41.41,0,0,0,.15-.14.28.28,0,0,0,.06-.18.36.36,0,0,0-.08-.23.77.77,0,0,0-.21-.14l-.26-.08-.24,0-.38-.11a1.31,1.31,0,0,1-.31-.17.82.82,0,0,1-.23-.26,1,1,0,0,1-.08-.4.94.94,0,0,1,.39-.76,1.64,1.64,0,0,1,.4-.19,1.76,1.76,0,0,1,.46-.06,1.51,1.51,0,0,1,.63.13,1,1,0,0,1,.49.41Z"/><path class="cls-5" d="M78.68,64.3a.71.71,0,0,0,.1.39A1,1,0,0,0,79,65a1.23,1.23,0,0,0,.36.19,1.14,1.14,0,0,0,.41.07,1,1,0,0,0,.51-.14,1.82,1.82,0,0,0,.39-.35l.47.36a1.75,1.75,0,0,1-1.45.67,2,2,0,0,1-.71-.13,1.56,1.56,0,0,1-.86-.91,1.91,1.91,0,0,1-.12-.68,1.73,1.73,0,0,1,.13-.69,1.53,1.53,0,0,1,.35-.54,1.58,1.58,0,0,1,.54-.37,1.82,1.82,0,0,1,.67-.13A1.48,1.48,0,0,1,81,62.9a1.84,1.84,0,0,1,.28.56,2.57,2.57,0,0,1,.08.62v.22Zm2-.49a1.59,1.59,0,0,0-.07-.39,1.11,1.11,0,0,0-.17-.3.93.93,0,0,0-.3-.2,1.25,1.25,0,0,0-.41-.07,1,1,0,0,0-.42.09.91.91,0,0,0-.32.22.87.87,0,0,0-.2.31.81.81,0,0,0-.08.34Z"/><path class="cls-5" d="M82,62.84a1.68,1.68,0,0,1,.6-.37,2.19,2.19,0,0,1,.7-.12,1.93,1.93,0,0,1,.62.09,1.22,1.22,0,0,1,.42.24,1.19,1.19,0,0,1,.25.35,1.2,1.2,0,0,1,.08.42v2c0,.09,0,.19,0,.27h-.55c0-.16,0-.33,0-.49h0a1.25,1.25,0,0,1-.5.45,1.67,1.67,0,0,1-1.09.07,1.23,1.23,0,0,1-.36-.19.84.84,0,0,1-.25-.31.93.93,0,0,1-.09-.42,1,1,0,0,1,.14-.54,1.2,1.2,0,0,1,.39-.35,2,2,0,0,1,.58-.19,3.88,3.88,0,0,1,.7-.06h.45v-.14a.77.77,0,0,0,0-.25.78.78,0,0,0-.15-.22.6.6,0,0,0-.24-.16.91.91,0,0,0-.35-.06,1,1,0,0,0-.31,0l-.25.08-.2.12-.17.13Zm1.75,1.3-.45,0a1.72,1.72,0,0,0-.42.1.74.74,0,0,0-.31.19.44.44,0,0,0-.12.32.45.45,0,0,0,.19.41.92.92,0,0,0,.51.12,1,1,0,0,0,.44-.09.8.8,0,0,0,.29-.22,1.14,1.14,0,0,0,.16-.31,1.27,1.27,0,0,0,0-.34v-.2Z"/><path class="cls-5" d="M85.76,62.44h.62v.5h0a.81.81,0,0,1,.17-.24,1,1,0,0,1,.23-.18,1.39,1.39,0,0,1,.28-.12,1,1,0,0,1,.3,0,1.11,1.11,0,0,1,.28,0l0,.68-.15,0h-.15a.91.91,0,0,0-.7.25,1.14,1.14,0,0,0-.24.8v1.64h-.62Z"/><path class="cls-5" d="M90.45,63.31a1.57,1.57,0,0,0-.37-.28,1,1,0,0,0-.45-.09,1.06,1.06,0,0,0-.45.09,1.14,1.14,0,0,0-.32.26,1.43,1.43,0,0,0-.19.37,1.61,1.61,0,0,0-.06.44,1.27,1.27,0,0,0,.07.44,1,1,0,0,0,.22.35,1,1,0,0,0,.76.33.88.88,0,0,0,.45-.1,1.1,1.1,0,0,0,.35-.27l.44.44a1.42,1.42,0,0,1-.56.39,2,2,0,0,1-.68.12,1.75,1.75,0,0,1-.7-.13,1.54,1.54,0,0,1-.89-.89,1.73,1.73,0,0,1-.13-.69,1.78,1.78,0,0,1,.13-.7,1.67,1.67,0,0,1,.35-.55,1.49,1.49,0,0,1,.53-.35,1.95,1.95,0,0,1,1.4,0,1.53,1.53,0,0,1,.57.39Z"/><path class="cls-5" d="M91.5,60.49h.62v2.45h0a.92.92,0,0,1,.41-.42,1.36,1.36,0,0,1,.67-.17,1.44,1.44,0,0,1,.46.08,1,1,0,0,1,.38.22,1.26,1.26,0,0,1,.26.39,1.62,1.62,0,0,1,.09.57v2.11h-.62V63.78a1.14,1.14,0,0,0-.06-.39.73.73,0,0,0-.17-.27.72.72,0,0,0-.24-.14.87.87,0,0,0-.28,0,1,1,0,0,0-.36.07.77.77,0,0,0-.29.19.91.91,0,0,0-.19.35,1.41,1.41,0,0,0-.07.49v1.69H91.5Z"/><path class="cls-5" d="M40.07,30.15a9.61,9.61,0,0,0-9.83,9.7v0A9.51,9.51,0,0,0,40,49.54a9.6,9.6,0,0,0,9.83-9.69V39.8A9.52,9.52,0,0,0,40.07,30.15Zm6.32,9.75a6.34,6.34,0,0,1-6.32,6.62,6.43,6.43,0,0,1-6.38-6.67V39.8A6.34,6.34,0,0,1,40,33.18a6.43,6.43,0,0,1,6.38,6.67Z"/><rect class="cls-5" x="52.68" y="30.47" width="3.29" height="18.75"/><path class="cls-5" d="M68.46,46.52c-3.59,0-6.19-3-6.19-6.67V39.8a6.3,6.3,0,0,1,6.19-6.62,7.47,7.47,0,0,1,5.25,2.33l2.11-2.44a9.78,9.78,0,0,0-7.34-2.92,9.49,9.49,0,0,0-9.67,9.7v0a9.43,9.43,0,0,0,9.54,9.64A9.67,9.67,0,0,0,76,46.22l-2.12-2.14A7.36,7.36,0,0,1,68.46,46.52Z"/><path class="cls-5" d="M89.46,42.13a5.63,5.63,0,0,0,4.47-5.68v-.06a5.63,5.63,0,0,0-1.56-4A7.53,7.53,0,0,0,87,30.47H78.61V49.22H81.9V42.69H86l4.6,6.53h3.89ZM81.9,39.77v-6.3h4.8c2.43,0,3.88,1.1,3.88,3.11v.05c0,1.91-1.5,3.14-3.86,3.14Z"/></g></g></svg>